<?xml version="1.0" encoding="utf-8"?>
<!-- Generator: Adobe Illustrator 16.0.0, SVG Export Plug-In . SVG Version: 6.00 Build 0)  -->
<svg version="1.2" baseProfile="tiny" id="Layer_1" xmlns="http://www.w3.org/2000/svg" xmlns:xlink="http://www.w3.org/1999/xlink"
	 x="0px" y="0px" width="512px" height="512px" viewBox="0 0 512 512" xml:space="preserve">
<circle fill="#75A8DA" cx="313.887" cy="310" r="188.401"/>
<path fill="#333B61" d="M65.773,88.821c43.079-25.982,96.633,3.288,98.123,52.228c0.614,19.705-1.354,38.771-13.689,54.918
	c-17.502,22.932-41.127,32.099-69.539,27.095c-6.782-1.191-12.96-5.845-20.654-9.491c-7.433,10.512-19.173,13.771-34.02,10.305
	v-8.472c0-54.146,0-108.286,0-162.424c0-9.086-0.093-17.629-11.146-21.25c-1.653-0.542-1.734-5.816-2.791-9.847
	c16.961,0,32.512-0.135,48.027,0.072c5.013,0.072,5.681,3.976,5.672,8.065c-0.036,16.545-0.036,33.087,0,49.626L65.773,88.821z
	 M65.773,152.4c0,14.773-0.126,29.55,0.118,44.325c0.045,2.771,0.804,6.132,2.483,8.198c10.735,13.178,28.385,12.519,38.129-1.326
	c7.911-11.234,10.386-24.224,11.162-37.589c0.976-16.859,0.371-33.576-7.976-48.901c-8.128-14.856-23.903-21.575-38.626-17.159
	c-4.056,1.219-5.419,3.143-5.419,7.387c0.28,15.021,0.126,30.047,0.126,45.048L65.773,152.4L65.773,152.4z"/>
<path fill="#F7A800" d="M226.464,74.209c-13.038-0.563-25.744-4.279-37.027-10.837c-4.724-2.755-9.374-5.645-14.089-8.417
	c-2.158-1.26-4.585-1.99-7.08-2.132c-0.957-0.024-1.905,0.183-2.764,0.605c-5.972,2.799-11.67,6.146-17.023,9.995
	c-7.758,5.602-17.159,3.813-23.634-1.472c-3.53-2.695-5.952-6.589-6.81-10.945c-0.969-5.327,0.37-10.179,3.313-14.631
	c1.804-2.657,4.134-4.922,6.845-6.646c7.101-4.715,14.227-9.395,22.183-12.646c5.622-2.435,11.689-3.665,17.816-3.61
	c9.677,0.31,19.13,2.979,27.536,7.773c4.978,2.766,9.825,5.753,14.666,8.742c4.108,2.432,8.651,4.039,13.375,4.732
	c4.156,0.648,8.412-0.063,12.129-2.032c4.58-2.326,8.913-5.109,12.935-8.311c8.536-6.719,20.881-5.359,27.752,3.055
	c2.48,3.079,3.891,6.884,4.01,10.837c0.371,6.563-1.715,12.048-6.918,16.364c-7.848,6.512-16.256,12.021-25.847,15.649
	C241.01,72.898,233.766,74.227,226.464,74.209z"/>
<path fill="#FFFFFF" d="M253.887,190c-16.546,0-30,13.453-30,30v180c0,16.549,13.454,30,30,30h120c16.547,0,30-13.451,30-30V220
	c0-16.547-13.453-30-30-30H253.887z M268.887,220h90c8.297,0,15,6.703,15,15v15c0,8.296-6.703,15-15,15h-90c-8.297,0-15-6.703-15-15
	v-15C253.887,226.703,260.59,220,268.887,220z M283.887,295c0,8.285-6.717,15-15,15c-8.285,0-15-6.715-15-15c0-8.283,6.715-15,15-15
	C277.17,280,283.887,286.717,283.887,295z M268.887,355c-8.285,0-15-6.715-15-15c0-8.283,6.715-15,15-15c8.283,0,15,6.717,15,15
	C283.887,348.285,277.17,355,268.887,355z M253.887,385c0-8.297,6.703-15,15-15h45c8.297,0,15,6.703,15,15s-6.703,15-15,15h-45
	C260.59,400,253.887,393.297,253.887,385z M313.887,310c-8.285,0-15-6.715-15-15c0-8.283,6.715-15,15-15c8.284,0,15,6.717,15,15
	C328.887,303.285,322.171,310,313.887,310z M328.887,340c0,8.285-6.716,15-15,15c-8.285,0-15-6.715-15-15c0-8.283,6.715-15,15-15
	C322.171,325,328.887,331.717,328.887,340z M358.887,310c-8.285,0-15-6.715-15-15c0-8.283,6.715-15,15-15c8.284,0,15,6.717,15,15
	C373.887,303.285,367.171,310,358.887,310z M373.887,340c0,8.285-6.716,15-15,15c-8.285,0-15-6.715-15-15c0-8.283,6.715-15,15-15
	C367.171,325,373.887,331.717,373.887,340z M358.887,400c-8.285,0-15-6.715-15-15c0-8.283,6.715-15,15-15c8.284,0,15,6.717,15,15
	C373.887,393.285,367.171,400,358.887,400z"/>
</svg>
