<?xml version="1.0" encoding="utf-8"?>
<!-- Generator: Adobe Illustrator 16.0.0, SVG Export Plug-In . SVG Version: 6.00 Build 0)  -->
<!DOCTYPE svg PUBLIC "-//W3C//DTD SVG 1.1//EN" "http://www.w3.org/Graphics/SVG/1.1/DTD/svg11.dtd">
<svg version="1.1" id="Layer_1" xmlns="http://www.w3.org/2000/svg" xmlns:xlink="http://www.w3.org/1999/xlink" x="0px" y="0px"
	 width="512px" height="512px" viewBox="0 0 512 512" enable-background="new 0 0 512 512" xml:space="preserve">
<circle fill="#75A8DA" cx="313.887" cy="310" r="188.401"/>
<path fill="#333B61" d="M65.773,88.821c43.079-25.982,96.633,3.288,98.123,52.228c0.614,19.705-1.354,38.771-13.688,54.918
	c-17.502,22.933-41.127,32.1-69.539,27.096c-6.782-1.191-12.96-5.846-20.654-9.491c-7.433,10.512-19.173,13.771-34.02,10.305v-8.472
	c0-54.146,0-108.286,0-162.424c0-9.086-0.094-17.629-11.146-21.25c-1.653-0.542-1.734-5.816-2.791-9.848
	c16.961,0,32.512-0.135,48.027,0.072c5.013,0.072,5.681,3.977,5.672,8.065c-0.036,16.545-0.036,33.087,0,49.626L65.773,88.821z
	 M65.773,152.4c0,14.772-0.126,29.55,0.118,44.325c0.045,2.771,0.804,6.132,2.483,8.197c10.734,13.179,28.385,12.52,38.129-1.325
	c7.911-11.234,10.386-24.225,11.162-37.59c0.976-16.858,0.371-33.575-7.977-48.9c-8.128-14.856-23.902-21.575-38.626-17.159
	c-4.056,1.219-5.419,3.143-5.419,7.387c0.28,15.021,0.126,30.047,0.126,45.048L65.773,152.4L65.773,152.4z"/>
<path fill="#F7A800" d="M226.464,74.209c-13.038-0.563-25.744-4.278-37.027-10.837c-4.724-2.755-9.374-5.645-14.089-8.417
	c-2.158-1.26-4.585-1.99-7.08-2.132c-0.957-0.024-1.905,0.183-2.764,0.605c-5.972,2.799-11.67,6.146-17.023,9.994
	c-7.758,5.603-17.159,3.813-23.634-1.472c-3.53-2.695-5.952-6.589-6.81-10.945c-0.97-5.326,0.37-10.179,3.313-14.631
	c1.804-2.656,4.134-4.922,6.845-6.646c7.102-4.715,14.228-9.396,22.184-12.646c5.622-2.435,11.688-3.665,17.815-3.609
	c9.678,0.31,19.131,2.979,27.536,7.772c4.979,2.767,9.825,5.753,14.666,8.742c4.108,2.432,8.651,4.039,13.375,4.732
	c4.156,0.647,8.412-0.063,12.129-2.032c4.58-2.326,8.913-5.109,12.936-8.312c8.536-6.719,20.881-5.358,27.752,3.056
	c2.479,3.079,3.891,6.884,4.01,10.837c0.371,6.563-1.715,12.048-6.918,16.363c-7.848,6.513-16.256,12.021-25.847,15.649
	C241.01,72.898,233.766,74.227,226.464,74.209z"/>
<path fill="#FFFFFF" d="M252.332,186.892c-16.976,0-30.777,13.802-30.777,30.777v184.663c0,16.976,13.802,30.777,30.777,30.777
	h123.108c16.976,0,30.777-13.802,30.777-30.777V263.835h-61.555c-8.512,0-15.388-6.877-15.388-15.389v-61.554H252.332z
	 M344.663,186.892v61.554h61.555L344.663,186.892z M275.414,310.001h76.943c4.232,0,7.694,3.462,7.694,7.693
	c0,4.232-3.462,7.695-7.694,7.695h-76.943c-4.231,0-7.693-3.463-7.693-7.695C267.721,313.463,271.183,310.001,275.414,310.001z
	 M275.414,340.777h76.943c4.232,0,7.694,3.463,7.694,7.694c0,4.232-3.462,7.695-7.694,7.695h-76.943
	c-4.231,0-7.693-3.463-7.693-7.695C267.721,344.24,271.183,340.777,275.414,340.777z M275.414,371.554h76.943
	c4.232,0,7.694,3.463,7.694,7.694c0,4.232-3.462,7.695-7.694,7.695h-76.943c-4.231,0-7.693-3.463-7.693-7.695
	C267.721,375.017,271.183,371.554,275.414,371.554z"/>
</svg>
