<?xml version="1.0" encoding="utf-8"?>
<!-- Generator: Adobe Illustrator 16.0.0, SVG Export Plug-In . SVG Version: 6.00 Build 0)  -->
<svg version="1.2" baseProfile="tiny" id="Layer_1" xmlns="http://www.w3.org/2000/svg" xmlns:xlink="http://www.w3.org/1999/xlink"
	 x="0px" y="0px" width="512px" height="512px" viewBox="0 0 512 512" xml:space="preserve">
<path fill="#333B61" d="M65.773,88.821c43.079-25.982,96.633,3.288,98.123,52.228c0.614,19.705-1.354,38.771-13.69,54.918
	c-17.502,22.931-41.127,32.098-69.539,27.094c-6.782-1.191-12.96-5.844-20.654-9.491c-7.433,10.512-19.173,13.771-34.02,10.305
	v-8.472c0-54.146,0-108.286,0-162.424c0-9.086-0.092-17.629-11.146-21.25c-1.653-0.542-1.734-5.816-2.791-9.846
	c16.961,0,32.512-0.135,48.027,0.072c5.013,0.072,5.681,3.975,5.672,8.065c-0.036,16.545-0.036,33.087,0,49.626L65.773,88.821z
	 M65.773,152.4c0,14.774-0.126,29.55,0.118,44.325c0.045,2.771,0.804,6.132,2.483,8.199c10.736,13.177,28.385,12.518,38.129-1.327
	c7.911-11.234,10.386-24.223,11.162-37.588c0.976-16.86,0.371-33.577-7.975-48.902c-8.128-14.856-23.904-21.575-38.626-17.159
	c-4.056,1.219-5.419,3.143-5.419,7.387c0.28,15.021,0.126,30.047,0.126,45.048L65.773,152.4L65.773,152.4z"/>
<path fill="#F7A800" d="M226.464,74.209c-13.038-0.563-25.744-4.28-37.027-10.837c-4.724-2.755-9.374-5.645-14.089-8.417
	c-2.158-1.26-4.585-1.99-7.08-2.132c-0.957-0.024-1.905,0.183-2.764,0.605c-5.972,2.799-11.67,6.146-17.023,9.996
	c-7.758,5.601-17.159,3.813-23.634-1.472c-3.53-2.695-5.952-6.589-6.81-10.945c-0.968-5.328,0.37-10.179,3.313-14.631
	c1.804-2.658,4.134-4.922,6.845-6.646c7.1-4.715,14.226-9.394,22.182-12.645c5.622-2.435,11.69-3.665,17.817-3.611
	c9.676,0.31,19.129,2.979,27.536,7.774c4.977,2.765,9.825,5.753,14.666,8.742c4.108,2.432,8.651,4.039,13.375,4.732
	c4.156,0.649,8.412-0.063,12.129-2.032c4.58-2.326,8.913-5.109,12.934-8.31c8.536-6.719,20.881-5.36,27.752,3.054
	c2.481,3.079,3.891,6.884,4.01,10.837c0.371,6.564-1.715,12.048-6.918,16.364c-7.848,6.512-16.256,12.021-25.847,15.65
	C241.01,72.898,233.766,74.227,226.464,74.209z"/>
<g>
	<path fill="#13AA27" d="M307.556,125.186c-12.936,1.699-25.574,2.65-38.289,6.013c-38.561,10.201-73.718,33.635-98.424,64.888
		c-41.578,52.598-51.658,125.738-26.585,187.766c10.209,25.257,26.296,48.415,46.222,66.974
		c23.453,21.847,51.818,35.987,82.468,44.372c15.032,4.108,30.154,4.994,45.654,4.994c6.942,0,14.09,0.373,20.986-0.475
		c70.887-8.705,132.356-56.941,155.989-124.703c4.358-12.49,7.979-25.811,9.254-39.023c2.313-23.89,1.191-48.549-4.938-71.793
		c-17.144-65.029-70.152-117.205-135.271-133.551C346.732,126.157,326.051,122.76,307.556,125.186z"/>
	<path fill="#63C770" d="M349.529,127.24l0.367,0.369L349.529,127.24z"/>
	<path fill="#AEE2B5" d="M349.896,127.24l0.367,0.369L349.896,127.24z"/>
	<path fill="#63C770" d="M350.263,127.24l0.37,0.369L350.263,127.24 M238.586,142.456l0.246,0.125L238.586,142.456z"/>
	<path fill="#FFFFFF" d="M459.98,189.093l0.366,0.367L459.98,189.093z"/>
	<path fill="#63C770" d="M459.98,189.459l0.366,0.368L459.98,189.459 M327.44,203.081l0.365,0.37L327.44,203.081z"/>
	<path fill="#AEE2B5" d="M327.44,387.168h0.365V203.451h25.405c-1.829-0.768-4.288-0.37-6.26-0.37h-13.256
		c-1.42,0-5.277-0.688-6.036,0.854c-1.668,3.395-0.219,10.817-0.219,14.61v36.817V387.168z"/>
	<path fill="#63C770" d="M353.21,203.081v119.286v27.984c0,1.888-0.971,8.392,1.104,8.833v-0.366
		c-1.774-2.345-0.736-7.799-0.736-10.678v-27.612V237.69v-23.931C353.577,210.615,354.425,205.983,353.21,203.081z"/>
	<path fill="#FFFFFF" d="M327.805,203.451v183.717c37.047,0,81.655,5.253,108.503-26.509c23.003-27.217,17.545-77.259-7.334-101.528
		c-15.725-15.339-37.261-21.81-58.829-21.81v26.878c9.468,0,19.526,2.49,27.979,6.718c24,11.998,35.437,46.835,18.676,69.494
		c-7.859,10.616-21.132,15.841-33.768,17.946c-6.991,1.166-13.911,1.576-20.986,1.563c-1.999-0.002-6.307,0.316-7.983-0.801
		c-1.884-1.259-0.852-7.463-0.852-9.506v-28.35V203.451H327.805z"/>
	<path fill="#AEE2B5" d="M489.062,234.008l0.371,0.368L489.062,234.008z"/>
	<path fill="#63C770" d="M147.159,234.622l0.122,0.245L147.159,234.622z"/>
	<path fill="#FFFFFF" d="M489.062,234.376l0.371,0.37L489.062,234.376z"/>
	<path fill="#AEE2B5" d="M489.062,234.745l0.371,0.368L489.062,234.745z"/>
	<path fill="#63C770" d="M369.778,236.955l0.367,0.366L369.778,236.955z"/>
	<path fill="#AEE2B5" d="M370.145,236.955v0.366h2.579L370.145,236.955z"/>
	<path fill="#63C770" d="M372.724,236.955v0.366h4.418L372.724,236.955z"/>
	<path fill="#AEE2B5" d="M369.778,237.321v26.878h0.367v-18.41L369.778,237.321 M378.245,237.321v0.369h1.471L378.245,237.321z"/>
	<path fill="#63C770" d="M379.716,237.321v0.369h1.474L379.716,237.321z"/>
	<path fill="#AEE2B5" d="M381.928,237.69v0.369h1.104L381.928,237.69z"/>
	<path fill="#63C770" d="M383.031,237.69v0.369h1.104L383.031,237.69 M257.485,238.058v0.368h4.419L257.485,238.058z"/>
	<path fill="#AEE2B5" d="M261.904,238.058v0.368h5.893L261.904,238.058z"/>
	<path fill="#FFFFFF" d="M266.689,388.271v-26.876c-9.617,0-19.746-2.462-28.347-6.766c-23.909-11.955-35.306-46.995-18.503-69.447
		c8.234-11.004,21.888-16.197,35.07-18.139c6.756-0.995,13.415-1.452,20.25-1.37c1.883,0.021,6.044-0.249,7.614,0.798
		c1.882,1.258,0.854,7.462,0.854,9.507v28.351v117.814h25.404V238.427c-36.389,0-80.99-5.373-107.768,25.402
		c-24.909,28.632-18.227,80.554,9.098,105.232C225.619,382.846,246.579,388.271,266.689,388.271z"/>
	<path fill="#AEE2B5" d="M275.896,238.058v0.368h7.363L275.896,238.058z"/>
	<path fill="#63C770" d="M283.259,238.058v0.368h25.771l-8.101-0.368H283.259z"/>
	<path fill="#AEE2B5" d="M384.504,238.058v0.368h1.104L384.504,238.058z"/>
	<path fill="#63C770" d="M385.609,238.058v0.368h1.471L385.609,238.058 M253.803,238.427v0.369h1.841L253.803,238.427z"/>
	<path fill="#AEE2B5" d="M255.644,238.427v0.369h2.947L255.644,238.427z"/>
	<path fill="#63C770" d="M309.031,238.427v183.717h0.366V292.178v-37.554C309.397,250.036,310.8,242.644,309.031,238.427z"/>
	<path fill="#AEE2B5" d="M386.712,238.427v0.369h1.104L386.712,238.427z"/>
	<path fill="#63C770" d="M387.816,238.427v0.369h1.104L387.816,238.427 M251.472,238.918l0.247,0.122L251.472,238.918z"/>
	<path fill="#AEE2B5" d="M251.964,238.796v0.366h1.839L251.964,238.796 M388.919,238.796v0.366h1.107L388.919,238.796z"/>
	<path fill="#63C770" d="M390.027,238.796l0.367,0.366L390.027,238.796 M249.262,239.286l0.247,0.122L249.262,239.286z"/>
	<path fill="#AEE2B5" d="M249.999,239.286l0.245,0.122L249.999,239.286 M391.131,239.161l0.367,0.37L391.131,239.161z"/>
	<path fill="#63C770" d="M391.746,239.286l0.245,0.122L391.746,239.286 M247.421,239.653l0.247,0.125L247.421,239.653z"/>
	<path fill="#AEE2B5" d="M248.159,239.653l0.244,0.125L248.159,239.653 M392.602,239.531l0.371,0.368L392.602,239.531z"/>
	<path fill="#63C770" d="M392.973,239.531v0.368h1.104L392.973,239.531 M245.581,240.021l0.246,0.125L245.581,240.021z"/>
	<path fill="#AEE2B5" d="M246.073,239.899v0.368h1.104L246.073,239.899 M393.953,240.021l0.244,0.125L393.953,240.021z"/>
	<path fill="#63C770" d="M394.443,239.899v0.368h1.107L394.443,239.899 M244.109,240.389l0.247,0.123L244.109,240.389z"/>
	<path fill="#AEE2B5" d="M244.599,240.267v0.369h1.106L244.599,240.267 M395.428,240.389l0.243,0.123L395.428,240.389z"/>
	<path fill="#63C770" d="M396.16,240.389l0.245,0.123L396.16,240.389 M242.758,240.636l0.37,0.366L242.758,240.636z"/>
	<path fill="#AEE2B5" d="M243.127,240.636l0.368,0.366L243.127,240.636 M396.898,240.759l0.244,0.122L396.898,240.759z"/>
	<path fill="#63C770" d="M397.391,240.636l0.368,0.366L397.391,240.636 M241.165,241.127l0.244,0.123L241.165,241.127z"/>
	<path fill="#AEE2B5" d="M241.655,241.002l0.368,0.368L241.655,241.002 M398.123,241.002l0.371,0.368L398.123,241.002z"/>
	<path fill="#63C770" d="M398.494,241.002l0.367,0.368L398.494,241.002 M239.692,241.494l0.245,0.123L239.692,241.494z"/>
	<path fill="#AEE2B5" d="M240.427,241.494l0.246,0.123L240.427,241.494 M399.232,241.37l0.366,0.37L399.232,241.37z"/>
	<path fill="#63C770" d="M399.843,241.494l0.245,0.123L399.843,241.494 M238.342,241.74l0.368,0.368L238.342,241.74z"/>
	<path fill="#AEE2B5" d="M238.955,241.862l0.244,0.125L238.955,241.862 M400.213,241.862l0.244,0.125L400.213,241.862z"/>
	<path fill="#63C770" d="M400.95,241.862l0.245,0.125L400.95,241.862 M237.236,242.108l0.369,0.369L237.236,242.108z"/>
	<path fill="#AEE2B5" d="M237.85,242.23l0.245,0.122L237.85,242.23 M401.439,242.108l0.367,0.369L401.439,242.108z"/>
	<path fill="#63C770" d="M401.806,242.108l0.371,0.369L401.806,242.108 M236.01,242.598l0.245,0.123L236.01,242.598z"/>
	<path fill="#AEE2B5" d="M236.501,242.477l0.368,0.367L236.501,242.477 M402.544,242.477l0.369,0.367L402.544,242.477z"/>
	<path fill="#63C770" d="M402.913,242.477l0.367,0.367L402.913,242.477 M234.905,242.968l0.246,0.122L234.905,242.968z"/>
	<path fill="#AEE2B5" d="M235.395,242.844l0.368,0.368L235.395,242.844 M403.281,242.844l0.366,0.368L403.281,242.844z"/>
	<path fill="#63C770" d="M403.895,242.968l0.244,0.122L403.895,242.968 M233.554,243.212l0.37,0.368L233.554,243.212z"/>
	<path fill="#AEE2B5" d="M234.169,243.334l0.245,0.125L234.169,243.334 M404.383,243.212l0.371,0.368L404.383,243.212z"/>
	<path fill="#63C770" d="M404.754,243.212l0.366,0.368L404.754,243.212 M232.45,243.58l0.368,0.37L232.45,243.58z"/>
	<path fill="#AEE2B5" d="M233.064,243.703l0.247,0.123L233.064,243.703 M405.365,243.703l0.245,0.123L405.365,243.703z"/>
	<path fill="#63C770" d="M405.857,243.58l0.368,0.37L405.857,243.58 M231.347,243.949l0.365,0.368L231.347,243.949z"/>
	<path fill="#AEE2B5" d="M231.959,244.071l0.245,0.122L231.959,244.071 M406.225,243.949l0.37,0.368L406.225,243.949z"/>
	<path fill="#63C770" d="M406.595,243.949l0.367,0.368L406.595,243.949 M230.488,244.439l0.244,0.123L230.488,244.439z"/>
	<path fill="#AEE2B5" d="M230.978,244.317l0.37,0.367L230.978,244.317 M406.962,244.317l0.366,0.367L406.962,244.317z"/>
	<path fill="#63C770" d="M407.328,244.317l0.371,0.367L407.328,244.317 M229.382,244.809l0.247,0.121L229.382,244.809z"/>
	<path fill="#AEE2B5" d="M229.873,244.684l0.368,0.368L229.873,244.684 M407.699,244.684l0.365,0.368L407.699,244.684z"/>
	<path fill="#63C770" d="M408.313,244.809l0.245,0.121L408.313,244.809 M228.4,245.052l0.368,0.368L228.4,245.052z"/>
	<path fill="#AEE2B5" d="M229.015,245.175l0.245,0.125L229.015,245.175 M408.68,245.175l0.245,0.125L408.68,245.175z"/>
	<path fill="#63C770" d="M409.168,245.052l0.371,0.368L409.168,245.052 M227.665,245.421l0.367,0.368L227.665,245.421z"/>
	<path fill="#AEE2B5" d="M228.032,245.421l0.368,0.368L228.032,245.421 M409.539,245.421l0.367,0.368L409.539,245.421z"/>
	<path fill="#63C770" d="M226.559,245.789l0.37,0.37L226.559,245.789z"/>
	<path fill="#AEE2B5" d="M226.928,245.789l0.368,0.37L226.928,245.789 M410.276,245.789l0.367,0.37L410.276,245.789z"/>
	<path fill="#63C770" d="M410.643,245.789l0.367,0.37L410.643,245.789 M225.823,246.158l0.367,0.367L225.823,246.158z"/>
	<path fill="#AEE2B5" d="M226.191,246.158l0.368,0.367L226.191,246.158 M411.01,246.158l0.371,0.367L411.01,246.158z"/>
	<path fill="#63C770" d="M411.381,246.158l0.366,0.367L411.381,246.158 M224.964,246.649l0.245,0.123L224.964,246.649z"/>
	<path fill="#AEE2B5" d="M225.455,246.526l0.368,0.368L225.455,246.526 M411.747,246.526l1.104,0.736v-0.368L411.747,246.526z"/>
	<path fill="#63C770" d="M412.117,246.526l0.366,0.368L412.117,246.526z"/>
	<path fill="#AEE2B5" d="M224.596,247.016l0.245,0.124L224.596,247.016z"/>
	<path fill="#63C770" d="M223.246,247.262l0.368,0.368L223.246,247.262z"/>
	<path fill="#AEE2B5" d="M223.615,247.262l0.369,0.368L223.615,247.262 M412.851,247.262l0.371,0.368L412.851,247.262z"/>
	<path fill="#63C770" d="M413.222,247.262l0.365,0.368L413.222,247.262 M222.509,247.63l0.37,0.37L222.509,247.63z"/>
	<path fill="#AEE2B5" d="M222.878,247.63l0.368,0.37L222.878,247.63 M413.587,247.63l0.371,0.37L413.587,247.63z"/>
	<path fill="#63C770" d="M413.958,247.63l0.366,0.37L413.958,247.63 M221.774,248l0.369,0.366L221.774,248z"/>
	<path fill="#AEE2B5" d="M222.143,248l0.366,0.366L222.143,248 M414.324,248l0.368,0.366L414.324,248z"/>
	<path fill="#63C770" d="M414.693,248l0.37,0.366L414.693,248 M221.037,248.365l0.368,0.37L221.037,248.365z"/>
	<path fill="#63C770" d="M220.302,248.735l0.367,0.368L220.302,248.735z"/>
	<path fill="#AEE2B5" d="M220.669,248.735l0.368,0.368L220.669,248.735 M415.429,248.735l0.369,0.368L415.429,248.735z"/>
	<path fill="#63C770" d="M415.798,248.735l0.368,0.368L415.798,248.735 M219.565,249.103l0.368,0.368L219.565,249.103z"/>
	<path fill="#AEE2B5" d="M219.933,249.103l0.369,0.368L219.933,249.103 M416.166,249.103l0.366,0.368L416.166,249.103z"/>
	<path fill="#63C770" d="M416.532,249.103l0.371,0.368L416.532,249.103 M218.828,249.471l0.368,0.368L218.828,249.471z"/>
	<path fill="#AEE2B5" d="M219.196,249.471l0.369,0.368L219.196,249.471z"/>
	<path fill="#63C770" d="M416.904,249.471l0.365,0.368L416.904,249.471 M218.093,249.84l-0.37,0.737L218.093,249.84z"/>
	<path fill="#AEE2B5" d="M218.461,249.84l0.367,0.367L218.461,249.84 M417.269,249.84l0.372,0.367L417.269,249.84z"/>
	<path fill="#63C770" d="M417.641,249.84l0.366,0.367L417.641,249.84z"/>
	<path fill="#AEE2B5" d="M218.093,250.207l0.368,0.37L218.093,250.207 M418.007,250.207l0.367,0.37L418.007,250.207z"/>
	<path fill="#63C770" d="M216.987,250.576l0.369,0.368L216.987,250.576z"/>
	<path fill="#AEE2B5" d="M217.355,250.576l0.368,0.368L217.355,250.576 M418.374,250.576l0.369,0.368L418.374,250.576z"/>
	<path fill="#63C770" d="M418.743,250.576l0.368,0.368L418.743,250.576 M216.252,250.945l0.368,0.368L216.252,250.945z"/>
	<path fill="#AEE2B5" d="M216.62,250.945l0.367,0.368L216.62,250.945 M419.112,250.945l0.369,0.368L419.112,250.945z"/>
	<path fill="#63C770" d="M215.883,251.313l0.369,0.368L215.883,251.313z"/>
	<path fill="#AEE2B5" d="M419.481,251.313l0.367,0.368L419.481,251.313z"/>
	<path fill="#63C770" d="M419.848,251.313l0.366,0.368L419.848,251.313 M215.146,251.681l0.368,0.367L215.146,251.681z"/>
	<path fill="#AEE2B5" d="M215.514,251.681l0.369,0.367L215.514,251.681 M420.214,251.681l0.371,0.367L420.214,251.681
		 M214.779,252.048l0.367,0.368L214.779,252.048 M420.585,252.048l0.366,0.368L420.585,252.048z"/>
	<path fill="#63C770" d="M214.042,252.416l0.368,0.37L214.042,252.416 M421.321,252.416l0.367,0.37L421.321,252.416
		 M213.305,252.785l-0.367,0.736L213.305,252.785z"/>
	<path fill="#AEE2B5" d="M213.674,252.785l0.369,0.368L213.674,252.785 M421.688,252.785l0.367,0.368L421.688,252.785
		 M213.305,253.154l0.369,0.368L213.305,253.154 M422.055,253.154l0.371,0.368L422.055,253.154z"/>
	<path fill="#63C770" d="M422.426,253.154l0.367,0.368L422.426,253.154z"/>
	<path fill="#AEE2B5" d="M212.57,253.522l0.368,0.367L212.57,253.522z"/>
	<path fill="#63C770" d="M422.793,253.522l0.369,0.367L422.793,253.522 M211.833,253.889l0.368,0.368L211.833,253.889
		 M423.162,253.889l0.367,0.368L423.162,253.889z"/>
	<path fill="#AEE2B5" d="M211.464,254.257l0.37,0.368L211.464,254.257 M423.53,254.257l1.104,1.105L423.53,254.257z"/>
	<path fill="#63C770" d="M423.896,254.257l0.371,0.368L423.896,254.257 M210.729,254.625l-0.368,0.738L210.729,254.625z"/>
	<path fill="#AEE2B5" d="M211.098,254.625l0.366,0.37L211.098,254.625z"/>
	<path fill="#63C770" d="M424.267,254.625l0.366,0.37L424.267,254.625z"/>
	<path fill="#AEE2B5" d="M210.729,254.995l0.369,0.368L210.729,254.995z"/>
	<path fill="#63C770" d="M424.633,254.995l0.369,0.368L424.633,254.995z"/>
	<path fill="#AEE2B5" d="M209.992,255.363l0.368,0.367L209.992,255.363z"/>
	<path fill="#63C770" d="M425.002,255.363l0.368,0.367L425.002,255.363 M209.257,255.729l-0.368,0.737L209.257,255.729z"/>
	<path fill="#AEE2B5" d="M209.624,255.729l0.368,0.369L209.624,255.729 M425.37,255.729l0.366,0.369L425.37,255.729
		 M209.257,256.098l0.367,0.368L209.257,256.098 M425.737,256.098l0.37,0.368L425.737,256.098z"/>
	<path fill="#63C770" d="M208.519,256.466l0.37,0.368L208.519,256.466z"/>
	<path fill="#AEE2B5" d="M426.107,256.466l0.366,0.368L426.107,256.466 M208.151,256.834l0.368,0.37L208.151,256.834
		 M426.473,256.834l1.105,1.105L426.473,256.834z"/>
	<path fill="#63C770" d="M426.845,256.834l0.366,0.37L426.845,256.834 M207.416,257.204l-0.368,0.735L207.416,257.204z"/>
	<path fill="#AEE2B5" d="M207.783,257.204l0.368,0.366L207.783,257.204z"/>
	<path fill="#63C770" d="M427.211,257.204l0.367,0.366L427.211,257.204z"/>
	<path fill="#AEE2B5" d="M207.416,257.57l0.367,0.369L207.416,257.57z"/>
	<path fill="#63C770" d="M427.578,257.57l0.369,0.369L427.578,257.57 M206.679,257.939l0.368,0.368L206.679,257.939
		 M427.948,257.939l0.737,0.736L427.948,257.939 M206.31,258.307l0.37,0.368L206.31,258.307z"/>
	<path fill="#AEE2B5" d="M427.948,258.307l0.368,0.368L427.948,258.307 M205.942,258.676l0.368,0.369L205.942,258.676z"/>
	<path fill="#63C770" d="M428.685,258.676l0.368,0.369L428.685,258.676z"/>
	<path fill="#AEE2B5" d="M205.574,259.045l0.367,0.365L205.574,259.045z"/>
	<path fill="#63C770" d="M429.053,259.045l0.364,0.365L429.053,259.045z"/>
	<path fill="#AEE2B5" d="M205.206,259.41l0.368,0.37L205.206,259.41z"/>
	<path fill="#63C770" d="M429.417,259.41l0.738,0.738L429.417,259.41z"/>
	<path fill="#AEE2B5" d="M204.838,259.78l0.368,0.368L204.838,259.78 M429.417,259.78l0.372,0.368L429.417,259.78 M204.469,260.148
		l0.37,0.368L204.469,260.148z"/>
	<path fill="#63C770" d="M430.156,260.148l0.37,0.368L430.156,260.148 M203.734,260.516l-0.369,0.735L203.734,260.516z"/>
	<path fill="#AEE2B5" d="M204.1,260.516l0.368,0.368L204.1,260.516z"/>
	<path fill="#63C770" d="M430.526,260.516l1.104,1.103L430.526,260.516z"/>
	<path fill="#AEE2B5" d="M203.734,260.885l0.367,0.367L203.734,260.885 M430.526,260.885l0.366,0.367L430.526,260.885
		 M203.365,261.252l0.369,0.367L203.365,261.252 M430.892,261.252l0.367,0.367L430.892,261.252 M202.997,261.619l0.368,0.371
		L202.997,261.619 M431.259,261.619l0.371,0.371L431.259,261.619 M202.629,261.99l0.368,0.367L202.629,261.99 M431.63,261.99
		l0.366,0.367L431.63,261.99 M202.26,262.357l0.37,0.369L202.26,262.357 M431.996,262.357l0.37,0.369L431.996,262.357
		 M201.893,262.726l0.367,0.366L201.893,262.726z"/>
	<path fill="#63C770" d="M432.366,262.726l0.366,0.366L432.366,262.726z"/>
	<path fill="#AEE2B5" d="M201.524,263.093l0.369,0.369L201.524,263.093z"/>
	<path fill="#63C770" d="M432.733,263.093l0.367,0.369L432.733,263.093 M201.156,263.462l0.368,0.367L201.156,263.462
		 M433.1,263.462l0.738,0.737L433.1,263.462 M200.788,263.829l0.368,0.37L200.788,263.829z"/>
	<path fill="#AEE2B5" d="M433.1,263.829l0.371,0.37L433.1,263.829z"/>
	<path fill="#63C770" d="M200.42,264.199l-0.367,0.735L200.42,264.199 M369.778,264.199v0.367h1.472L369.778,264.199z"/>
	<path fill="#AEE2B5" d="M371.249,264.199v0.367h3.313L371.249,264.199 M433.471,264.199l0.367,0.367L433.471,264.199
		 M200.42,264.566l0.368,0.368L200.42,264.566z"/>
	<path fill="#63C770" d="M373.826,264.566v0.368h2.577L373.826,264.566z"/>
	<path fill="#AEE2B5" d="M376.404,264.566v0.368h1.105L376.404,264.566 M433.838,264.566l0.369,0.368L433.838,264.566
		 M200.053,264.934l0.367,0.367L200.053,264.934z"/>
	<path fill="#63C770" d="M377.509,264.934v0.367h1.474L377.509,264.934z"/>
	<path fill="#AEE2B5" d="M379.227,265.057l0.245,0.123L379.227,265.057z"/>
	<path fill="#63C770" d="M434.207,264.934l0.367,0.367L434.207,264.934z"/>
	<path fill="#AEE2B5" d="M199.684,265.302l0.369,0.369L199.684,265.302z"/>
	<path fill="#63C770" d="M380.701,265.425l0.245,0.123L380.701,265.425z"/>
	<path fill="#AEE2B5" d="M381.19,265.302l0.367,0.369L381.19,265.302z"/>
	<path fill="#63C770" d="M434.574,265.302l0.737,0.738L434.574,265.302z"/>
	<path fill="#AEE2B5" d="M199.315,265.671l0.369,0.369L199.315,265.671 M265.586,265.671v0.369h12.15L265.586,265.671z"/>
	<path fill="#63C770" d="M382.542,265.793l0.245,0.124L382.542,265.793z"/>
	<path fill="#AEE2B5" d="M383.276,265.793l0.243,0.124L383.276,265.793 M434.574,265.671l0.367,0.369L434.574,265.671z"/>
	<path fill="#63C770" d="M198.947,266.04l-0.368,0.734L198.947,266.04z"/>
	<path fill="#AEE2B5" d="M260.432,266.04v0.369h2.574L260.432,266.04z"/>
	<path fill="#63C770" d="M263.006,266.04v0.369h2.947L263.006,266.04 M277.737,266.04v0.369h2.574L277.737,266.04z"/>
	<path fill="#AEE2B5" d="M280.311,266.04v0.369h2.577L280.311,266.04z"/>
	<path fill="#63C770" d="M384.012,266.162l0.245,0.121L384.012,266.162z"/>
	<path fill="#AEE2B5" d="M384.504,266.04v0.369h1.104L384.504,266.04 M434.942,266.04l0.37,0.369L434.942,266.04 M198.947,266.409
		l0.368,0.365L198.947,266.409 M257.485,266.409v0.365h1.475L257.485,266.409z"/>
	<path fill="#63C770" d="M258.959,266.409v0.365h1.841L258.959,266.409 M282.766,266.529l0.245,0.123L282.766,266.529z"/>
	<path fill="#AEE2B5" d="M283.259,266.409v115.236v29.454c0,2.426-1.154,8.891,0.377,10.82c1.032,1.302,5.112,0.591,6.615,0.591
		h18.779v-0.367h-25.404V312.061v-31.664C283.626,276.387,284.805,270.098,283.259,266.409z"/>
	<path fill="#63C770" d="M385.239,266.409v0.365h1.108L385.239,266.409z"/>
	<path fill="#AEE2B5" d="M386.347,266.409l0.365,0.365L386.347,266.409z"/>
	<path fill="#63C770" d="M435.312,266.409l0.365,0.365L435.312,266.409z"/>
	<path fill="#AEE2B5" d="M198.579,266.774l0.368,0.37L198.579,266.774 M255.522,266.899l0.244,0.122L255.522,266.899z"/>
	<path fill="#63C770" d="M256.012,266.774v0.37h1.107L256.012,266.774 M387.079,266.774l0.37,0.37L387.079,266.774z"/>
	<path fill="#AEE2B5" d="M387.449,266.774l0.366,0.37L387.449,266.774z"/>
	<path fill="#63C770" d="M435.677,266.774l0.372,0.37L435.677,266.774z"/>
	<path fill="#AEE2B5" d="M198.212,267.144l0.367,0.367L198.212,267.144 M252.699,267.144v0.367h1.104L252.699,267.144z"/>
	<path fill="#63C770" d="M254.049,267.264l0.245,0.126L254.049,267.264 M388.431,267.264l0.245,0.126L388.431,267.264z"/>
	<path fill="#AEE2B5" d="M388.919,267.144l0.371,0.367L388.919,267.144 M435.677,267.144l0.372,0.367L435.677,267.144z"/>
	<path fill="#63C770" d="M197.844,267.511l-0.369,0.737L197.844,267.511z"/>
	<path fill="#AEE2B5" d="M250.49,267.511v0.369h1.106L250.49,267.511z"/>
	<path fill="#63C770" d="M251.596,267.511v0.369h1.103L251.596,267.511 M389.535,267.634l0.244,0.124L389.535,267.634z"/>
	<path fill="#AEE2B5" d="M390.272,267.634l0.245,0.124L390.272,267.634 M436.049,267.511l0.365,0.369L436.049,267.511
		 M197.844,267.881l0.369,0.368L197.844,267.881 M249.262,268.003l0.247,0.123L249.262,268.003z"/>
	<path fill="#63C770" d="M249.755,267.881v0.368h1.104L249.755,267.881 M390.639,268.003l0.244,0.123L390.639,268.003z"/>
	<path fill="#AEE2B5" d="M391.131,267.881l0.367,0.368L391.131,267.881z"/>
	<path fill="#63C770" d="M436.414,267.881l0.737,0.736L436.414,267.881z"/>
	<path fill="#AEE2B5" d="M197.474,268.249l0.369,0.368L197.474,268.249 M247.79,268.372l0.246,0.121L247.79,268.372z"/>
	<path fill="#63C770" d="M248.528,268.372l0.244,0.121L248.528,268.372 M391.746,268.372l0.245,0.121L391.746,268.372z"/>
	<path fill="#AEE2B5" d="M392.235,268.249l0.367,0.368L392.235,268.249 M436.414,268.249l0.368,0.368L436.414,268.249z"/>
	<path fill="#63C770" d="M197.106,268.617l0.369,0.367L197.106,268.617z"/>
	<path fill="#AEE2B5" d="M246.44,268.617l0.368,0.367L246.44,268.617z"/>
	<path fill="#63C770" d="M246.808,268.617l0.37,0.367L246.808,268.617 M392.85,268.739l0.245,0.123L392.85,268.739z"/>
	<path fill="#AEE2B5" d="M436.782,268.617l0.369,0.367L436.782,268.617z"/>
	<path fill="#63C770" d="M196.738,268.984l0.368,0.368L196.738,268.984z"/>
	<path fill="#AEE2B5" d="M244.845,269.106l0.245,0.124L244.845,269.106z"/>
	<path fill="#63C770" d="M245.581,269.106l0.246,0.124L245.581,269.106 M393.709,268.984l0.367,0.368L393.709,268.984z"/>
	<path fill="#AEE2B5" d="M394.076,268.984l0.366,0.368L394.076,268.984z"/>
	<path fill="#63C770" d="M437.152,268.984l0.367,0.368L437.152,268.984z"/>
	<path fill="#AEE2B5" d="M196.738,269.352l0.368,0.368L196.738,269.352 M243.74,269.474l0.246,0.124L243.74,269.474z"/>
	<path fill="#63C770" d="M244.477,269.474l0.245,0.124L244.477,269.474 M394.443,269.352l0.37,0.368L394.443,269.352z"/>
	<path fill="#AEE2B5" d="M395.058,269.474l0.245,0.124L395.058,269.474z"/>
	<path fill="#63C770" d="M437.519,269.352l0.37,0.368L437.519,269.352z"/>
	<path fill="#AEE2B5" d="M196.371,269.72l0.367,0.367L196.371,269.72 M242.392,269.72l0.366,0.367L242.392,269.72z"/>
	<path fill="#63C770" d="M243.004,269.842l0.245,0.124L243.004,269.842 M395.428,269.842l0.243,0.124L395.428,269.842z"/>
	<path fill="#AEE2B5" d="M395.916,269.72l0.368,0.367L395.916,269.72 M437.519,269.72l0.37,0.367L437.519,269.72z"/>
	<path fill="#63C770" d="M196.002,270.088l0.369,0.368L196.002,270.088 M241.655,270.088l0.368,0.368L241.655,270.088
		 M396.284,270.088l0.368,0.368L396.284,270.088z"/>
	<path fill="#AEE2B5" d="M396.653,270.088l0.368,0.368L396.653,270.088z"/>
	<path fill="#63C770" d="M437.889,270.088l0.734,0.736L437.889,270.088z"/>
	<path fill="#AEE2B5" d="M196.002,270.456l0.369,0.368L196.002,270.456 M240.427,270.579l0.246,0.123L240.427,270.579z"/>
	<path fill="#63C770" d="M240.918,270.456l0.368,0.368L240.918,270.456 M397.021,270.456l0.37,0.368L397.021,270.456z"/>
	<path fill="#AEE2B5" d="M397.391,270.456l0.368,0.368L397.391,270.456 M437.889,270.456l0.368,0.368L437.889,270.456z"/>
	<path fill="#63C770" d="M195.634,270.824l0.368,0.369L195.634,270.824z"/>
	<path fill="#AEE2B5" d="M239.323,270.947l0.244,0.124L239.323,270.947z"/>
	<path fill="#63C770" d="M239.814,270.824l0.368,0.369L239.814,270.824 M397.759,270.824l0.364,0.369L397.759,270.824z"/>
	<path fill="#AEE2B5" d="M398.123,270.824l0.371,0.369L398.123,270.824 M438.257,270.824l0.366,0.369L438.257,270.824z"/>
	<path fill="#63C770" d="M195.265,271.193l0.369,0.368L195.265,271.193z"/>
	<path fill="#AEE2B5" d="M238.342,271.193l0.368,0.368L238.342,271.193z"/>
	<path fill="#63C770" d="M238.955,271.314l0.244,0.126L238.955,271.314 M398.494,271.193l0.367,0.368L398.494,271.193z"/>
	<path fill="#AEE2B5" d="M398.862,271.193l0.37,0.368L398.862,271.193z"/>
	<path fill="#63C770" d="M438.623,271.193l0.37,0.368L438.623,271.193z"/>
	<path fill="#AEE2B5" d="M195.265,271.561l0.369,0.369L195.265,271.561 M237.604,271.561l0.368,0.369L237.604,271.561z"/>
	<path fill="#63C770" d="M237.972,271.561l0.37,0.369L237.972,271.561 M399.232,271.561l0.366,0.369L399.232,271.561z"/>
	<path fill="#AEE2B5" d="M399.598,271.561l0.367,0.369L399.598,271.561 M438.623,271.561l0.37,0.369L438.623,271.561z"/>
	<path fill="#63C770" d="M194.896,271.93l0.369,0.365L194.896,271.93z"/>
	<path fill="#AEE2B5" d="M236.501,271.93l0.368,0.365L236.501,271.93z"/>
	<path fill="#63C770" d="M236.869,271.93l0.367,0.365L236.869,271.93 M399.965,271.93l0.37,0.365L399.965,271.93z"/>
	<path fill="#AEE2B5" d="M400.335,271.93l0.367,0.365L400.335,271.93z"/>
	<path fill="#63C770" d="M438.993,271.93l0.366,0.365L438.993,271.93z"/>
	<path fill="#AEE2B5" d="M194.896,272.296l0.369,0.369L194.896,272.296 M235.763,272.296l0.37,0.369L235.763,272.296z"/>
	<path fill="#63C770" d="M236.133,272.296l0.368,0.369L236.133,272.296 M400.702,272.296l0.736,0.738L400.702,272.296z"/>
	<path fill="#AEE2B5" d="M401.072,272.296l0.367,0.369L401.072,272.296z"/>
	<path fill="#63C770" d="M439.36,272.296l0.371,0.369L439.36,272.296z"/>
	<path fill="#AEE2B5" d="M194.53,272.665l0.367,0.369L194.53,272.665 M235.028,272.665l0.367,0.369L235.028,272.665z"/>
	<path fill="#63C770" d="M235.395,272.665l0.368,0.369L235.395,272.665z"/>
	<path fill="#AEE2B5" d="M401.439,272.665l0.367,0.369L401.439,272.665 M439.36,272.665l0.371,0.369L439.36,272.665z"/>
	<path fill="#63C770" d="M194.161,273.034l0.368,0.369L194.161,273.034z"/>
	<path fill="#AEE2B5" d="M234.292,273.034l0.368,0.369L234.292,273.034z"/>
	<path fill="#63C770" d="M234.66,273.034l0.368,0.369L234.66,273.034 M401.806,273.034l0.371,0.369L401.806,273.034z"/>
	<path fill="#AEE2B5" d="M402.177,273.034l0.367,0.369L402.177,273.034z"/>
	<path fill="#63C770" d="M439.731,273.034l0.365,0.369L439.731,273.034z"/>
	<path fill="#AEE2B5" d="M194.161,273.403l0.368,0.367L194.161,273.403 M233.554,273.403l0.37,0.367L233.554,273.403z"/>
	<path fill="#63C770" d="M233.924,273.403l0.368,0.367L233.924,273.403 M402.544,273.403l0.369,0.367L402.544,273.403z"/>
	<path fill="#AEE2B5" d="M439.731,273.403l0.365,0.367L439.731,273.403z"/>
	<path fill="#63C770" d="M193.793,273.77l0.368,0.368L193.793,273.77z"/>
	<path fill="#AEE2B5" d="M232.819,273.77l0.37,0.368L232.819,273.77z"/>
	<path fill="#63C770" d="M233.188,273.77l0.366,0.368L233.188,273.77z"/>
	<path fill="#AEE2B5" d="M403.281,273.77l0.366,0.368L403.281,273.77z"/>
	<path fill="#63C770" d="M440.096,273.77l0.368,0.368L440.096,273.77z"/>
	<path fill="#AEE2B5" d="M193.793,274.138l0.368,0.367L193.793,274.138 M232.082,274.138l-0.37,0.736L232.082,274.138z"/>
	<path fill="#63C770" d="M232.45,274.138l0.368,0.367L232.45,274.138 M403.647,274.138l0.736,0.736L403.647,274.138z"/>
	<path fill="#AEE2B5" d="M404.018,274.138l0.365,0.367L404.018,274.138 M440.096,274.138l0.368,0.367L440.096,274.138z"/>
	<path fill="#63C770" d="M193.424,274.506l0.37,0.369L193.424,274.506 M232.082,274.506l0.368,0.369L232.082,274.506z"/>
	<path fill="#AEE2B5" d="M404.383,274.506l0.371,0.369L404.383,274.506z"/>
	<path fill="#63C770" d="M440.464,274.506l0.369,0.369L440.464,274.506z"/>
	<path fill="#AEE2B5" d="M193.424,274.875l0.37,0.368L193.424,274.875 M230.978,274.875l0.37,0.368L230.978,274.875z"/>
	<path fill="#63C770" d="M231.347,274.875l0.365,0.368L231.347,274.875 M404.754,274.875l0.366,0.368L404.754,274.875
		 M193.055,275.243l0.368,0.369L193.055,275.243z"/>
	<path fill="#AEE2B5" d="M230.241,275.243l0.368,0.369L230.241,275.243z"/>
	<path fill="#63C770" d="M230.61,275.243l0.368,0.369L230.61,275.243z"/>
	<path fill="#AEE2B5" d="M405.489,275.243l0.368,0.369L405.489,275.243 M440.833,275.243l0.368,0.369L440.833,275.243
		 M193.055,275.612l0.368,0.366L193.055,275.612 M229.873,275.612l0.368,0.366L229.873,275.612z"/>
	<path fill="#63C770" d="M405.857,275.612l0.368,0.366L405.857,275.612 M441.201,275.612l0.369,0.366L441.201,275.612
		 M192.688,275.978l0.367,0.369L192.688,275.978z"/>
	<path fill="#AEE2B5" d="M229.138,275.978l0.368,0.369L229.138,275.978z"/>
	<path fill="#63C770" d="M229.506,275.978l0.367,0.369L229.506,275.978 M406.225,275.978l0.737,0.736L406.225,275.978z"/>
	<path fill="#AEE2B5" d="M406.595,275.978l0.367,0.369L406.595,275.978 M441.201,275.978l0.735,1.107L441.201,275.978
		 M192.688,276.347l0.367,0.367L192.688,276.347 M228.768,276.347l0.37,0.367L228.768,276.347 M406.962,276.347l0.366,0.367
		L406.962,276.347z"/>
	<path fill="#63C770" d="M441.571,276.347l0.366,0.367L441.571,276.347 M192.32,276.715l0.368,0.371L192.32,276.715z"/>
	<path fill="#AEE2B5" d="M228.032,276.715l0.368,0.371L228.032,276.715z"/>
	<path fill="#63C770" d="M228.4,276.715l0.368,0.371L228.4,276.715z"/>
	<path fill="#AEE2B5" d="M407.328,276.715l0.371,0.371L407.328,276.715 M192.32,277.086l0.368,0.367L192.32,277.086
		 M227.665,277.086l0.367,0.367L227.665,277.086z"/>
	<path fill="#63C770" d="M407.699,277.086l0.365,0.367L407.699,277.086 M441.937,277.086l0.367,0.367L441.937,277.086
		 M191.952,277.453l0.368,0.368L191.952,277.453 M227.297,277.453l0.368,0.368L227.297,277.453 M408.065,277.453l1.104,1.104
		L408.065,277.453z"/>
	<path fill="#AEE2B5" d="M408.437,277.453l0.366,0.368L408.437,277.453 M441.937,277.453l0.367,0.368L441.937,277.453
		 M191.952,277.821l0.368,0.367L191.952,277.821 M226.559,277.821l0.37,0.367L226.559,277.821z"/>
	<path fill="#63C770" d="M226.928,277.821l0.368,0.367L226.928,277.821z"/>
	<path fill="#AEE2B5" d="M408.803,277.821l0.365,0.367L408.803,277.821z"/>
	<path fill="#63C770" d="M191.583,278.188l0.369,0.369L191.583,278.188z"/>
	<path fill="#AEE2B5" d="M226.191,278.188l0.368,0.369L226.191,278.188 M409.168,278.188l0.371,0.369L409.168,278.188z"/>
	<path fill="#63C770" d="M442.304,278.188l0.372,0.369L442.304,278.188z"/>
	<path fill="#AEE2B5" d="M191.583,278.557l0.369,0.367L191.583,278.557 M225.823,278.557l0.367,0.367L225.823,278.557
		 M409.539,278.557l0.367,0.367L409.539,278.557z"/>
	<path fill="#63C770" d="M191.214,278.925l0.369,0.37L191.214,278.925 M225.455,278.925l0.368,0.37L225.455,278.925z"/>
	<path fill="#AEE2B5" d="M409.906,278.925l0.369,0.37L409.906,278.925z"/>
	<path fill="#63C770" d="M442.676,278.925l0.366,0.37L442.676,278.925z"/>
	<path fill="#AEE2B5" d="M191.339,279.539l0.121,0.246L191.339,279.539z"/>
	<path fill="#63C770" d="M225.088,279.295l0.368,0.365L225.088,279.295z"/>
	<path fill="#AEE2B5" d="M410.276,279.295l0.367,0.365L410.276,279.295 M442.676,279.295l0.366,0.365L442.676,279.295z"/>
	<path fill="#63C770" d="M224.718,279.66l0.37,0.37L224.718,279.66z"/>
	<path fill="#AEE2B5" d="M410.643,279.66l0.367,0.37L410.643,279.66z"/>
	<path fill="#63C770" d="M443.042,279.66l0.369,0.37L443.042,279.66 M190.849,280.03l0.365,0.367L190.849,280.03z"/>
	<path fill="#AEE2B5" d="M223.983,280.03l-1.105,1.47L223.983,280.03 M411.01,280.03l0.371,0.367L411.01,280.03 M443.042,280.03
		l0.369,0.367L443.042,280.03 M190.849,280.397l0.365,0.367L190.849,280.397z"/>
	<path fill="#63C770" d="M223.983,280.397l0.367,0.367L223.983,280.397z"/>
	<path fill="#AEE2B5" d="M411.381,280.397l0.366,0.367L411.381,280.397z"/>
	<path fill="#63C770" d="M443.411,280.397l0.367,0.367L443.411,280.397 M190.602,281.011l0.122,0.245L190.602,281.011
		 M223.615,280.764l0.369,0.369L223.615,280.764z"/>
	<path fill="#AEE2B5" d="M411.747,280.764l0.736,0.735L411.747,280.764 M443.411,280.764l0.367,0.369L443.411,280.764z"/>
	<path fill="#63C770" d="M223.246,281.134l0.368,0.366L223.246,281.134 M411.747,281.134l0.37,0.366L411.747,281.134z"/>
	<path fill="#AEE2B5" d="M190.479,281.5l0.37,0.369L190.479,281.5 M412.484,281.5l0.367,0.369L412.484,281.5z"/>
	<path fill="#63C770" d="M443.779,281.5l0.367,0.369L443.779,281.5 M190.111,281.869l0.368,0.369L190.111,281.869z"/>
	<path fill="#AEE2B5" d="M222.143,281.869l-0.369,0.738L222.143,281.869z"/>
	<path fill="#63C770" d="M412.484,281.869l0.367,0.369L412.484,281.869z"/>
	<path fill="#AEE2B5" d="M190.111,282.238l0.368,0.369L190.111,282.238z"/>
	<path fill="#63C770" d="M222.143,282.238l0.366,0.369L222.143,282.238 M412.851,282.238l0.371,0.369L412.851,282.238
		 M444.146,282.238l0.37,0.369L444.146,282.238 M221.774,282.607l0.369,0.367L221.774,282.607 M413.222,282.607l0.365,0.367
		L413.222,282.607z"/>
	<path fill="#AEE2B5" d="M444.146,282.607l0.37,0.367L444.146,282.607z"/>
	<path fill="#63C770" d="M189.743,282.974l0.368,0.368L189.743,282.974 M221.405,282.974l0.369,0.368L221.405,282.974z"/>
	<path fill="#AEE2B5" d="M413.587,282.974l0.371,0.368L413.587,282.974z"/>
	<path fill="#63C770" d="M444.638,283.219l0.122,0.246L444.638,283.219z"/>
	<path fill="#AEE2B5" d="M189.865,283.589l0.125,0.246L189.865,283.589z"/>
	<path fill="#63C770" d="M221.037,283.343l0.368,0.367L221.037,283.343z"/>
	<path fill="#AEE2B5" d="M413.958,283.343l0.366,0.367L413.958,283.343z"/>
	<path fill="#63C770" d="M189.498,283.956l0.123,0.245L189.498,283.956z"/>
	<path fill="#AEE2B5" d="M220.669,283.71l0.368,0.369L220.669,283.71 M414.324,283.71l0.368,0.369L414.324,283.71 M444.516,283.71
		l0.366,0.369L444.516,283.71 M220.302,284.079l-0.369,0.737L220.302,284.079z"/>
	<path fill="#63C770" d="M414.324,284.079l0.368,0.368L414.324,284.079 M444.882,284.079l0.37,0.368L444.882,284.079z"/>
	<path fill="#AEE2B5" d="M189.498,284.693l0.123,0.244L189.498,284.693z"/>
	<path fill="#63C770" d="M220.302,284.447l0.367,0.369L220.302,284.447 M414.693,284.447l0.37,0.369L414.693,284.447z"/>
	<path fill="#AEE2B5" d="M444.882,284.447l0.37,0.369L444.882,284.447z"/>
	<path fill="#63C770" d="M189.13,285.061l0.122,0.246L189.13,285.061 M219.933,284.816l0.369,0.366L219.933,284.816z"/>
	<path fill="#AEE2B5" d="M415.063,284.816l0.735,0.735L415.063,284.816z"/>
	<path fill="#63C770" d="M219.565,285.182l0.368,0.369L219.565,285.182 M415.063,285.182l0.366,0.369L415.063,285.182
		 M445.252,285.182l0.367,0.369L445.252,285.182z"/>
	<path fill="#AEE2B5" d="M189.13,285.798l0.122,0.245L189.13,285.798 M219.196,285.552l0.369,0.367L219.196,285.552z"/>
	<path fill="#63C770" d="M415.429,285.552l0.369,0.367L415.429,285.552z"/>
	<path fill="#AEE2B5" d="M445.252,285.552l0.367,0.367L445.252,285.552z"/>
	<path fill="#63C770" d="M219.196,285.919l0.369,0.371L219.196,285.919z"/>
	<path fill="#AEE2B5" d="M415.798,285.919l0.368,0.371L415.798,285.919z"/>
	<path fill="#63C770" d="M218.828,286.29l0.368,0.367L218.828,286.29 M445.619,286.29l0.367,0.367L445.619,286.29 M188.64,286.657
		l0.368,0.367L188.64,286.657z"/>
	<path fill="#AEE2B5" d="M218.461,286.657l-0.368,0.735L218.461,286.657z"/>
	<path fill="#63C770" d="M416.166,286.657l0.366,0.367L416.166,286.657z"/>
	<path fill="#AEE2B5" d="M445.619,286.657l0.367,0.367L445.619,286.657 M188.64,287.024l0.368,0.368L188.64,287.024z"/>
	<path fill="#63C770" d="M218.461,287.024l0.367,0.368L218.461,287.024z"/>
	<path fill="#AEE2B5" d="M416.532,287.024l0.736,0.737L416.532,287.024z"/>
	<path fill="#63C770" d="M446.108,287.271l0.126,0.246L446.108,287.271 M218.093,287.392l0.368,0.369L218.093,287.392
		 M416.532,287.392l0.371,0.369L416.532,287.392 M188.27,287.761l0.37,0.367L188.27,287.761z"/>
	<path fill="#AEE2B5" d="M217.723,287.761l0.37,0.367L217.723,287.761z"/>
	<path fill="#63C770" d="M416.904,287.761l0.365,0.367L416.904,287.761z"/>
	<path fill="#AEE2B5" d="M446.108,288.008l0.126,0.245L446.108,288.008 M188.393,288.375l0.124,0.245L188.393,288.375z"/>
	<path fill="#63C770" d="M217.723,288.129l0.37,0.37L217.723,288.129z"/>
	<path fill="#AEE2B5" d="M417.269,288.129l0.372,0.37L417.269,288.129z"/>
	<path fill="#63C770" d="M446.48,288.375l0.12,0.245L446.48,288.375z"/>
	<path fill="#AEE2B5" d="M217.355,288.499l-0.735,1.472h0.367L217.355,288.499z"/>
	<path fill="#63C770" d="M417.269,288.499l0.372,0.366L417.269,288.499 M188.024,289.11l0.125,0.246L188.024,289.11
		 M217.355,288.865l0.368,0.369L217.355,288.865z"/>
	<path fill="#AEE2B5" d="M417.641,288.865l0.366,0.369L417.641,288.865 M446.48,289.11l0.12,0.246L446.48,289.11 M187.902,289.601
		v1.104h0.368L187.902,289.601z"/>
	<path fill="#63C770" d="M216.987,289.601l0.369,0.369L216.987,289.601 M418.007,289.601l0.367,0.369L418.007,289.601
		 M446.845,289.847l0.127,0.244L446.845,289.847 M216.62,289.97l0.367,0.367L216.62,289.97z"/>
	<path fill="#AEE2B5" d="M418.374,289.97l0.369,0.367L418.374,289.97z"/>
	<path fill="#63C770" d="M187.534,290.338v1.104h0.368L187.534,290.338z"/>
	<path fill="#AEE2B5" d="M216.252,290.338l0.368,0.368L216.252,290.338z"/>
	<path fill="#63C770" d="M418.374,290.338l0.369,0.368L418.374,290.338z"/>
	<path fill="#AEE2B5" d="M446.723,290.338l0.37,0.368L446.723,290.338z"/>
	<path fill="#63C770" d="M216.252,290.706l0.368,0.368L216.252,290.706z"/>
	<path fill="#AEE2B5" d="M418.743,290.706l0.368,0.368L418.743,290.706z"/>
	<path fill="#63C770" d="M418.743,291.074l0.368,0.368L418.743,291.074 M447.093,291.074l0.368,0.368L447.093,291.074z"/>
	<path fill="#AEE2B5" d="M187.657,291.689l0.123,0.242L187.657,291.689 M215.883,291.442l0.369,0.369L215.883,291.442
		 M419.112,291.442l0.369,0.369L419.112,291.442 M447.216,291.689l0.122,0.242L447.216,291.689z"/>
	<path fill="#63C770" d="M215.883,291.811l0.369,0.367L215.883,291.811 M419.112,291.811l0.369,0.367L419.112,291.811z"/>
	<path fill="#AEE2B5" d="M215.514,292.178l0.369,0.367L215.514,292.178z"/>
	<path fill="#63C770" d="M447.581,292.424l0.123,0.246L447.581,292.424 M187.289,292.793l0.122,0.246L187.289,292.793
		 M215.514,292.546l0.369,0.368L215.514,292.546z"/>
	<path fill="#AEE2B5" d="M419.481,292.546l0.367,0.368L419.481,292.546 M215.146,292.914l0.368,0.37L215.146,292.914z"/>
	<path fill="#63C770" d="M419.481,292.914l0.367,0.37L419.481,292.914z"/>
	<path fill="#AEE2B5" d="M447.581,293.16l0.123,0.245L447.581,293.16 M187.289,293.53l0.122,0.244L187.289,293.53z"/>
	<path fill="#63C770" d="M215.27,293.53l0.122,0.244L215.27,293.53z"/>
	<path fill="#AEE2B5" d="M419.848,293.284l0.366,0.367L419.848,293.284z"/>
	<path fill="#63C770" d="M419.848,293.651l0.366,0.369L419.848,293.651 M447.949,293.897l0.125,0.244L447.949,293.897z"/>
	<path fill="#AEE2B5" d="M214.779,294.02l0.367,0.366L214.779,294.02 M420.214,294.02l0.371,0.366L420.214,294.02z"/>
	<path fill="#63C770" d="M214.779,294.386l0.367,0.369L214.779,294.386 M420.338,294.633l0.124,0.246L420.338,294.633z"/>
	<path fill="#AEE2B5" d="M447.826,294.386v1.106h0.371L447.826,294.386z"/>
	<path fill="#63C770" d="M186.921,295.002l0.122,0.245L186.921,295.002z"/>
	<path fill="#AEE2B5" d="M420.706,295.002l0.124,0.245L420.706,295.002 M214.41,295.123l0.368,0.37L214.41,295.123z"/>
	<path fill="#63C770" d="M448.198,295.123v1.105h0.366L448.198,295.123z"/>
	<path fill="#AEE2B5" d="M186.799,295.493v1.103h0.368L186.799,295.493z"/>
	<path fill="#63C770" d="M214.41,295.493l0.368,0.368L214.41,295.493 M420.585,295.493l0.366,0.368L420.585,295.493z"/>
	<path fill="#AEE2B5" d="M214.042,296.228l0.368,0.367L214.042,296.228 M420.951,296.228l0.369,0.367L420.951,296.228
		 M448.32,296.475l0.123,0.246L448.32,296.475z"/>
	<path fill="#63C770" d="M214.164,296.843l0.125,0.245L214.164,296.843 M420.951,296.595l0.369,0.369L420.951,296.595
		 M186.43,296.965v1.474h0.368L186.43,296.965z"/>
	<path fill="#AEE2B5" d="M421.445,297.212l0.121,0.245L421.445,297.212 M213.796,297.579l0.123,0.245L213.796,297.579z"/>
	<path fill="#63C770" d="M448.686,297.579l0.125,0.245L448.686,297.579 M421.321,297.703l0.367,0.366L421.321,297.703
		 M213.796,298.315l0.123,0.245L213.796,298.315z"/>
	<path fill="#AEE2B5" d="M421.811,298.315l0.122,0.245L421.811,298.315 M448.686,298.315l0.125,0.245L448.686,298.315
		 M186.43,298.438v2.209h0.368L186.43,298.438 M213.429,299.052l0.122,0.245L213.429,299.052z"/>
	<path fill="#63C770" d="M421.811,299.052l0.122,0.245L421.811,299.052 M449.056,299.421l0.123,0.245L449.056,299.421
		 M213.429,299.787l0.122,0.246L213.429,299.787z"/>
	<path fill="#AEE2B5" d="M422.177,299.787l0.126,0.246L422.177,299.787z"/>
	<path fill="#63C770" d="M186.061,299.91v3.314h0.37L186.061,299.91z"/>
	<path fill="#AEE2B5" d="M448.935,299.91v1.474h0.366L448.935,299.91z"/>
	<path fill="#63C770" d="M422.055,300.278l0.371,0.369L422.055,300.278z"/>
	<path fill="#AEE2B5" d="M212.938,301.014l0.367,0.369L212.938,301.014 M422.426,301.014l0.367,0.369L422.426,301.014z"/>
	<path fill="#63C770" d="M212.938,301.384v1.104h0.367L212.938,301.384 M422.548,301.629l0.121,0.246L422.548,301.629
		 M449.301,301.384v1.104h0.366L449.301,301.384z"/>
	<path fill="#AEE2B5" d="M449.301,302.488v1.472h0.366L449.301,302.488 M212.57,302.855v1.474h0.368L212.57,302.855
		 M422.793,302.855l0.369,0.369L422.793,302.855 M186.061,303.224v10.31h0.37L186.061,303.224z"/>
	<path fill="#63C770" d="M422.793,303.224v1.104h0.369L422.793,303.224 M449.667,303.591v1.843h0.37L449.667,303.591
		 M212.57,304.329v2.575h0.368L212.57,304.329z"/>
	<path fill="#AEE2B5" d="M423.285,304.573l0.122,0.245L423.285,304.573z"/>
	<path fill="#63C770" d="M423.162,305.063v1.841h0.367L423.162,305.063z"/>
	<path fill="#AEE2B5" d="M449.667,305.433v1.471h0.37L449.667,305.433 M212.201,306.538v6.996h0.368L212.201,306.538
		 M423.53,306.538v1.474h0.366L423.53,306.538z"/>
	<path fill="#63C770" d="M450.037,307.642v1.84h0.368L450.037,307.642 M423.53,308.011v1.841h0.366L423.53,308.011z"/>
	<path fill="#FFFFFF" d="M130.1,309.116v7.362h0.367L130.1,309.116z"/>
	<path fill="#AEE2B5" d="M450.037,309.482v1.842h0.368L450.037,309.482 M423.896,309.852v3.312h0.371L423.896,309.852z"/>
	<path fill="#63C770" d="M212.57,313.164v3.314h0.368L212.57,313.164 M423.896,313.164v4.784h0.371L423.896,313.164
		 M450.406,313.164v8.101h0.37L450.406,313.164 M186.061,313.534v3.312h0.37L186.061,313.534z"/>
	<path fill="#AEE2B5" d="M186.43,316.109v2.577h0.368L186.43,316.109 M212.57,316.478v1.105h0.368L212.57,316.478 M423.896,317.948
		v2.949h0.371L423.896,317.948z"/>
	<path fill="#63C770" d="M212.938,318.32v1.103h0.367L212.938,318.32 M186.43,318.686v1.475h0.368L186.43,318.686z"/>
	<path fill="#AEE2B5" d="M213.061,319.668l0.122,0.244L213.061,319.668 M186.799,320.897v1.105h0.368L186.799,320.897z"/>
	<path fill="#63C770" d="M213.305,320.897l0.369,0.367L213.305,320.897z"/>
	<path fill="#AEE2B5" d="M213.305,321.264v1.475h0.369L213.305,321.264z"/>
	<path fill="#63C770" d="M423.53,321.264v1.103h0.366L423.53,321.264 M186.921,322.247l0.122,0.245L186.921,322.247
		 M213.674,322.367v1.105h0.369L213.674,322.367z"/>
	<path fill="#AEE2B5" d="M423.53,322.367v1.476h0.366L423.53,322.367 M450.037,323.105v1.841h0.368L450.037,323.105
		 M213.796,323.719l0.123,0.245L213.796,323.719 M187.289,324.087l0.122,0.245L187.289,324.087z"/>
	<path fill="#63C770" d="M423.162,323.843v1.104h0.367L423.162,323.843 M214.164,324.458l0.125,0.243L214.164,324.458
		 M187.289,324.824l0.122,0.244L187.289,324.824z"/>
	<path fill="#AEE2B5" d="M214.164,325.189l0.125,0.245L214.164,325.189 M423.285,325.189l0.122,0.245L423.285,325.189z"/>
	<path fill="#63C770" d="M450.037,324.946v1.474h0.368L450.037,324.946z"/>
	<path fill="#AEE2B5" d="M187.534,325.681v1.106h0.368L187.534,325.681z"/>
	<path fill="#63C770" d="M214.532,325.927l0.124,0.244L214.532,325.927 M422.914,326.299l0.126,0.244L422.914,326.299z"/>
	<path fill="#AEE2B5" d="M214.41,326.42l0.368,0.368L214.41,326.42z"/>
	<path fill="#63C770" d="M187.534,326.788v1.103h0.368L187.534,326.788z"/>
	<path fill="#AEE2B5" d="M422.793,326.788l0.369,0.366L422.793,326.788z"/>
	<path fill="#63C770" d="M214.779,327.154l0.367,0.37L214.779,327.154z"/>
	<path fill="#AEE2B5" d="M449.667,327.154v1.107h0.37L449.667,327.154 M187.902,327.524v1.103h0.368L187.902,327.524
		 M214.779,327.524l0.367,0.366L214.779,327.524z"/>
	<path fill="#63C770" d="M422.548,327.769l0.121,0.244L422.548,327.769z"/>
	<path fill="#63C770" d="M215.146,328.261l0.368,0.365L215.146,328.261z"/>
	<path fill="#AEE2B5" d="M422.426,328.261l0.367,0.365L422.426,328.261z"/>
	<path fill="#63C770" d="M449.667,328.261v1.839h0.37L449.667,328.261 M188.024,328.872l0.125,0.245L188.024,328.872z"/>
	<path fill="#AEE2B5" d="M215.27,328.872l0.122,0.245L215.27,328.872z"/>
	<path fill="#63C770" d="M215.637,329.243l0.123,0.244L215.637,329.243 M422.055,328.995l0.371,0.369L422.055,328.995z"/>
	<path fill="#AEE2B5" d="M188.27,329.364v1.104h0.37L188.27,329.364 M422.177,329.609l0.126,0.244L422.177,329.609 M215.514,329.732
		l0.369,0.368L215.514,329.732 M449.301,329.732v1.475h0.366L449.301,329.732z"/>
	<path fill="#63C770" d="M216.005,330.345l0.125,0.245L216.005,330.345 M421.688,330.1l0.367,0.368L421.688,330.1 M188.27,330.469
		l0.37,0.366L188.27,330.469z"/>
	<path fill="#AEE2B5" d="M421.811,330.714l0.122,0.244L421.811,330.714 M215.883,330.835l0.369,0.372L215.883,330.835z"/>
	<path fill="#63C770" d="M216.252,331.207l0.368,0.366L216.252,331.207 M421.321,331.207l0.367,0.366L421.321,331.207
		 M449.424,331.45l0.121,0.245L449.424,331.45z"/>
	<path fill="#AEE2B5" d="M188.64,331.573l0.368,0.37L188.64,331.573 M216.252,331.573l0.368,0.37L216.252,331.573 M421.321,331.573
		l0.367,0.37L421.321,331.573z"/>
	<path fill="#63C770" d="M188.761,332.188l0.122,0.244L188.761,332.188z"/>
	<path fill="#AEE2B5" d="M448.935,331.943v1.104h0.366L448.935,331.943 M216.741,332.554l0.124,0.243L216.741,332.554z"/>
	<path fill="#63C770" d="M420.951,332.309l0.369,0.366L420.951,332.309z"/>
	<path fill="#AEE2B5" d="M189.13,332.925l0.122,0.245L189.13,332.925 M420.951,332.676l0.369,0.371L420.951,332.676z"/>
	<path fill="#63C770" d="M216.987,333.047l0.369,0.366L216.987,333.047 M420.585,333.047l0.366,0.366L420.585,333.047
		 M449.056,333.291l0.123,0.245L449.056,333.291 M189.13,333.662l0.122,0.243L189.13,333.662z"/>
	<path fill="#AEE2B5" d="M216.987,333.413l0.369,0.37L216.987,333.413 M420.585,333.413l0.366,0.37L420.585,333.413z"/>
	<path fill="#63C770" d="M217.355,333.783l0.368,0.367L217.355,333.783 M420.214,333.783l0.371,0.367L420.214,333.783z"/>
	<path fill="#AEE2B5" d="M189.498,334.394l0.123,0.245L189.498,334.394 M217.355,334.15l0.368,0.367L217.355,334.15
		 M420.338,334.394l0.124,0.245L420.338,334.394 M448.686,334.394l0.125,0.245L448.686,334.394z"/>
	<path fill="#63C770" d="M217.723,334.517l0.37,0.369L217.723,334.517 M419.97,334.764l0.123,0.245L419.97,334.764 M189.498,335.132
		l0.123,0.245L189.498,335.132z"/>
	<path fill="#AEE2B5" d="M217.723,334.886l0.37,0.367L217.723,334.886z"/>
	<path fill="#63C770" d="M448.564,334.886l0.371,0.367L448.564,334.886z"/>
	<path fill="#AEE2B5" d="M189.865,335.503l0.125,0.244L189.865,335.503z"/>
	<path fill="#63C770" d="M218.093,335.254l0.368,0.371L218.093,335.254z"/>
	<path fill="#AEE2B5" d="M218.093,335.625l0.368,0.367L218.093,335.625 M419.481,335.625l0.367,0.367L419.481,335.625z"/>
	<path fill="#63C770" d="M189.865,336.235l0.125,0.245L189.865,336.235 M218.461,335.992l0.735,0.736L218.461,335.992
		 M419.112,335.992l0.369,0.365L419.112,335.992z"/>
	<path fill="#AEE2B5" d="M448.198,335.992l0.366,0.365L448.198,335.992 M218.461,336.357l0.367,0.371L218.461,336.357
		 M419.112,336.357l0.369,0.371L419.112,336.357z"/>
	<path fill="#63C770" d="M448.32,336.606l0.123,0.243L448.32,336.606z"/>
	<path fill="#AEE2B5" d="M218.828,336.728l0.368,0.366L218.828,336.728z"/>
	<path fill="#63C770" d="M418.743,336.728l0.368,0.366L418.743,336.728z"/>
	<path fill="#AEE2B5" d="M190.111,337.094l0.368,0.371L190.111,337.094z"/>
	<path fill="#63C770" d="M219.196,337.094l0.369,0.371L219.196,337.094z"/>
	<path fill="#AEE2B5" d="M418.743,337.094l0.368,0.371L418.743,337.094 M447.949,337.342l0.125,0.245L447.949,337.342z"/>
	<path fill="#63C770" d="M190.111,337.466l0.368,0.366L190.111,337.466z"/>
	<path fill="#AEE2B5" d="M219.196,337.466l0.369,0.366L219.196,337.466z"/>
	<path fill="#63C770" d="M418.374,337.466l-0.367,0.732L418.374,337.466 M219.565,337.832l0.368,0.366L219.565,337.832z"/>
	<path fill="#AEE2B5" d="M418.374,337.832l0.369,0.366L418.374,337.832z"/>
	<path fill="#63C770" d="M447.949,338.076l0.125,0.245L447.949,338.076z"/>
	<path fill="#AEE2B5" d="M190.479,338.198l0.37,0.37L190.479,338.198 M219.565,338.198l0.368,0.37L219.565,338.198 M418.007,338.198
		l0.367,0.37L418.007,338.198z"/>
	<path fill="#63C770" d="M190.479,338.568l0.37,0.368L190.479,338.568z"/>
	<path fill="#AEE2B5" d="M219.933,338.568l0.369,0.368L219.933,338.568z"/>
	<path fill="#63C770" d="M417.641,338.568l0.366,0.368L417.641,338.568z"/>
	<path fill="#AEE2B5" d="M447.581,338.813l0.123,0.244L447.581,338.813 M190.97,339.183l0.122,0.245L190.97,339.183z"/>
	<path fill="#63C770" d="M220.302,338.936l0.735,0.736L220.302,338.936z"/>
	<path fill="#AEE2B5" d="M220.302,339.304l0.367,0.368L220.302,339.304 M417.269,339.304l0.372,0.368L417.269,339.304z"/>
	<path fill="#63C770" d="M447.461,339.304l0.365,0.368L447.461,339.304 M190.849,339.673l0.365,0.366L190.849,339.673z"/>
	<path fill="#AEE2B5" d="M220.669,339.673l0.368,0.366L220.669,339.673z"/>
	<path fill="#63C770" d="M416.904,339.673l-0.371,0.738L416.904,339.673z"/>
	<path fill="#AEE2B5" d="M191.339,340.288l0.121,0.243L191.339,340.288z"/>
	<path fill="#63C770" d="M221.037,340.039l0.368,0.372L221.037,340.039z"/>
	<path fill="#AEE2B5" d="M416.904,340.039l0.365,0.372L416.904,340.039 M447.093,340.039l0.368,0.372L447.093,340.039z"/>
	<path fill="#63C770" d="M221.405,340.411l0.369,0.365L221.405,340.411z"/>
	<path fill="#AEE2B5" d="M416.532,340.411l0.371,0.365L416.532,340.411z"/>
	<path fill="#63C770" d="M447.093,340.411l0.368,0.365L447.093,340.411 M191.214,340.776l0.369,0.371L191.214,340.776z"/>
	<path fill="#AEE2B5" d="M221.405,340.776l0.369,0.371L221.405,340.776 M416.166,340.776l0.366,0.371L416.166,340.776
		 M191.583,341.147l0.369,0.366L191.583,341.147 M221.774,341.147l0.369,0.366L221.774,341.147z"/>
	<path fill="#63C770" d="M415.798,341.147l0.368,0.366L415.798,341.147z"/>
	<path fill="#AEE2B5" d="M446.723,341.147l0.37,0.366L446.723,341.147z"/>
	<path fill="#63C770" d="M191.583,341.513l0.369,0.367L191.583,341.513 M222.143,341.513l0.366,0.367L222.143,341.513
		 M415.429,341.513l-0.366,0.737L415.429,341.513 M446.845,341.758l0.127,0.244L446.845,341.758 M222.509,341.881l0.37,0.37
		L222.509,341.881z"/>
	<path fill="#AEE2B5" d="M415.429,341.881l0.369,0.37L415.429,341.881 M191.952,342.251l0.368,0.368L191.952,342.251
		 M415.063,342.251l0.366,0.368L415.063,342.251 M446.355,342.251l0.368,0.368L446.355,342.251z"/>
	<path fill="#63C770" d="M191.952,342.619l0.368,0.368L191.952,342.619z"/>
	<path fill="#AEE2B5" d="M222.878,342.619l0.368,0.368L222.878,342.619 M414.693,342.619l0.37,0.368L414.693,342.619z"/>
	<path fill="#63C770" d="M446.48,342.866l0.12,0.244L446.48,342.866z"/>
	<path fill="#AEE2B5" d="M192.32,342.987l0.368,0.368L192.32,342.987 M223.246,342.987l0.368,0.368L223.246,342.987
		 M414.324,342.987l0.368,0.368L414.324,342.987 M446.108,343.232l0.126,0.244L446.108,343.232z"/>
	<path fill="#63C770" d="M192.442,343.599l0.124,0.244L192.442,343.599 M223.615,343.355l0.369,0.366L223.615,343.355
		 M413.958,343.355l0.366,0.366L413.958,343.355 M223.983,343.721l0.367,0.37L223.983,343.721 M413.587,343.721l0.371,0.37
		L413.587,343.721 M445.987,343.721l0.368,0.37L445.987,343.721z"/>
	<path fill="#AEE2B5" d="M192.688,344.092l0.367,0.366L192.688,344.092z"/>
	<path fill="#63C770" d="M224.35,344.092l0.368,0.366L224.35,344.092 M413.222,344.092l0.365,0.366L413.222,344.092z"/>
	<path fill="#AEE2B5" d="M445.741,344.336l0.122,0.245L445.741,344.336z"/>
	<path fill="#63C770" d="M192.688,344.458l0.367,0.371L192.688,344.458 M224.718,344.458l0.37,0.371L224.718,344.458
		 M412.851,344.458l0.371,0.371L412.851,344.458z"/>
	<path fill="#AEE2B5" d="M133.045,344.829l0.369,0.366L133.045,344.829 M193.055,344.829l0.368,0.366L193.055,344.829z"/>
	<path fill="#63C770" d="M225.088,344.829l1.103,1.104L225.088,344.829 M412.484,344.829l0.367,0.366L412.484,344.829
		 M445.619,344.829l0.367,0.366L445.619,344.829 M503.052,344.829l0.37,0.366L503.052,344.829z"/>
	<path fill="#AEE2B5" d="M503.422,344.829l0.368,0.366L503.422,344.829z"/>
	<path fill="#63C770" d="M193.055,345.195l0.368,0.367L193.055,345.195z"/>
	<path fill="#AEE2B5" d="M225.088,345.195l0.368,0.367L225.088,345.195 M412.117,345.195l0.366,0.367L412.117,345.195
		 M445.252,345.195l0.367,0.367L445.252,345.195 M503.052,345.195v1.104h0.37L503.052,345.195 M225.455,345.562l0.368,0.37
		L225.455,345.562 M411.747,345.562l0.37,0.37L411.747,345.562z"/>
	<path fill="#63C770" d="M445.252,345.562l0.367,0.37L445.252,345.562 M193.424,345.932l0.37,0.366L193.424,345.932
		 M226.191,345.932l0.368,0.366L226.191,345.932z"/>
	<path fill="#AEE2B5" d="M411.381,345.932l0.366,0.366L411.381,345.932 M444.882,345.932l0.37,0.366L444.882,345.932z"/>
	<path fill="#63C770" d="M226.559,346.299l0.37,0.371L226.559,346.299 M410.643,346.299l-0.367,0.738L410.643,346.299z"/>
	<path fill="#AEE2B5" d="M411.01,346.299l0.371,0.371L411.01,346.299z"/>
	<path fill="#63C770" d="M445.005,346.548l0.126,0.244L445.005,346.548 M503.052,346.299l0.37,0.371L503.052,346.299z"/>
	<path fill="#AEE2B5" d="M193.793,346.67l0.368,0.367L193.793,346.67z"/>
	<path fill="#63C770" d="M226.928,346.67l0.368,0.367L226.928,346.67z"/>
	<path fill="#AEE2B5" d="M410.643,346.67l0.367,0.367L410.643,346.67z"/>
	<path fill="#63C770" d="M193.793,347.037l0.368,0.367L193.793,347.037 M227.297,347.037l0.368,0.367L227.297,347.037
		 M409.906,347.037l0.369,0.367L409.906,347.037z"/>
	<path fill="#AEE2B5" d="M444.516,347.037l0.366,0.367L444.516,347.037 M194.161,347.404l0.368,0.368L194.161,347.404z"/>
	<path fill="#63C770" d="M227.665,347.404l0.367,0.368L227.665,347.404z"/>
	<path fill="#AEE2B5" d="M409.539,347.404l0.367,0.368L409.539,347.404z"/>
	<path fill="#63C770" d="M444.516,347.404l0.366,0.368L444.516,347.404 M194.161,347.772l0.368,0.368L194.161,347.772z"/>
	<path fill="#AEE2B5" d="M228.032,347.772l0.368,0.368L228.032,347.772z"/>
	<path fill="#63C770" d="M408.803,347.772l0.365,0.368L408.803,347.772z"/>
	<path fill="#AEE2B5" d="M409.168,347.772l0.371,0.368L409.168,347.772 M444.146,347.772l0.37,0.368L444.146,347.772 M194.53,348.14
		l0.367,0.369L194.53,348.14 M228.4,348.14l0.368,0.369L228.4,348.14z"/>
	<path fill="#63C770" d="M408.437,348.14l0.366,0.369L408.437,348.14 M444.146,348.14l0.37,0.369L444.146,348.14 M194.53,348.51
		l0.367,0.367L194.53,348.51z"/>
	<path fill="#AEE2B5" d="M228.768,348.51l0.37,0.367L228.768,348.51z"/>
	<path fill="#63C770" d="M229.138,348.51l0.368,0.367L229.138,348.51z"/>
	<path fill="#AEE2B5" d="M408.065,348.51l0.372,0.367L408.065,348.51 M443.779,348.51l0.367,0.367L443.779,348.51 M194.896,348.877
		l0.369,0.366L194.896,348.877z"/>
	<path fill="#63C770" d="M229.506,348.877l0.367,0.366L229.506,348.877 M407.328,348.877l0.371,0.366L407.328,348.877z"/>
	<path fill="#AEE2B5" d="M407.699,348.877l0.365,0.366L407.699,348.877z"/>
	<path fill="#63C770" d="M443.779,348.877l0.367,0.366L443.779,348.877 M194.896,349.243l0.369,0.371L194.896,349.243z"/>
	<path fill="#AEE2B5" d="M229.873,349.243l0.368,0.371L229.873,349.243z"/>
	<path fill="#63C770" d="M406.595,349.243l-0.37,0.737L406.595,349.243z"/>
	<path fill="#AEE2B5" d="M406.962,349.243l0.366,0.371L406.962,349.243 M443.411,349.243l0.367,0.371L443.411,349.243
		 M195.265,349.614l0.369,0.366L195.265,349.614 M230.241,349.614l0.368,0.366L230.241,349.614z"/>
	<path fill="#63C770" d="M230.61,349.614l0.368,0.366L230.61,349.614z"/>
	<path fill="#AEE2B5" d="M406.595,349.614l0.367,0.366L406.595,349.614z"/>
	<path fill="#63C770" d="M443.411,349.614l0.367,0.366L443.411,349.614 M195.265,349.98l0.369,0.371L195.265,349.98 M230.978,349.98
		l0.37,0.371L230.978,349.98z"/>
	<path fill="#AEE2B5" d="M405.857,349.98l0.368,0.371L405.857,349.98 M443.042,349.98l0.369,0.371L443.042,349.98 M195.634,350.351
		l0.368,1.104h0.369L195.634,350.351 M231.347,350.351l0.365,0.365L231.347,350.351z"/>
	<path fill="#63C770" d="M405.12,350.351l0.368,0.365L405.12,350.351 M443.042,350.351l0.369,0.365L443.042,350.351
		 M195.634,350.717l0.368,0.368L195.634,350.717z"/>
	<path fill="#AEE2B5" d="M231.713,350.717l0.37,0.368L231.713,350.717z"/>
	<path fill="#63C770" d="M232.082,350.717l0.368,0.368L232.082,350.717 M404.383,350.717l0.371,0.368L404.383,350.717z"/>
	<path fill="#AEE2B5" d="M404.754,350.717l0.366,0.368L404.754,350.717 M442.676,350.717l0.366,0.368L442.676,350.717
		 M232.45,351.085l0.368,0.37L232.45,351.085z"/>
	<path fill="#63C770" d="M403.647,351.085l0.371,0.37L403.647,351.085z"/>
	<path fill="#AEE2B5" d="M404.018,351.085l0.365,0.37L404.018,351.085z"/>
	<path fill="#63C770" d="M442.676,351.085l0.366,0.37L442.676,351.085z"/>
	<path fill="#AEE2B5" d="M196.371,351.455l0.367,0.368L196.371,351.455 M232.819,351.455l0.37,0.368L232.819,351.455z"/>
	<path fill="#63C770" d="M233.188,351.455l0.366,0.368L233.188,351.455z"/>
	<path fill="#AEE2B5" d="M403.281,351.455l0.366,0.368L403.281,351.455 M442.304,351.455l0.372,0.368L442.304,351.455z"/>
	<path fill="#63C770" d="M196.371,351.823l0.367,0.368L196.371,351.823z"/>
	<path fill="#AEE2B5" d="M233.554,351.823l0.37,0.368L233.554,351.823z"/>
	<path fill="#63C770" d="M402.177,351.823l0.367,0.368L402.177,351.823z"/>
	<path fill="#AEE2B5" d="M402.544,351.823l0.369,0.368L402.544,351.823 M196.738,352.191l0.368,0.368L196.738,352.191z"/>
	<path fill="#63C770" d="M234.292,352.191l0.368,0.368L234.292,352.191 M401.439,352.191l0.367,0.368L401.439,352.191z"/>
	<path fill="#AEE2B5" d="M401.806,352.191l0.371,0.368L401.806,352.191z"/>
	<path fill="#63C770" d="M441.937,352.191l0.367,0.368L441.937,352.191 M196.738,352.559l0.368,0.366L196.738,352.559z"/>
	<path fill="#AEE2B5" d="M234.66,352.559l0.368,0.366L234.66,352.559z"/>
	<path fill="#63C770" d="M235.028,352.559l0.367,0.366L235.028,352.559 M400.702,352.559l0.369,0.366L400.702,352.559z"/>
	<path fill="#AEE2B5" d="M401.072,352.559l0.367,0.366L401.072,352.559 M441.571,352.559l0.366,0.366L441.571,352.559
		 M197.106,352.926l0.369,0.371L197.106,352.926 M235.395,352.926l0.368,0.371L235.395,352.926z"/>
	<path fill="#63C770" d="M399.965,352.926l0.37,0.371L399.965,352.926z"/>
	<path fill="#AEE2B5" d="M400.335,352.926l0.367,0.371L400.335,352.926z"/>
	<path fill="#63C770" d="M441.571,352.926l0.366,0.371L441.571,352.926 M197.106,353.297l0.369,0.365L197.106,353.297
		 M236.133,353.297l0.368,0.365L236.133,353.297 M399.232,353.297l0.366,0.365L399.232,353.297z"/>
	<path fill="#AEE2B5" d="M399.598,353.297l0.367,0.365L399.598,353.297 M441.201,353.297l0.369,0.365L441.201,353.297z"/>
	<path fill="#63C770" d="M197.474,353.662l0.369,0.371L197.474,353.662 M236.869,353.662l0.367,0.371L236.869,353.662
		 M398.494,353.662l0.367,0.371L398.494,353.662 M441.201,353.662l0.369,0.371L441.201,353.662z"/>
	<path fill="#AEE2B5" d="M197.844,354.033l0.369,0.366L197.844,354.033 M237.236,354.033l0.369,0.366L237.236,354.033z"/>
	<path fill="#63C770" d="M237.604,354.033l0.368,0.366L237.604,354.033 M397.391,354.033l0.368,0.366L397.391,354.033z"/>
	<path fill="#AEE2B5" d="M397.759,354.033l0.364,0.366L397.759,354.033 M440.833,354.033l0.368,0.366L440.833,354.033z"/>
	<path fill="#63C770" d="M197.844,354.399l0.369,0.367L197.844,354.399z"/>
	<path fill="#AEE2B5" d="M237.972,354.399l0.37,0.367L237.972,354.399z"/>
	<path fill="#63C770" d="M238.342,354.399l0.368,0.367L238.342,354.399 M396.284,354.399l0.368,0.367L396.284,354.399z"/>
	<path fill="#AEE2B5" d="M396.898,354.521l0.244,0.122L396.898,354.521 M440.464,354.399l0.369,0.367L440.464,354.399
		 M198.212,354.766l0.367,0.369L198.212,354.766 M238.71,354.766l0.367,0.369L238.71,354.766z"/>
	<path fill="#63C770" d="M239.077,354.766l0.369,0.369L239.077,354.766 M395.55,354.766l0.366,0.369L395.55,354.766z"/>
	<path fill="#AEE2B5" d="M395.916,354.766l0.368,0.369L395.916,354.766z"/>
	<path fill="#63C770" d="M440.464,354.766l0.369,0.369L440.464,354.766 M239.814,355.135l0.368,0.367L239.814,355.135
		 M394.443,355.135l0.37,0.367L394.443,355.135z"/>
	<path fill="#AEE2B5" d="M394.813,355.135l0.366,0.367L394.813,355.135 M440.096,355.135l0.368,0.367L440.096,355.135z"/>
	<path fill="#63C770" d="M198.579,355.503l0.368,0.371L198.579,355.503z"/>
	<path fill="#AEE2B5" d="M240.552,355.503l0.367,0.371L240.552,355.503z"/>
	<path fill="#63C770" d="M240.918,355.503l0.368,0.371L240.918,355.503 M393.217,355.626l0.244,0.126L393.217,355.626z"/>
	<path fill="#AEE2B5" d="M393.709,355.503l0.367,0.371L393.709,355.503 M439.731,355.503l0.365,0.371L439.731,355.503
		 M198.947,355.874l0.737,0.733L198.947,355.874 M241.286,355.874l0.369,0.367L241.286,355.874z"/>
	<path fill="#63C770" d="M241.655,355.874l0.368,0.367L241.655,355.874 M392.114,355.996l0.243,0.123L392.114,355.996z"/>
	<path fill="#AEE2B5" d="M392.85,355.996l0.245,0.123L392.85,355.996z"/>
	<path fill="#63C770" d="M439.731,355.874l0.365,0.367L439.731,355.874 M198.947,356.241l0.368,0.366L198.947,356.241z"/>
	<path fill="#AEE2B5" d="M242.023,356.241l0.369,0.366L242.023,356.241z"/>
	<path fill="#63C770" d="M242.392,356.241l0.366,0.366L242.392,356.241 M390.761,356.241l0.37,0.366L390.761,356.241z"/>
	<path fill="#AEE2B5" d="M391.375,356.362l0.245,0.122L391.375,356.362 M439.36,356.241l0.371,0.366L439.36,356.241z"/>
	<path fill="#63C770" d="M199.315,356.607l0.369,0.37L199.315,356.607z"/>
	<path fill="#AEE2B5" d="M243.127,356.607l0.368,0.37L243.127,356.607z"/>
	<path fill="#63C770" d="M243.495,356.607l0.369,0.37L243.495,356.607 M389.535,356.729l0.244,0.126L389.535,356.729z"/>
	<path fill="#AEE2B5" d="M390.027,356.607l0.367,0.37L390.027,356.607 M438.993,356.607l0.366,0.37L438.993,356.607
		 M199.684,356.977l0.369,0.367L199.684,356.977z"/>
	<path fill="#63C770" d="M244.477,357.1l0.245,0.122L244.477,357.1 M387.449,356.977v0.367h1.104L387.449,356.977z"/>
	<path fill="#AEE2B5" d="M388.554,356.977l0.365,0.367L388.554,356.977z"/>
	<path fill="#63C770" d="M438.993,356.977l0.366,0.367L438.993,356.977z"/>
	<path fill="#AEE2B5" d="M200.053,357.344l0.367,0.37L200.053,357.344 M244.969,357.344l0.368,0.37L244.969,357.344z"/>
	<path fill="#63C770" d="M245.581,357.466l0.246,0.126L245.581,357.466 M385.609,357.344v0.37h1.104L385.609,357.344z"/>
	<path fill="#AEE2B5" d="M386.956,357.466l0.245,0.126L386.956,357.466 M438.623,357.344l0.37,0.37L438.623,357.344z"/>
	<path fill="#63C770" d="M200.053,357.715l0.367,0.367L200.053,357.715z"/>
	<path fill="#AEE2B5" d="M246.318,357.837l0.244,0.122L246.318,357.837z"/>
	<path fill="#63C770" d="M246.808,357.715l0.37,0.367L246.808,357.715 M383.767,357.715v0.367h1.105L383.767,357.715z"/>
	<path fill="#AEE2B5" d="M384.872,357.715v0.367h1.103L384.872,357.715 M438.257,357.715l-0.368,0.732L438.257,357.715
		 M200.42,358.082l0.368,0.365L200.42,358.082 M247.421,358.203l0.247,0.123L247.421,358.203z"/>
	<path fill="#63C770" d="M247.914,358.082l0.367,0.365L247.914,358.082 M381.928,358.082v0.365h1.104L381.928,358.082z"/>
	<path fill="#AEE2B5" d="M383.276,358.203l0.243,0.123L383.276,358.203z"/>
	<path fill="#63C770" d="M438.257,358.082l0.366,0.365L438.257,358.082z"/>
	<path fill="#AEE2B5" d="M200.788,358.447l0.736,0.737L200.788,358.447 M248.649,358.447l0.368,0.371L248.649,358.447z"/>
	<path fill="#63C770" d="M249.017,358.447l0.37,0.371L249.017,358.447 M379.964,358.571l0.244,0.124L379.964,358.571z"/>
	<path fill="#AEE2B5" d="M380.453,358.447v0.371h1.104L380.453,358.447z"/>
	<path fill="#63C770" d="M437.889,358.447l0.368,0.371L437.889,358.447 M200.788,358.818l0.368,0.366L200.788,358.818z"/>
	<path fill="#AEE2B5" d="M249.999,358.939l0.245,0.124L249.999,358.939z"/>
	<path fill="#63C770" d="M250.737,358.939l0.245,0.124L250.737,358.939 M375.668,358.818v0.366h2.206L375.668,358.818z"/>
	<path fill="#AEE2B5" d="M377.874,358.818v0.366h1.108L377.874,358.818z"/>
	<path fill="#63C770" d="M437.519,358.818l0.37,0.366L437.519,358.818 M201.156,359.184l0.368,0.372L201.156,359.184z"/>
	<path fill="#AEE2B5" d="M251.472,359.307l0.247,0.125L251.472,359.307z"/>
	<path fill="#63C770" d="M252.208,359.307l0.245,0.125L252.208,359.307z"/>
	<path fill="#AEE2B5" d="M353.945,359.184v0.372h2.21L353.945,359.184z"/>
	<path fill="#63C770" d="M356.155,359.184v0.372h2.579L356.155,359.184 M370.882,359.184v0.372h2.944L370.882,359.184z"/>
	<path fill="#AEE2B5" d="M373.826,359.184v0.372h2.208L373.826,359.184 M437.152,359.184l-0.369,0.736L437.152,359.184
		 M201.524,359.556l0.369,0.364L201.524,359.556 M252.699,359.556v0.364h1.104L252.699,359.556z"/>
	<path fill="#63C770" d="M253.803,359.556l0.37,0.364L253.803,359.556z"/>
	<path fill="#AEE2B5" d="M358.734,359.556v0.364h12.516L358.734,359.556z"/>
	<path fill="#63C770" d="M437.152,359.556l0.367,0.364L437.152,359.556z"/>
	<path fill="#AEE2B5" d="M201.893,359.921l0.367,0.368L201.893,359.921 M254.909,359.921l0.368,0.368L254.909,359.921z"/>
	<path fill="#63C770" d="M255.522,360.045l0.244,0.121L255.522,360.045 M436.782,359.921l0.369,0.368L436.782,359.921z"/>
	<path fill="#AEE2B5" d="M202.26,360.289l0.37,0.37L202.26,360.289 M256.994,360.411l0.245,0.127L256.994,360.411z"/>
	<path fill="#63C770" d="M257.485,360.289v0.37h1.475L257.485,360.289 M436.414,360.289l0.368,0.37L436.414,360.289 M202.26,360.659
		l0.37,0.367L202.26,360.659z"/>
	<path fill="#AEE2B5" d="M258.959,360.659v0.367h1.473L258.959,360.659z"/>
	<path fill="#63C770" d="M260.432,360.659v0.367h2.21L260.432,360.659 M436.049,360.659l0.365,0.367L436.049,360.659
		 M202.629,361.026l0.368,0.369L202.629,361.026z"/>
	<path fill="#AEE2B5" d="M261.904,361.026v0.369h3.313L261.904,361.026z"/>
	<path fill="#63C770" d="M265.217,361.026v0.369h1.472L265.217,361.026z"/>
	<path fill="#AEE2B5" d="M435.677,361.026l0.372,0.369L435.677,361.026 M202.997,361.395l0.368,0.368L202.997,361.395z"/>
	<path fill="#63C770" d="M266.689,361.395v26.876h0.369v-18.409L266.689,361.395z"/>
	<path fill="#AEE2B5" d="M435.312,361.395l0.365,0.368L435.312,361.395 M203.365,361.763l0.369,0.365L203.365,361.763
		 M434.942,361.763l-0.734,1.104L434.942,361.763 M203.734,362.129l0.735,0.738L203.734,362.129z"/>
	<path fill="#63C770" d="M434.942,362.129l0.37,0.372L434.942,362.129 M203.734,362.501l0.367,0.366L203.734,362.501
		 M434.574,362.501l0.367,0.366L434.574,362.501 M204.1,362.867l0.368,0.37L204.1,362.867 M434.207,362.867l0.367,0.37
		L434.207,362.867 M204.469,363.237l0.37,0.366L204.469,363.237 M433.838,363.237l0.369,0.366L433.838,363.237 M204.838,363.603
		l0.368,0.368L204.838,363.603 M433.471,363.603l0.367,0.368L433.471,363.603z"/>
	<path fill="#AEE2B5" d="M205.206,363.971l0.368,0.369L205.206,363.971z"/>
	<path fill="#63C770" d="M433.1,363.971l0.371,0.369L433.1,363.971z"/>
	<path fill="#AEE2B5" d="M205.574,364.341l0.367,0.366L205.574,364.341z"/>
	<path fill="#63C770" d="M432.733,364.341l0.367,0.366L432.733,364.341z"/>
	<path fill="#AEE2B5" d="M205.942,364.707l0.368,0.371L205.942,364.707z"/>
	<path fill="#63C770" d="M432.366,364.707l0.366,0.371L432.366,364.707z"/>
	<path fill="#AEE2B5" d="M206.31,365.078l0.37,0.366L206.31,365.078z"/>
	<path fill="#63C770" d="M431.996,365.078l0.37,0.366L431.996,365.078z"/>
	<path fill="#AEE2B5" d="M206.679,365.444l1.104,1.104L206.679,365.444z"/>
	<path fill="#63C770" d="M431.63,365.444l0.366,0.367L431.63,365.444 M206.679,365.811l0.368,0.37L206.679,365.811z"/>
	<path fill="#AEE2B5" d="M430.892,365.811l0.367,0.37L430.892,365.811z"/>
	<path fill="#63C770" d="M431.259,365.811l0.371,0.37L431.259,365.811 M207.048,366.181l0.368,0.366L207.048,366.181
		 M430.892,366.181l0.367,0.366L430.892,366.181z"/>
	<path fill="#AEE2B5" d="M207.783,366.548l0.368,0.371L207.783,366.548 M430.156,366.548l0.37,0.371L430.156,366.548z"/>
	<path fill="#63C770" d="M430.526,366.548l0.366,0.371L430.526,366.548z"/>
	<path fill="#AEE2B5" d="M208.151,366.919l0.368,0.367L208.151,366.919 M429.789,366.919l0.366,0.367L429.789,366.919
		 M208.519,367.286l0.37,0.367L208.519,367.286 M429.417,367.286l0.372,0.367L429.417,367.286 M208.889,367.653l0.368,0.369
		L208.889,367.653z"/>
	<path fill="#63C770" d="M429.053,367.653l0.364,0.369L429.053,367.653z"/>
	<path fill="#AEE2B5" d="M209.257,368.022l0.367,0.367L209.257,368.022z"/>
	<path fill="#63C770" d="M428.685,368.022l0.368,0.367L428.685,368.022 M209.624,368.389l0.368,0.37L209.624,368.389z"/>
	<path fill="#AEE2B5" d="M427.948,368.389l-0.369,0.736L427.948,368.389z"/>
	<path fill="#63C770" d="M428.316,368.389l0.369,0.37L428.316,368.389 M209.992,368.76l0.368,0.366L209.992,368.76 M427.948,368.76
		l0.368,0.366L427.948,368.76 M210.361,369.126l0.368,0.367L210.361,369.126z"/>
	<path fill="#AEE2B5" d="M427.211,369.126l0.367,0.367L427.211,369.126z"/>
	<path fill="#63C770" d="M210.729,369.493l0.369,0.369L210.729,369.493 M426.845,369.493l0.366,0.369L426.845,369.493z"/>
	<path fill="#AEE2B5" d="M211.464,369.862l0.37,0.368L211.464,369.862 M426.107,369.862l0.366,0.368L426.107,369.862z"/>
	<path fill="#63C770" d="M426.473,369.862l0.372,0.368L426.473,369.862z"/>
	<path fill="#AEE2B5" d="M211.833,370.23l0.368,0.37L211.833,370.23 M425.737,370.23l0.37,0.37L425.737,370.23 M212.201,370.6
		l0.368,0.366L212.201,370.6z"/>
	<path fill="#63C770" d="M425.37,370.6l0.366,0.366L425.37,370.6 M212.57,370.967l0.368,0.366L212.57,370.967z"/>
	<path fill="#AEE2B5" d="M424.633,370.967l0.369,0.366L424.633,370.967z"/>
	<path fill="#63C770" d="M425.002,370.967l0.368,0.366L425.002,370.967 M212.938,371.333l0.367,0.372L212.938,371.333z"/>
	<path fill="#AEE2B5" d="M424.267,371.333l0.366,0.372L424.267,371.333 M213.674,371.705l0.369,0.366L213.674,371.705
		 M423.53,371.705l-0.367,0.736L423.53,371.705z"/>
	<path fill="#63C770" d="M423.896,371.705l0.371,0.366L423.896,371.705 M214.042,372.071l0.368,0.37L214.042,372.071
		 M423.53,372.071l0.366,0.37L423.53,372.071 M214.41,372.441l0.368,0.366L214.41,372.441 M422.793,372.441l0.369,0.366
		L422.793,372.441 M214.779,372.807l0.367,0.368L214.779,372.807z"/>
	<path fill="#AEE2B5" d="M215.146,372.807l0.368,0.368L215.146,372.807 M422.055,372.807l0.371,0.368L422.055,372.807z"/>
	<path fill="#63C770" d="M422.426,372.807l0.367,0.368L422.426,372.807 M215.514,373.176l0.369,0.369L215.514,373.176z"/>
	<path fill="#AEE2B5" d="M421.321,373.176l0.367,0.369L421.321,373.176z"/>
	<path fill="#63C770" d="M421.688,373.176l0.367,0.369L421.688,373.176 M215.883,373.545l0.737,0.736L215.883,373.545z"/>
	<path fill="#AEE2B5" d="M216.252,373.545l0.368,0.368L216.252,373.545 M420.951,373.545l0.369,0.368L420.951,373.545
		 M216.62,373.913l0.367,0.368L216.62,373.913 M420.214,373.913l0.371,0.368L420.214,373.913z"/>
	<path fill="#63C770" d="M420.585,373.913l0.366,0.368L420.585,373.913 M216.987,374.281l0.369,0.368L216.987,374.281z"/>
	<path fill="#AEE2B5" d="M419.481,374.281l0.367,0.368L419.481,374.281z"/>
	<path fill="#63C770" d="M419.848,374.281l0.366,0.368L419.848,374.281z"/>
	<path fill="#AEE2B5" d="M217.723,374.649l0.37,0.366L217.723,374.649 M419.112,374.649l0.369,0.366L419.112,374.649z"/>
	<path fill="#63C770" d="M218.093,375.015l0.735,0.736L218.093,375.015z"/>
	<path fill="#AEE2B5" d="M218.461,375.015l0.367,0.369L218.461,375.015 M418.374,375.015l0.369,0.369L418.374,375.015z"/>
	<path fill="#63C770" d="M418.743,375.015l0.368,0.369L418.743,375.015z"/>
	<path fill="#AEE2B5" d="M218.828,375.385l0.368,0.367L218.828,375.385 M417.641,375.385l0.366,0.367L417.641,375.385z"/>
	<path fill="#63C770" d="M418.007,375.385l0.367,0.367L418.007,375.385 M219.196,375.752l0.369,0.371L219.196,375.752z"/>
	<path fill="#AEE2B5" d="M219.565,375.752l0.368,0.371L219.565,375.752 M416.904,375.752l0.365,0.371L416.904,375.752z"/>
	<path fill="#63C770" d="M417.269,375.752l0.372,0.371L417.269,375.752z"/>
	<path fill="#AEE2B5" d="M219.933,376.123l0.369,0.367L219.933,376.123z"/>
	<path fill="#63C770" d="M416.532,376.123l0.371,0.367L416.532,376.123 M220.302,376.49l0.367,0.366L220.302,376.49z"/>
	<path fill="#AEE2B5" d="M220.669,376.49l0.368,0.366L220.669,376.49 M415.429,376.49l0.369,0.366L415.429,376.49z"/>
	<path fill="#63C770" d="M415.798,376.49l0.368,0.366L415.798,376.49 M221.037,376.856l1.105,0.737v-0.367L221.037,376.856z"/>
	<path fill="#AEE2B5" d="M221.405,376.856l0.369,0.37L221.405,376.856 M414.693,376.856l0.37,0.37L414.693,376.856z"/>
	<path fill="#63C770" d="M415.063,376.856l0.366,0.37L415.063,376.856z"/>
	<path fill="#AEE2B5" d="M413.958,377.226l0.366,0.367L413.958,377.226z"/>
	<path fill="#63C770" d="M414.571,377.349l0.243,0.122L414.571,377.349 M222.143,377.594l0.366,0.37L222.143,377.594z"/>
	<path fill="#AEE2B5" d="M222.509,377.594l0.37,0.37L222.509,377.594 M413.222,377.594l0.365,0.37L413.222,377.594z"/>
	<path fill="#63C770" d="M413.587,377.594l0.371,0.37L413.587,377.594 M222.878,377.964l0.368,0.367L222.878,377.964z"/>
	<path fill="#AEE2B5" d="M223.246,377.964l0.368,0.367L223.246,377.964 M412.484,377.964l0.367,0.367L412.484,377.964z"/>
	<path fill="#63C770" d="M412.851,377.964l0.371,0.367L412.851,377.964 M223.615,378.331l0.369,0.366L223.615,378.331z"/>
	<path fill="#AEE2B5" d="M223.983,378.331l0.367,0.366L223.983,378.331 M411.747,378.331l0.37,0.366L411.747,378.331z"/>
	<path fill="#63C770" d="M412.117,378.331l0.366,0.366L412.117,378.331 M224.35,378.697l0.368,0.37L224.35,378.697z"/>
	<path fill="#AEE2B5" d="M224.718,378.697l0.37,0.37L224.718,378.697 M411.01,378.697l0.371,0.37L411.01,378.697z"/>
	<path fill="#63C770" d="M411.381,378.697l0.366,0.37L411.381,378.697 M225.088,379.067l0.368,0.367L225.088,379.067z"/>
	<path fill="#AEE2B5" d="M225.455,379.067l0.368,0.367L225.455,379.067 M409.906,379.067l0.369,0.367L409.906,379.067z"/>
	<path fill="#63C770" d="M410.521,379.189l0.245,0.123L410.521,379.189 M225.823,379.434l0.367,0.371L225.823,379.434z"/>
	<path fill="#AEE2B5" d="M409.168,379.434l0.371,0.371L409.168,379.434z"/>
	<path fill="#63C770" d="M409.539,379.434l0.367,0.371L409.539,379.434 M226.559,379.805l0.37,0.365L226.559,379.805z"/>
	<path fill="#AEE2B5" d="M226.928,379.805l0.368,0.365L226.928,379.805 M408.313,379.927l0.245,0.121L408.313,379.927z"/>
	<path fill="#63C770" d="M408.803,379.805l0.365,0.365L408.803,379.805 M227.297,380.171l0.368,0.366L227.297,380.171z"/>
	<path fill="#AEE2B5" d="M227.665,380.171l0.367,0.366L227.665,380.171 M407.328,380.171l0.371,0.366L407.328,380.171z"/>
	<path fill="#63C770" d="M407.699,380.171l0.365,0.366L407.699,380.171 M228.032,380.537l0.368,0.372L228.032,380.537z"/>
	<path fill="#AEE2B5" d="M228.4,380.537l0.368,0.372L228.4,380.537 M406.225,380.537l0.37,0.372L406.225,380.537z"/>
	<path fill="#63C770" d="M406.838,380.661l0.245,0.126L406.838,380.661 M228.768,380.909l0.37,0.365L228.768,380.909z"/>
	<path fill="#AEE2B5" d="M229.138,380.909l0.368,0.365L229.138,380.909 M405.489,380.909l0.368,0.365L405.489,380.909z"/>
	<path fill="#63C770" d="M405.857,380.909l0.368,0.365L405.857,380.909 M229.873,381.274l0.368,0.371L229.873,381.274z"/>
	<path fill="#AEE2B5" d="M230.241,381.274l0.368,0.371L230.241,381.274 M404.383,381.274l0.371,0.371L404.383,381.274z"/>
	<path fill="#63C770" d="M404.754,381.274l0.366,0.371L404.754,381.274 M230.61,381.645l0.368,0.366L230.61,381.645z"/>
	<path fill="#AEE2B5" d="M230.978,381.645l0.37,0.366L230.978,381.645 M403.281,381.645l0.366,0.366L403.281,381.645z"/>
	<path fill="#63C770" d="M403.647,381.645l0.371,0.366L403.647,381.645 M231.347,382.011l0.365,0.367L231.347,382.011z"/>
	<path fill="#AEE2B5" d="M231.959,382.135l0.245,0.121L231.959,382.135 M402.177,382.011l0.367,0.367L402.177,382.011z"/>
	<path fill="#63C770" d="M402.791,382.135l0.245,0.121L402.791,382.135 M232.45,382.379l0.368,0.37L232.45,382.379z"/>
	<path fill="#AEE2B5" d="M232.819,382.379l0.37,0.37L232.819,382.379 M401.072,382.379l0.367,0.37L401.072,382.379z"/>
	<path fill="#63C770" d="M401.684,382.5l0.244,0.127L401.684,382.5 M233.554,382.749l0.37,0.368L233.554,382.749z"/>
	<path fill="#AEE2B5" d="M233.924,382.749l0.368,0.368L233.924,382.749 M399.965,382.749l0.37,0.368L399.965,382.749z"/>
	<path fill="#63C770" d="M400.335,382.749l0.367,0.368L400.335,382.749 M234.292,383.117l0.368,0.368L234.292,383.117z"/>
	<path fill="#AEE2B5" d="M234.905,383.238l0.246,0.126L234.905,383.238 M398.74,383.238l0.243,0.126L398.74,383.238z"/>
	<path fill="#63C770" d="M399.232,383.117l0.366,0.368L399.232,383.117 M235.395,383.485l0.368,0.368L235.395,383.485z"/>
	<path fill="#AEE2B5" d="M236.01,383.608l0.245,0.122L236.01,383.608 M397.27,383.608l0.244,0.122L397.27,383.608z"/>
	<path fill="#63C770" d="M398.002,383.608l0.245,0.122L398.002,383.608 M236.379,383.974l0.243,0.124L236.379,383.974z"/>
	<path fill="#AEE2B5" d="M237.114,383.974l0.246,0.124L237.114,383.974 M395.916,383.853l0.368,0.366L395.916,383.853z"/>
	<path fill="#63C770" d="M396.532,383.974l0.245,0.124L396.532,383.974 M237.604,384.219l0.368,0.372L237.604,384.219z"/>
	<path fill="#AEE2B5" d="M237.972,384.219l0.37,0.372L237.972,384.219 M394.69,384.343l0.245,0.124L394.69,384.343z"/>
	<path fill="#63C770" d="M395.179,384.219l0.371,0.372L395.179,384.219 M239.077,384.592l0.369,0.364L239.077,384.592z"/>
	<path fill="#AEE2B5" d="M239.446,384.592l0.368,0.364L239.446,384.592 M393.217,384.712l0.244,0.123L393.217,384.712z"/>
	<path fill="#63C770" d="M393.709,384.592l0.367,0.364L393.709,384.592 M240.059,385.08l0.246,0.125L240.059,385.08z"/>
	<path fill="#AEE2B5" d="M240.795,385.08l0.245,0.125L240.795,385.08 M391.131,384.956v0.372h1.104L391.131,384.956z"/>
	<path fill="#63C770" d="M392.235,384.956l0.367,0.372L392.235,384.956 M241.533,385.449l0.244,0.124L241.533,385.449z"/>
	<path fill="#AEE2B5" d="M242.268,385.449l0.246,0.124L242.268,385.449 M389.905,385.449l0.245,0.124L389.905,385.449z"/>
	<path fill="#63C770" d="M390.639,385.449l0.244,0.124L390.639,385.449 M243.004,385.815l0.245,0.123L243.004,385.815z"/>
	<path fill="#AEE2B5" d="M243.495,385.693l0.369,0.367L243.495,385.693 M388.187,385.693l0.367,0.367L388.187,385.693z"/>
	<path fill="#63C770" d="M388.554,385.693v0.367h1.104L388.554,385.693 M244.599,386.06l0.37,0.37L244.599,386.06z"/>
	<path fill="#AEE2B5" d="M245.214,386.182l0.245,0.126L245.214,386.182 M386.589,386.182l0.245,0.126L386.589,386.182z"/>
	<path fill="#63C770" d="M387.079,386.06l0.37,0.37L387.079,386.06 M246.318,386.553l0.244,0.122L246.318,386.553z"/>
	<path fill="#AEE2B5" d="M247.055,386.553l0.245,0.122L247.055,386.553 M383.031,386.43v0.366h1.473L383.031,386.43z"/>
	<path fill="#63C770" d="M384.504,386.43v0.366h1.104L384.504,386.43 M247.546,386.797v0.371h1.103L247.546,386.797z"/>
	<path fill="#AEE2B5" d="M248.649,386.797v0.371h1.106L248.649,386.797 M378.245,386.797v0.371h2.944L378.245,386.797z"/>
	<path fill="#63C770" d="M381.19,386.797v0.371h1.842L381.19,386.797 M249.387,387.168v0.367h1.472L249.387,387.168z"/>
	<path fill="#AEE2B5" d="M250.859,387.168v0.367h1.105L250.859,387.168z"/>
	<path fill="#63C770" d="M327.44,387.168v0.367h25.771l-8.101-0.367H327.44z"/>
	<path fill="#AEE2B5" d="M353.21,387.168v0.367h6.994L353.21,387.168 M369.408,387.168v0.367h5.522L369.408,387.168z"/>
	<path fill="#63C770" d="M374.931,387.168v0.367h4.052L374.931,387.168 M252.331,387.535v0.367h1.106L252.331,387.535z"/>
	<path fill="#AEE2B5" d="M253.437,387.535v0.367h1.103L253.437,387.535z"/>
	<path fill="#63C770" d="M255.277,387.902v0.369h1.473L255.277,387.902z"/>
	<path fill="#AEE2B5" d="M256.749,387.902v0.369h1.842L256.749,387.902z"/>
	<path fill="#63C770" d="M259.326,388.271v0.367h4.051L259.326,388.271z"/>
	<path fill="#AEE2B5" d="M263.377,388.271v0.367h3.312L263.377,388.271z"/>
	<path fill="#63C770" d="M283.259,422.143l0.367,0.367L283.259,422.143 M459.98,435.763l0.366,0.371L459.98,435.763z"/>
	<path fill="#FFFFFF" d="M459.98,436.135l0.366,0.365L459.98,436.135z"/>
	<path fill="#AEE2B5" d="M195.265,454.909l0.369,0.37L195.265,454.909z"/>
	<path fill="#63C770" d="M440.833,454.909l0.368,0.37L440.833,454.909 M238.586,483.013l0.246,0.122L238.586,483.013
		 M349.529,497.985l0.367,0.367L349.529,497.985z"/>
	<path fill="#AEE2B5" d="M349.896,497.985l0.367,0.367L349.896,497.985z"/>
	<path fill="#63C770" d="M350.263,497.985l0.37,0.367L350.263,497.985z"/>
</g>
</svg>
