<?xml version="1.0" encoding="utf-8"?>
<!-- Generator: Adobe Illustrator 16.0.0, SVG Export Plug-In . SVG Version: 6.00 Build 0)  -->
<svg version="1.2" baseProfile="tiny" id="Layer_1" xmlns="http://www.w3.org/2000/svg" xmlns:xlink="http://www.w3.org/1999/xlink"
	 x="0px" y="0px" width="512px" height="512px" viewBox="0 0 512 512" xml:space="preserve">
<circle fill="#75A8DA" cx="313.887" cy="310" r="188.401"/>
<path fill="#333B61" d="M65.773,88.821c43.079-25.982,96.633,3.288,98.123,52.228c0.614,19.705-1.354,38.771-13.689,54.918
	c-17.502,22.932-41.127,32.099-69.539,27.095c-6.782-1.191-12.96-5.845-20.654-9.491c-7.433,10.512-19.173,13.771-34.02,10.305
	v-8.472c0-54.146,0-108.286,0-162.424c0-9.086-0.093-17.629-11.146-21.25c-1.653-0.542-1.734-5.816-2.791-9.847
	c16.961,0,32.512-0.135,48.027,0.072c5.013,0.072,5.681,3.976,5.672,8.065c-0.036,16.545-0.036,33.087,0,49.626L65.773,88.821z
	 M65.773,152.4c0,14.773-0.126,29.55,0.118,44.325c0.045,2.771,0.804,6.132,2.483,8.198c10.735,13.178,28.385,12.519,38.129-1.326
	c7.911-11.234,10.386-24.224,11.162-37.589c0.976-16.859,0.371-33.576-7.976-48.901c-8.128-14.856-23.903-21.575-38.626-17.159
	c-4.056,1.219-5.419,3.143-5.419,7.387c0.28,15.021,0.126,30.047,0.126,45.048L65.773,152.4L65.773,152.4z"/>
<path fill="#F7A800" d="M226.464,74.209c-13.038-0.563-25.744-4.279-37.027-10.837c-4.724-2.755-9.374-5.645-14.089-8.417
	c-2.158-1.26-4.585-1.99-7.08-2.132c-0.957-0.024-1.905,0.183-2.764,0.605c-5.972,2.799-11.67,6.146-17.023,9.995
	c-7.758,5.602-17.159,3.813-23.634-1.472c-3.53-2.695-5.952-6.589-6.81-10.945c-0.969-5.327,0.37-10.179,3.313-14.631
	c1.804-2.657,4.134-4.922,6.845-6.646c7.101-4.715,14.227-9.395,22.183-12.646c5.622-2.435,11.689-3.665,17.816-3.61
	c9.677,0.31,19.13,2.979,27.536,7.773c4.978,2.766,9.825,5.753,14.666,8.742c4.108,2.432,8.651,4.039,13.375,4.732
	c4.156,0.648,8.412-0.063,12.129-2.032c4.58-2.326,8.913-5.109,12.935-8.311c8.536-6.719,20.881-5.359,27.752,3.055
	c2.48,3.079,3.891,6.884,4.01,10.837c0.371,6.563-1.715,12.048-6.918,16.364c-7.848,6.512-16.256,12.021-25.847,15.649
	C241.01,72.898,233.766,74.227,226.464,74.209z"/>
<path fill="#FFFFFF" d="M213.359,223.834c-15.842,0-28.722,12.88-28.722,28.722v114.89c0,15.842,12.88,28.722,28.722,28.722h201.055
	c15.843,0,28.723-12.88,28.723-28.722v-114.89c0-15.842-12.88-28.722-28.723-28.722H213.359z M242.081,367.445h-28.722v-28.723
	C229.201,338.722,242.081,351.602,242.081,367.445z M213.359,281.278v-28.723h28.722
	C242.081,268.398,229.201,281.278,213.359,281.278z M385.693,367.445c0-15.843,12.879-28.723,28.722-28.723v28.723H385.693z
	 M414.414,281.278c-15.843,0-28.722-12.88-28.722-28.723h28.722V281.278z M263.623,310c0-27.759,22.504-50.264,50.264-50.264
	s50.264,22.505,50.264,50.264c0,27.76-22.504,50.264-50.264,50.264S263.623,337.76,263.623,310z M297.731,288.459
	c0,4.353,3.096,7.943,7.181,8.796v21.722h-1.796c-4.937,0-8.976,4.039-8.976,8.975c0,4.938,4.039,8.977,8.976,8.977h10.771h10.771
	c4.938,0,8.977-4.039,8.977-8.977c0-4.936-4.039-8.975-8.977-8.975h-1.795v-30.518c0-4.938-4.039-8.977-8.976-8.977h-7.181
	C301.77,279.482,297.731,283.521,297.731,288.459z"/>
</svg>
