<?xml version="1.0" encoding="utf-8"?>
<!-- Generator: Adobe Illustrator 16.0.0, SVG Export Plug-In . SVG Version: 6.00 Build 0)  -->
<svg version="1.2" baseProfile="tiny" id="Layer_1" xmlns="http://www.w3.org/2000/svg" xmlns:xlink="http://www.w3.org/1999/xlink"
	 x="0px" y="0px" width="512px" height="512px" viewBox="0 0 512 512" xml:space="preserve">
<circle fill="#75A8DA" cx="313.887" cy="310" r="188.401"/>
<path fill="#333B61" d="M65.773,88.821c43.079-25.982,96.633,3.288,98.123,52.228c0.614,19.705-1.354,38.771-13.689,54.918
	c-17.502,22.932-41.127,32.099-69.539,27.095c-6.782-1.191-12.96-5.845-20.654-9.491c-7.433,10.512-19.173,13.771-34.02,10.305
	v-8.472c0-54.146,0-108.286,0-162.424c0-9.086-0.093-17.629-11.146-21.25c-1.653-0.542-1.734-5.816-2.791-9.847
	c16.961,0,32.512-0.135,48.027,0.072c5.013,0.072,5.681,3.976,5.672,8.065c-0.036,16.545-0.036,33.087,0,49.626L65.773,88.821z
	 M65.773,152.4c0,14.773-0.126,29.55,0.118,44.325c0.045,2.771,0.804,6.132,2.483,8.198c10.735,13.178,28.385,12.519,38.129-1.326
	c7.911-11.234,10.386-24.224,11.162-37.589c0.976-16.859,0.371-33.576-7.976-48.901c-8.128-14.856-23.903-21.575-38.626-17.159
	c-4.056,1.219-5.419,3.143-5.419,7.387c0.28,15.021,0.126,30.047,0.126,45.048L65.773,152.4L65.773,152.4z"/>
<path fill="#F7A800" d="M226.464,74.209c-13.038-0.563-25.744-4.279-37.027-10.837c-4.724-2.755-9.374-5.645-14.089-8.417
	c-2.158-1.26-4.585-1.99-7.08-2.132c-0.957-0.024-1.905,0.183-2.764,0.605c-5.972,2.799-11.67,6.146-17.023,9.995
	c-7.758,5.602-17.159,3.813-23.634-1.472c-3.53-2.695-5.952-6.589-6.81-10.945c-0.969-5.327,0.37-10.179,3.313-14.631
	c1.804-2.657,4.134-4.922,6.845-6.646c7.101-4.715,14.227-9.395,22.183-12.646c5.622-2.435,11.689-3.665,17.816-3.61
	c9.677,0.31,19.13,2.979,27.536,7.773c4.978,2.766,9.825,5.753,14.666,8.742c4.108,2.432,8.651,4.039,13.375,4.732
	c4.156,0.648,8.412-0.063,12.129-2.032c4.58-2.326,8.913-5.109,12.935-8.311c8.536-6.719,20.881-5.359,27.752,3.055
	c2.48,3.079,3.891,6.884,4.01,10.837c0.371,6.563-1.715,12.048-6.918,16.364c-7.848,6.512-16.256,12.021-25.847,15.649
	C241.01,72.898,233.766,74.227,226.464,74.209z"/>
<path fill="#FFFFFF" d="M238.731,228.75c0-16.581,13.481-30.063,30.063-30.063h135.281c16.581,0,30.063,13.481,30.063,30.063
	v150.313c0,16.582-13.481,30.063-30.063,30.063H231.215c-20.762,0-37.578-16.815-37.578-37.578V243.781
	c0-8.314,6.717-15.031,15.031-15.031s15.031,6.717,15.031,15.031v127.766c0,4.133,3.382,7.516,7.516,7.516s7.516-3.383,7.516-7.516
	V228.75z M268.793,240.023v37.578c0,6.247,5.026,11.273,11.273,11.273h52.609c6.247,0,11.273-5.026,11.273-11.273v-37.578
	c0-6.247-5.026-11.273-11.273-11.273h-52.609C273.82,228.75,268.793,233.776,268.793,240.023z M366.496,236.265
	c0,4.134,3.382,7.516,7.516,7.516h22.547c4.134,0,7.516-3.382,7.516-7.516s-3.382-7.516-7.516-7.516h-22.547
	C369.878,228.75,366.496,232.132,366.496,236.265z M366.496,281.359c0,4.134,3.382,7.516,7.516,7.516h22.547
	c4.134,0,7.516-3.382,7.516-7.516s-3.382-7.516-7.516-7.516h-22.547C369.878,273.844,366.496,277.225,366.496,281.359z
	 M268.793,326.453c0,4.133,3.382,7.516,7.516,7.516h120.25c4.134,0,7.516-3.383,7.516-7.516c0-4.134-3.382-7.516-7.516-7.516
	h-120.25C272.175,318.937,268.793,322.319,268.793,326.453z M268.793,371.547c0,4.133,3.382,7.516,7.516,7.516h120.25
	c4.134,0,7.516-3.383,7.516-7.516s-3.382-7.516-7.516-7.516h-120.25C272.175,364.031,268.793,367.414,268.793,371.547z"/>
</svg>
