<?xml version="1.0" encoding="utf-8"?>
<!-- Generator: Adobe Illustrator 27.1.1, SVG Export Plug-In . SVG Version: 6.00 Build 0)  -->
<svg version="1.1" id="Layer_1" xmlns="http://www.w3.org/2000/svg" xmlns:xlink="http://www.w3.org/1999/xlink" x="0px" y="0px"
	 viewBox="0 0 512 512" style="enable-background:new 0 0 512 512;" xml:space="preserve">
<style type="text/css">
	.st0{fill:#00D639;}
	.st1{fill:#333B61;}
	.st2{fill:#F7A800;}
	.st3{fill:#1EE2EB;}
	.st4{fill:#5BCAE3;}
	.st5{fill:#FAF9F6;}
</style>
<circle class="st0" cx="318" cy="316.8" r="183.8"/>
<path class="st1" d="M65.8,88.8c43.1-26,96.6,3.3,98.1,52.2c0.6,19.7-1.4,38.8-13.7,54.9c-17.5,22.9-41.1,32.1-69.5,27.1
	c-6.8-1.2-13-5.8-20.7-9.5c-7.4,10.5-19.2,13.8-34,10.3v-8.5c0-54.1,0-108.3,0-162.4c0-9.1-0.1-17.6-11.1-21.2
	c-1.7-0.5-1.7-5.8-2.8-9.8c17,0,32.5-0.1,48,0.1c5,0.1,5.7,4,5.7,8.1c0,16.5,0,33.1,0,49.6L65.8,88.8z M65.8,152.4
	c0,14.8-0.1,29.6,0.1,44.3c0,2.8,0.8,6.1,2.5,8.2c10.7,13.2,28.4,12.5,38.1-1.3c7.9-11.2,10.4-24.2,11.2-37.6
	c1-16.9,0.4-33.6-8-48.9c-8.1-14.9-23.9-21.6-38.6-17.2c-4.1,1.2-5.4,3.1-5.4,7.4C65.9,122.4,65.8,137.4,65.8,152.4L65.8,152.4
	L65.8,152.4z"/>
<path class="st2" d="M226.5,74.2c-13-0.6-25.7-4.3-37-10.8c-4.7-2.8-9.4-5.6-14.1-8.4c-2.2-1.3-4.6-2-7.1-2.1c-1,0-1.9,0.2-2.8,0.6
	c-6,2.8-11.7,6.1-17,10c-7.8,5.6-17.2,3.8-23.6-1.5c-3.5-2.7-6-6.6-6.8-10.9c-1-5.3,0.4-10.2,3.3-14.6c1.8-2.7,4.1-4.9,6.8-6.6
	c7.1-4.7,14.2-9.4,22.2-12.6c5.6-2.4,11.7-3.7,17.8-3.6c9.7,0.3,19.1,3,27.5,7.8c5,2.8,9.8,5.8,14.7,8.7c4.1,2.4,8.7,4,13.4,4.7
	c4.2,0.6,8.4-0.1,12.1-2c4.6-2.3,8.9-5.1,12.9-8.3c8.5-6.7,20.9-5.4,27.8,3.1c2.5,3.1,3.9,6.9,4,10.8c0.4,6.6-1.7,12-6.9,16.4
	c-7.8,6.5-16.3,12-25.8,15.7C241,72.9,233.8,74.2,226.5,74.2z"/>
<path class="st3" d="M330.6,129.7l0.2,0.2L330.6,129.7 M351.7,132.2l0.2,0.2L351.7,132.2 M283.7,132.6l0.2,0.2L283.7,132.6
	 M276.8,134.1l0.2,0.2L276.8,134.1 M274.5,134.6l0.2,0.2L274.5,134.6 M371,136.8l0.2,0.2L371,136.8 M372.8,137.3l0.2,0.2
	L372.8,137.3 M375.2,138.1l0.2,0.2L375.2,138.1 M375.7,138.2l0.2,0.2L375.7,138.2 M379,139.3l0.2,0.2L379,139.3 M379.5,139.5
	l0.2,0.2L379.5,139.5 M380.1,139.7l0.2,0.2L380.1,139.7 M384.1,141.2l0.2,0.2L384.1,141.2 M386.4,142.1l0.2,0.2L386.4,142.1
	 M250.5,142.2l0.2,0.2L250.5,142.2 M387.4,142.4l0.2,0.2L387.4,142.4 M388.3,142.8l0.2,0.2L388.3,142.8 M391.7,144.2l0.2,0.2
	L391.7,144.2 M241.9,145.9l0.2,0.2L241.9,145.9 M238.8,147.3l0.2,0.2L238.8,147.3 M400.1,148.1l0.2,0.2L400.1,148.1 M403,149.5
	l0.2,0.2L403,149.5 M232.6,150.4l0.2,0.2L232.6,150.4 M410.1,153.3l0.2,0.2L410.1,153.3 M411.4,154.1l0.2,0.2L411.4,154.1
	 M225.7,154.2l0.2,0.2L225.7,154.2 M224.5,155l0.2,0.2L224.5,155 M418.8,158.6l0.2,0.2L418.8,158.6 M218.3,158.8l0.2,0.2
	L218.3,158.8 M217.7,159.2l0.2,0.2L217.7,159.2 M216.1,160.2l0.2,0.2L216.1,160.2 M423.2,161.5l0.2,0.2L423.2,161.5 M213.9,161.7
	l0.2,0.2L213.9,161.7 M423.7,161.9l0.2,0.2L423.7,161.9 M211.6,163.3l0.2,0.2L211.6,163.3 M426.1,163.5l0.2,0.2L426.1,163.5
	 M426.8,164.1l0.2,0.2L426.8,164.1 M209.6,164.8l0.2,0.2L209.6,164.8 M208.8,165.3l0.2,0.2L208.8,165.3 M207.6,166.2l0.2,0.2
	L207.6,166.2 M430.3,166.6l0.2,0.2L430.3,166.6 M205.2,168.1l0.2,0.2L205.2,168.1 M203.6,169.3l0.2,0.2L203.6,169.3 M435.2,170.4
	l0.2,0.2L435.2,170.4 M200.7,171.7l0.2,0.2L200.7,171.7 M199.6,172.6l0.2,0.2L199.6,172.6 M438.4,173.2l0.2,0.2L438.4,173.2
	 M195.6,176.1l0.2,0.2L195.6,176.1 M444.8,178.8l0.2,0.2L444.8,178.8 M191.4,179.9l0.2,0.2L191.4,179.9 M448.1,181.9l0.2,0.2
	L448.1,181.9 M449,182.8l0.2,0.2L449,182.8 M451.5,185.3l0.2,0.2L451.5,185.3 M183.7,187.5l0.2,0.2L183.7,187.5 M455,189l0.2,0.2
	L455,189 M181.6,189.9l0.2,0.2L181.6,189.9 M458.3,192.6l0.2,0.2L458.3,192.6 M177.6,194.4l0.2,0.2L177.6,194.4 M175.6,196.8
	l0.2,0.2L175.6,196.8 M173.2,199.7l0.2,0.2L173.2,199.7 M465.2,201l0.2,0.2L465.2,201 M467,203.3l0.2,0.2L467,203.3 M170.1,203.7
	l0.2,0.2L170.1,203.7 M467.5,204.1l0.2,0.2L467.5,204.1 M469,206.1l0.2,0.2L469,206.1 M167.2,207.7l0.2,0.2L167.2,207.7
	 M165.6,210.1l0.2,0.2L165.6,210.1 M472.4,211l0.2,0.2L472.4,211 M472.8,211.5l0.2,0.2L472.8,211.5 M162.7,214.4l0.2,0.2
	L162.7,214.4 M475.2,215.1l0.2,0.2L475.2,215.1 M476.1,216.6l0.2,0.2L476.1,216.6 M477,218.1l0.2,0.2L477,218.1 M478.1,219.9
	l0.2,0.2L478.1,219.9 M479.2,221.7l0.2,0.2L479.2,221.7 M157.6,222.8l0.2,0.2L157.6,222.8 M480.8,224.6l0.2,0.2L480.8,224.6
	 M481.5,225.9l0.2,0.2L481.5,225.9 M151.2,235l0.2,0.2L151.2,235 M486.6,235.9l0.2,0.2L486.6,235.9 M149.7,238.1l0.2,0.2
	L149.7,238.1 M487.7,238.2l0.2,0.2L487.7,238.2 M489,241.1l0.2,0.2L489,241.1 M147.7,242.6l0.2,0.2L147.7,242.6 M147.4,243.5
	l0.2,0.2L147.4,243.5 M491.5,247.3l0.2,0.2L491.5,247.3 M491.9,248.2l0.2,0.2L491.9,248.2 M144.7,250.4l0.2,0.2L144.7,250.4
	 M493,251.1l0.2,0.2L493,251.1 M143.9,252.4l0.2,0.2L143.9,252.4 M493.9,253.7l0.2,0.2L493.9,253.7 M496.3,261l0.2,0.2L496.3,261
	 M497.2,264.1l0.2,0.2L497.2,264.1 M139.8,265.7l0.2,0.2L139.8,265.7 M497.7,266.1l0.2,0.2L497.7,266.1 M498.4,268.8l0.2,0.2
	L498.4,268.8 M138.8,269.1l0.2,0.2L138.8,269.1 M498.6,269.5l0.2,0.2L498.6,269.5 M138.7,269.9l0.2,0.2L138.7,269.9 M498.8,270.2
	l0.2,0.2L498.8,270.2 M138.5,270.6l0.2,0.2L138.5,270.6z"/>
<path class="st4" d="M295,272.8v0.2h2.9L295,272.8 M417.4,272.8v0.2h1.3L417.4,272.8z"/>
<path class="st4" d="M422.4,272.8v0.2h1.3L422.4,272.8 M177.2,273v0.2h0.5L177.2,273z"/>
<path class="st4" d="M178.8,273v0.2h0.5L178.8,273 M248.6,273v0.2h0.5L248.6,273 M250.3,273v0.2h0.5L250.3,273 M292.3,273v0.2h0.9
	L292.3,273z"/>
<path class="st4" d="M299.7,273v0.2h0.9L299.7,273 M415.5,273v0.2h0.7L415.5,273 M424.8,273v0.2h0.7L424.8,273 M176.6,273.2l0.1,0.1
	L176.6,273.2 M179.9,273.2l0.1,0.1L179.9,273.2 M248,273.2l0.1,0.1L248,273.2 M251.3,273.2l0.1,0.1L251.3,273.2 M290.6,273.1v0.2
	h0.7L290.6,273.1 M301.5,273.1v0.2h0.7L301.5,273.1 M414.1,273.1v0.2h0.7L414.1,273.1 M426.3,273.1v0.2h0.7L426.3,273.1
	 M176.1,273.3l0.2,0.2L176.1,273.3 M180.5,273.3l0.2,0.2L180.5,273.3 M247.5,273.4l0.1,0.1L247.5,273.4 M251.7,273.3l0.2,0.2
	L251.7,273.3 M289.5,273.3v0.2h0.5L289.5,273.3 M302.8,273.3v0.2h0.5L302.8,273.3 M413.3,273.4l0.1,0.1L413.3,273.4 M427.5,273.3
	v0.2h0.5L427.5,273.3 M175.7,273.5l0.2,0.2L175.7,273.5 M180.8,273.5l0.2,0.2L180.8,273.5 M247,273.5l0.2,0.2L247,273.5
	 M252.2,273.6l0.1,0.1L252.2,273.6 M288.5,273.5v0.2h0.5L288.5,273.5 M303.9,273.5v0.2h0.5L303.9,273.5 M371.5,273.5v0.2h0.9
	L371.5,273.5z"/>
<path class="st3" d="M500.8,279.3l0.2,0.2L500.8,279.3z"/>
<path class="st4" d="M172.7,279.6l0.1,0.1L172.7,279.6 M187.2,279.5l0.2,0.2L187.2,279.5 M240.6,279.5l0.2,0.2L240.6,279.5
	 M273.6,279.5l0.2,0.2L273.6,279.5 M397.7,279.5l0.2,0.2L397.7,279.5 M443.2,279.5l0.2,0.2L443.2,279.5 M187.4,279.7l0.2,0.2
	L187.4,279.7 M240.5,279.7l0.2,0.2L240.5,279.7 M255.3,279.8l0.1,0.1L255.3,279.8 M273.4,279.7l0.2,0.2L273.4,279.7 M319.4,279.7
	l0.2,0.2L319.4,279.7 M381.5,279.7v0.7h0.2L381.5,279.7 M397.4,279.7l0.2,0.2L397.4,279.7 M443.5,279.7l0.2,0.2L443.5,279.7
	 M187.6,279.9l0.2,0.2L187.6,279.9 M240.3,279.9l0.2,0.2L240.3,279.9 M273,279.9l0.2,0.2L273,279.9 M443.7,279.9l0.2,0.2
	L443.7,279.9 M187.7,280l0.2,0.2L187.7,280 M240.1,280l0.2,0.2L240.1,280 M272.8,280l0.2,0.2L272.8,280 M319.9,280l0.2,0.2
	L319.9,280 M396.8,280l0.2,0.2L396.8,280 M444.1,280l0.2,0.2L444.1,280 M172.9,280.4l0.1,0.1L172.9,280.4 M187.9,280.2l0.2,0.2
	L187.9,280.2 M239.9,280.2l0.2,0.2L239.9,280.2 M272.5,280.2l0.2,0.2L272.5,280.2 M396.6,280.2l0.2,0.2L396.6,280.2 M444.3,280.2
	l0.2,0.2L444.3,280.2 M188.1,280.4l0.2,0.2L188.1,280.4 M239.7,280.4l0.2,0.2L239.7,280.4 M255,280.4l0.2,0.2L255,280.4
	 M272.3,280.4l0.2,0.2L272.3,280.4 M320.5,280.4l0.2,0.2L320.5,280.4 M396.3,280.4l0.2,0.2L396.3,280.4 M188.3,280.6l0.2,0.2
	L188.3,280.6 M239.6,280.6l0.2,0.2L239.6,280.6 M320.6,280.6l0.2,0.2L320.6,280.6 M396.1,280.6l0.2,0.2L396.1,280.6 M444.8,280.6
	l0.2,0.2L444.8,280.6 M173,280.8l0.2,0.2L173,280.8 M188.5,280.8l0.2,0.2L188.5,280.8 M239.4,280.8l0.2,0.2L239.4,280.8
	 M271.7,280.8l0.2,0.2L271.7,280.8 M381.4,280.8l0.2,0.2L381.4,280.8 M445,280.8l0.2,0.2L445,280.8 M188.7,281l0.2,0.2L188.7,281
	 M239.2,281l0.2,0.2L239.2,281 M254.8,281l0.2,0.2L254.8,281 M271.6,281l0.2,0.2L271.6,281 M321.2,281l0.2,0.2L321.2,281 M395.5,281
	l0.2,0.2L395.5,281 M445.3,281l0.2,0.2L445.3,281 M173.2,281.1l0.2,0.2L173.2,281.1 M188.8,281.1l0.2,0.2L188.8,281.1 M239,281.1
	l0.2,0.2L239,281.1 M321.4,281.1l0.2,0.2L321.4,281.1 M395.4,281.1l0.2,0.2L395.4,281.1 M445.5,281.1l0.2,0.2L445.5,281.1
	 M189,281.3l0.2,0.2L189,281.3 M238.8,281.3l0.2,0.2L238.8,281.3 M254.6,281.3l0.2,0.2L254.6,281.3 M271,281.3l0.2,0.2L271,281.3
	 M381.2,281.3l0.2,0.2L381.2,281.3 M445.7,281.3l0.2,0.2L445.7,281.3 M173.4,281.5l0.2,0.2L173.4,281.5 M189.2,281.5l0.2,0.2
	L189.2,281.5 M238.6,281.5l0.2,0.2L238.6,281.5 M254.5,281.5l0.2,0.2L254.5,281.5 M270.8,281.5l0.2,0.2L270.8,281.5 M321.9,281.5
	l0.2,0.2L321.9,281.5 M394.8,281.5l0.2,0.2L394.8,281.5 M189.4,281.7l0.2,0.2L189.4,281.7 M238.5,281.7l0.2,0.2L238.5,281.7
	 M322.1,281.7l0.2,0.2L322.1,281.7 M381,281.7l0.2,0.2L381,281.7 M394.6,281.7l0.2,0.2L394.6,281.7 M446.3,281.7l0.2,0.2
	L446.3,281.7 M189.6,281.9l0.2,0.2L189.6,281.9 M238.3,281.9l0.2,0.2L238.3,281.9 M254.3,281.9l0.2,0.2L254.3,281.9 M270.3,281.9
	l0.2,0.2L270.3,281.9 M394.4,281.9l0.2,0.2L394.4,281.9 M446.4,281.9l0.2,0.2L446.4,281.9 M173.7,282l0.2,0.2L173.7,282 M189.7,282
	l0.2,0.2L189.7,282 M238.1,282l0.2,0.2L238.1,282 M254.1,282l0.2,0.2L254.1,282 M270.1,282l0.2,0.2L270.1,282 M173.9,282.2l0.2,0.2
	L173.9,282.2 M189.9,282.2l0.2,0.2L189.9,282.2 M237.9,282.2l0.2,0.2L237.9,282.2 M269.9,282.2l0.2,0.2L269.9,282.2 M322.8,282.2
	l0.2,0.2L322.8,282.2 M380.6,282.2l0.2,0.2L380.6,282.2 M393.9,282.2l0.2,0.2L393.9,282.2 M174.1,282.4l0.2,0.2L174.1,282.4
	 M190.1,282.4l0.2,0.2L190.1,282.4 M237.7,282.4l0.2,0.2L237.7,282.4 M323,282.4l0.2,0.2L323,282.4 M393.7,282.4l0.2,0.2
	L393.7,282.4 M447.2,282.4l0.2,0.2L447.2,282.4 M190.3,282.6l0.2,0.2L190.3,282.6 M237.6,282.6l0.2,0.2L237.6,282.6 M323.2,282.6
	l0.2,0.2L323.2,282.6 M393.5,282.6l0.2,0.2L393.5,282.6 M447.4,282.6l0.2,0.2L447.4,282.6 M190.5,282.8l0.2,0.2L190.5,282.8
	 M237.4,282.8l0.2,0.2L237.4,282.8 M269.2,282.8l0.2,0.2L269.2,282.8 M393.4,282.8l0.2,0.2L393.4,282.8 M447.5,282.8l0.2,0.2
	L447.5,282.8 M190.7,283l0.2,0.2L190.7,283 M237.2,283l0.2,0.2L237.2,283 M269,283l0.2,0.2L269,283 M380.1,283l0.2,0.2L380.1,283
	 M447.7,283l0.2,0.2L447.7,283 M190.8,283.1l0.2,0.2L190.8,283.1 M237,283.1l0.2,0.2L237,283.1 M268.8,283.1l0.2,0.2L268.8,283.1
	 M323.9,283.1l0.2,0.2L323.9,283.1 M191,283.3l0.2,0.2L191,283.3 M236.8,283.3l0.2,0.2L236.8,283.3 M268.6,283.3l0.2,0.2
	L268.6,283.3 M324.1,283.3l0.2,0.2L324.1,283.3z"/>
<path class="st3" d="M501.5,283.3l0.2,0.2L501.5,283.3z"/>
<path class="st4" d="M191.2,283.5l0.2,0.2L191.2,283.5 M236.6,283.5l0.2,0.2L236.6,283.5 M268.5,283.5l0.2,0.2L268.5,283.5
	 M324.3,283.5l0.2,0.2L324.3,283.5 M379.4,283.5l0.2,0.2L379.4,283.5 M392.4,283.5l0.2,0.2L392.4,283.5 M191.4,283.7l0.2,0.2
	L191.4,283.7 M236.5,283.7l0.2,0.2L236.5,283.7 M324.5,283.7l0.2,0.2L324.5,283.7 M379.2,283.7l0.2,0.2L379.2,283.7 M392.3,283.7
	l0.2,0.2L392.3,283.7 M448.6,283.7l0.2,0.2L448.6,283.7z"/>
<path class="st3" d="M135.8,283.9l0.2,0.2L135.8,283.9z"/>
<path class="st4" d="M191.6,283.9l0.2,0.2L191.6,283.9 M236.3,283.9l0.2,0.2L236.3,283.9 M324.6,283.9l0.2,0.2L324.6,283.9
	 M378.8,283.9l0.2,0.2L378.8,283.9 M392.1,283.9l0.2,0.2L392.1,283.9 M448.8,283.9l0.2,0.2L448.8,283.9 M236.1,284l0.2,0.2
	L236.1,284 M324.8,284l0.2,0.2L324.8,284 M378.4,284l0.2,0.2L378.4,284 M391.9,284l0.2,0.2L391.9,284 M449,284l0.2,0.2L449,284
	 M235.9,284.2l0.2,0.2L235.9,284.2 M325,284.2l0.2,0.2L325,284.2 M378,284.3l0.1,0.1L378,284.3 M391.7,284.2l0.2,0.2L391.7,284.2
	 M449.2,284.2l0.2,0.2L449.2,284.2 M235.7,284.4l0.2,0.2L235.7,284.4 M293.5,284.4v0.2h1.5L293.5,284.4z"/>
<path class="st4" d="M297.5,284.4v0.2h1.5L297.5,284.4 M377.5,284.5l0.1,0.1L377.5,284.5 M391.5,284.4l0.2,0.2L391.5,284.4
	 M449.3,284.4l0.2,0.2L449.3,284.4 M235.6,284.6l0.2,0.2L235.6,284.6 M292.1,284.6v0.2h0.7L292.1,284.6 M299.7,284.6v0.2h0.7
	L299.7,284.6 M376.1,284.6v0.2h0.9L376.1,284.6 M391.4,284.6l0.2,0.2L391.4,284.6 M417.4,284.6v0.2h1.1L417.4,284.6z"/>
<path class="st3" d="M134.3,294.4l0.2,0.2L134.3,294.4z"/>
<path class="st3" d="M133.9,298l0.2,0.2L133.9,298z"/>
<path class="st3" d="M133.8,300.2l0.2,0.2L133.8,300.2z"/>
<path class="st3" d="M133.6,302.8l0.2,0.2L133.6,302.8z"/>
<path class="st4" d="M217.4,302.8l0.2,0.2L217.4,302.8 M233.6,302.8l0.2,0.2L233.6,302.8 M268.5,302.8l0.2,0.2L268.5,302.8
	 M380.5,302.9l0.1,0.1L380.5,302.9 M460.5,302.9l0.1,0.1L460.5,302.9 M217.2,303l0.2,0.2L217.2,303 M233.4,303l0.2,0.2L233.4,303
	 M323.9,303l0.2,0.2L323.9,303 M392.9,303.1l0.1,0.1L392.9,303.1 M217,303.1l0.2,0.2L217,303.1 M233.2,303.1l0.2,0.2L233.2,303.1
	 M256.3,303.3l0.1,0.1L256.3,303.3 M448.1,303.1l0.2,0.2L448.1,303.1 M216.8,303.3l0.2,0.2L216.8,303.3 M233,303.3l0.2,0.2
	L233,303.3 M268.3,303.3l0.2,0.2L268.3,303.3 M324.1,303.3l0.2,0.2L324.1,303.3 M336.3,303.3l0.2,0.2L336.3,303.3 M216.6,303.5
	l0.2,0.2L216.6,303.5 M232.8,303.5l0.2,0.2L232.8,303.5 M380.3,303.5l0.2,0.2L380.3,303.5 M392.6,303.5l0.2,0.2L392.6,303.5
	 M448.3,303.6l0.1,0.1L448.3,303.6 M460.7,303.6l0.1,0.1L460.7,303.6 M216.5,303.7l0.2,0.2L216.5,303.7 M232.6,303.7l0.2,0.2
	L232.6,303.7 M268.2,303.8l0.1,0.1L268.2,303.8 M216.3,303.9l0.2,0.2L216.3,303.9 M232.5,303.9l0.2,0.2L232.5,303.9 M256.2,304
	l0.1,0.1L256.2,304 M324.3,303.9l0.2,0.2L324.3,303.9 M336.5,304l0.1,0.1L336.5,304 M392.5,304l0.1,0.1L392.5,304 M216.1,304
	l0.2,0.2L216.1,304 M232.3,304l0.2,0.2L232.3,304 M380.1,304.2l0.1,0.1L380.1,304.2 M419,304v0.2h0.5L419,304z"/>
<path class="st3" d="M133.3,317.3l0.1,0.1L133.3,317.3z"/>
<path class="st4" d="M203,317.1l0.2,0.2L203,317.1 M332.3,317.1l0.2,0.2L332.3,317.1 M202.8,317.3l0.2,0.2L202.8,317.3 M331.9,317.3
	l0.2,0.2L331.9,317.3 M379,317.3v1.1h0.2L379,317.3 M390.8,317.3v0.7h0.2L390.8,317.3 M430.3,317.4l0.1,0.1L430.3,317.4
	 M202.6,317.5l0.2,0.2L202.6,317.5 M331.5,317.5l0.2,0.2L331.5,317.5 M410.6,317.5l0.2,0.2L410.6,317.5 M202.5,317.7l0.2,0.2
	L202.5,317.7 M331.2,317.7l0.2,0.2L331.2,317.7 M202.3,317.9l0.2,0.2L202.3,317.9 M330.8,317.9l0.2,0.2L330.8,317.9 M410.9,318
	l0.1,0.1L410.9,318 M430.1,317.9l0.2,0.2L430.1,317.9 M202.1,318l0.2,0.2L202.1,318 M330.3,318l0.2,0.2L330.3,318 M201.9,318.2
	l0.2,0.2L201.9,318.2 M329.7,318.2l0.2,0.2L329.7,318.2 M201.7,318.4l0.2,0.2L201.7,318.4 M329.1,318.5l0.1,0.1L329.1,318.5
	 M411,318.4l0.2,0.2L411,318.4 M429.9,318.4l0.2,0.2L429.9,318.4 M201.6,318.6l0.2,0.2L201.6,318.6 M328.2,318.6l0.1,0.1
	L328.2,318.6 M449.9,318.6v0.5h0.2L449.9,318.6 M201.4,318.8l0.2,0.2L201.4,318.8 M326.1,318.8v0.2h1.3L326.1,318.8 M391,318.8v0.5
	h0.2L391,318.8 M411.2,318.8l0.2,0.2L411.2,318.8 M429.7,318.8l0.2,0.2L429.7,318.8 M201.2,319l0.2,0.2L201.2,319 M255,319v0.9h0.2
	L255,319 M201,319.1l0.2,0.2L201,319.1 M266.6,319.1v0.7h0.2L266.6,319.1 M411.4,319.1l0.2,0.2L411.4,319.1 M429.5,319.1l0.2,0.2
	L429.5,319.1 M461.7,319.1v0.5h0.2L461.7,319.1 M200.8,319.3l0.2,0.2L200.8,319.3 M379.2,319.3v0.5h0.2L379.2,319.3 M200.7,319.5
	l0.2,0.2L200.7,319.5 M411.5,319.5l0.2,0.2L411.5,319.5 M429.4,319.5l0.2,0.2L429.4,319.5 M200.5,319.7l0.2,0.2L200.5,319.7
	 M429.2,319.7l0.2,0.2L429.2,319.7 M449.7,319.7v0.5h0.2L449.7,319.7 M200.3,319.9l0.2,0.2L200.3,319.9 M391.2,319.9v0.5h0.2
	L391.2,319.9 M200.1,320l0.2,0.2L200.1,320 M411.9,320l0.2,0.2L411.9,320 M429,320l0.2,0.2L429,320 M199.9,320.2l0.2,0.2
	L199.9,320.2 M428.8,320.2l0.2,0.2L428.8,320.2 M199.7,320.4l0.2,0.2L199.7,320.4 M255.2,320.4v0.7h0.2L255.2,320.4 M266.9,320.5
	l0.1,0.1L266.9,320.5 M461.5,320.4v0.5h0.2L461.5,320.4 M199.6,320.6l0.2,0.2L199.6,320.6 M379.4,320.6v0.5h0.2L379.4,320.6
	 M412.3,320.6l0.2,0.2L412.3,320.6 M428.6,320.6l0.2,0.2L428.6,320.6 M449.6,320.7l0.1,0.1L449.6,320.7 M199.4,320.8l0.2,0.2
	L199.4,320.8 M391.4,320.9l0.1,0.1L391.4,320.9 M412.4,320.8l0.2,0.2L412.4,320.8 M428.4,320.8l0.2,0.2L428.4,320.8 M199.2,321
	l0.2,0.2L199.2,321 M412.6,321l0.2,0.2L412.6,321 M428.3,321l0.2,0.2L428.3,321 M199,321.1l0.2,0.2L199,321.1 M428.1,321.1l0.2,0.2
	L428.1,321.1z"/>
<path class="st3" d="M504.1,321.1l0.2,0.2L504.1,321.1z"/>
<path class="st3" d="M503.9,325.3l0.2,0.2L503.9,325.3z"/>
<path class="st4" d="M194.7,325.5l0.2,0.2L194.7,325.5 M210.8,325.5l0.2,0.2L210.8,325.5 M392.8,325.5l0.2,0.2L392.8,325.5
	 M460.5,325.6l0.1,0.1L460.5,325.6 M194.5,325.7l0.2,0.2L194.5,325.7 M210.7,325.7l0.2,0.2L210.7,325.7 M233.4,325.7l0.2,0.2
	L233.4,325.7 M256.3,325.8l0.1,0.1L256.3,325.8 M268.5,325.8l0.1,0.1L268.5,325.8 M380.5,325.8l0.1,0.1L380.5,325.8 M194.3,325.9
	l0.2,0.2L194.3,325.9 M210.5,325.9l0.2,0.2L210.5,325.9 M233.6,325.9l0.2,0.2L233.6,325.9 M393.1,326l0.1,0.1L393.1,326
	 M447.9,325.9l0.2,0.2L447.9,325.9 M194.1,326l0.2,0.2L194.1,326 M210.3,326l0.2,0.2L210.3,326 M233.7,326l0.2,0.2L233.7,326
	 M193.9,326.2l0.2,0.2L193.9,326.2 M210.1,326.2l0.2,0.2L210.1,326.2 M233.9,326.2l0.2,0.2L233.9,326.2 M256.5,326.3l0.1,0.1
	L256.5,326.3 M268.6,326.2l0.2,0.2L268.6,326.2 M380.7,326.3l0.1,0.1L380.7,326.3 M447.7,326.2l0.2,0.2L447.7,326.2 M460.3,326.3
	l0.1,0.1L460.3,326.3 M193.7,326.4l0.2,0.2L193.7,326.4 M209.9,326.4l0.2,0.2L209.9,326.4 M234.1,326.4l0.2,0.2L234.1,326.4
	 M393.2,326.4l0.2,0.2L393.2,326.4 M193.6,326.6l0.2,0.2L193.6,326.6 M209.7,326.6l0.2,0.2L209.7,326.6 M234.3,326.6l0.2,0.2
	L234.3,326.6 M268.8,326.6l0.2,0.2L268.8,326.6 M447.5,326.6l0.2,0.2L447.5,326.6z"/>
<path class="st3" d="M133.6,326.8l0.2,0.2L133.6,326.8z"/>
<path class="st4" d="M193.4,326.8l0.2,0.2L193.4,326.8 M209.6,326.8l0.2,0.2L209.6,326.8 M234.5,326.8l0.2,0.2L234.5,326.8
	 M393.4,326.8l0.2,0.2L393.4,326.8 M460.1,326.9l0.1,0.1L460.1,326.9 M193.2,327l0.2,0.2L193.2,327 M209.4,327l0.2,0.2L209.4,327
	 M234.6,327l0.2,0.2L234.6,327 M256.6,327l0.2,0.2L256.6,327 M269,327l0.2,0.2L269,327 M380.8,327l0.2,0.2L380.8,327 M193,327.1
	l0.2,0.2L193,327.1 M209.2,327.1l0.2,0.2L209.2,327.1 M234.8,327.1l0.2,0.2L234.8,327.1 M393.5,327.1l0.2,0.2L393.5,327.1
	 M447.4,327.1l0.2,0.2L447.4,327.1 M192.8,327.3l0.2,0.2L192.8,327.3 M209,327.3l0.2,0.2L209,327.3 M235,327.3l0.2,0.2L235,327.3
	 M269.2,327.3l0.2,0.2L269.2,327.3 M460,327.4l0.1,0.1L460,327.4 M192.7,327.5l0.2,0.2L192.7,327.5 M208.8,327.5l0.2,0.2
	L208.8,327.5 M235.2,327.5l0.2,0.2L235.2,327.5 M256.8,327.5l0.2,0.2L256.8,327.5 M381,327.5l0.2,0.2L381,327.5 M393.7,327.5
	l0.2,0.2L393.7,327.5 M447.2,327.5l0.2,0.2L447.2,327.5 M192.5,327.7l0.2,0.2L192.5,327.7 M208.7,327.7l0.2,0.2L208.7,327.7
	 M235.4,327.7l0.2,0.2L235.4,327.7 M269.4,327.7l0.2,0.2L269.4,327.7 M192.3,327.9l0.2,0.2L192.3,327.9 M208.5,327.9l0.2,0.2
	L208.5,327.9 M235.6,327.9l0.2,0.2L235.6,327.9 M393.9,327.9l0.2,0.2L393.9,327.9 M447,327.9l0.2,0.2L447,327.9 M459.8,328l0.1,0.1
	L459.8,328 M192.1,328l0.2,0.2L192.1,328 M208.3,328l0.2,0.2L208.3,328 M235.7,328l0.2,0.2L235.7,328 M257,328l0.2,0.2L257,328
	 M269.6,328l0.2,0.2L269.6,328 M381.2,328l0.2,0.2L381.2,328 M191.9,328.2l0.2,0.2L191.9,328.2 M208.1,328.2l0.2,0.2L208.1,328.2
	 M235.9,328.2l0.2,0.2L235.9,328.2 M394.1,328.2l0.2,0.2L394.1,328.2 M446.8,328.2l0.2,0.2L446.8,328.2 M191.7,328.4l0.2,0.2
	L191.7,328.4 M207.9,328.4l0.2,0.2L207.9,328.4 M236.1,328.4l0.2,0.2L236.1,328.4 M257.2,328.5l0.1,0.1L257.2,328.5 M269.7,328.4
	l0.2,0.2L269.7,328.4 M459.6,328.5l0.1,0.1L459.6,328.5 M191.6,328.6l0.2,0.2L191.6,328.6 M207.7,328.6l0.2,0.2L207.7,328.6
	 M236.3,328.6l0.2,0.2L236.3,328.6 M269.9,328.6l0.2,0.2L269.9,328.6 M381.4,328.6l0.2,0.2L381.4,328.6 M394.3,328.6l0.2,0.2
	L394.3,328.6 M191.4,328.8l0.2,0.2L191.4,328.8 M207.6,328.8l0.2,0.2L207.6,328.8 M236.5,328.8l0.2,0.2L236.5,328.8 M446.4,328.8
	l0.2,0.2L446.4,328.8 M191.2,329l0.2,0.2L191.2,329 M207.4,329l0.2,0.2L207.4,329 M236.6,329l0.2,0.2L236.6,329 M257.4,329.1
	l0.1,0.1L257.4,329.1 M270.1,329l0.2,0.2L270.1,329 M381.5,329l0.2,0.2L381.5,329 M394.4,329l0.2,0.2L394.4,329 M459.3,329l0.2,0.2
	L459.3,329 M191,329.1l0.2,0.2L191,329.1 M207.2,329.1l0.2,0.2L207.2,329.1 M236.8,329.1l0.2,0.2L236.8,329.1 M324.1,329.1v0.2h0.7
	L324.1,329.1 M325.9,329.1v0.2h0.5L325.9,329.1 M394.6,329.1l0.2,0.2L394.6,329.1 M446.3,329.1l0.2,0.2L446.3,329.1 M190.8,329.3
	l0.2,0.2L190.8,329.3 M207,329.3l0.2,0.2L207,329.3 M237,329.3l0.2,0.2L237,329.3 M270.3,329.3l0.2,0.2L270.3,329.3 M323.5,329.3
	l0.2,0.2L323.5,329.3 M326.8,329.3l0.2,0.2L326.8,329.3 M459.2,329.4l0.1,0.1L459.2,329.4 M190.7,329.5l0.2,0.2L190.7,329.5
	 M206.8,329.5l0.2,0.2L206.8,329.5 M237.2,329.5l0.2,0.2L237.2,329.5 M257.6,329.5l0.2,0.2L257.6,329.5 M323.1,329.6l0.1,0.1
	L323.1,329.6 M327.4,329.5l0.2,0.2L327.4,329.5 M381.7,329.5l0.2,0.2L381.7,329.5 M394.8,329.5l0.2,0.2L394.8,329.5 M446.1,329.5
	l0.2,0.2L446.1,329.5 M190.5,329.7l0.2,0.2L190.5,329.7 M206.6,329.7l0.2,0.2L206.6,329.7 M237.4,329.7l0.2,0.2L237.4,329.7
	 M322.6,329.7l0.2,0.2L322.6,329.7 M327.7,329.7l0.2,0.2L327.7,329.7 M445.9,329.7l0.2,0.2L445.9,329.7 M190.3,329.9l0.2,0.2
	L190.3,329.9 M206.5,329.9l0.2,0.2L206.5,329.9 M237.6,329.9l0.2,0.2L237.6,329.9 M257.8,330l0.1,0.1L257.8,330 M270.6,329.9
	l0.2,0.2L270.6,329.9 M322.5,329.9l0.2,0.2L322.5,329.9 M328.1,329.9l0.2,0.2L328.1,329.9 M381.9,329.9l0.2,0.2L381.9,329.9
	 M395,329.9l0.2,0.2L395,329.9 M459,329.9l0.2,0.2L459,329.9 M190.1,330l0.2,0.2L190.1,330 M206.3,330l0.2,0.2L206.3,330 M237.7,330
	l0.2,0.2L237.7,330 M322.1,330l0.2,0.2L322.1,330 M328.5,330l0.2,0.2L328.5,330 M395.2,330l0.2,0.2L395.2,330 M445.7,330l0.2,0.2
	L445.7,330 M189.9,330.2l0.2,0.2L189.9,330.2 M206.1,330.2l0.2,0.2L206.1,330.2 M237.9,330.2l0.2,0.2L237.9,330.2 M270.8,330.2
	l0.2,0.2L270.8,330.2 M321.9,330.2l0.2,0.2L321.9,330.2 M328.6,330.2l0.2,0.2L328.6,330.2 M458.9,330.3l0.1,0.1L458.9,330.3
	 M189.7,330.4l0.2,0.2L189.7,330.4 M205.9,330.4l0.2,0.2L205.9,330.4 M238.1,330.4l0.2,0.2L238.1,330.4 M257.9,330.4l0.2,0.2
	L257.9,330.4 M271,330.4l0.2,0.2L271,330.4 M382.1,330.4l0.2,0.2L382.1,330.4 M395.4,330.4l0.2,0.2L395.4,330.4 M189.6,330.6
	l0.2,0.2L189.6,330.6 M205.7,330.6l0.2,0.2L205.7,330.6 M238.3,330.6l0.2,0.2L238.3,330.6 M329.2,330.6l0.2,0.2L329.2,330.6
	 M395.5,330.6l0.2,0.2L395.5,330.6 M445.3,330.6l0.2,0.2L445.3,330.6 M189.4,330.8l0.2,0.2L189.4,330.8 M205.6,330.8l0.2,0.2
	L205.6,330.8 M238.5,330.8l0.2,0.2L238.5,330.8 M258.1,330.8l0.2,0.2L258.1,330.8 M271.2,330.8l0.2,0.2L271.2,330.8 M329.4,330.8
	l0.2,0.2L329.4,330.8 M382.3,330.8l0.2,0.2L382.3,330.8 M458.6,330.8l0.2,0.2L458.6,330.8 M189.2,331l0.2,0.2L189.2,331 M205.4,331
	l0.2,0.2L205.4,331 M238.6,331l0.2,0.2L238.6,331 M271.4,331l0.2,0.2L271.4,331 M321,331l0.2,0.2L321,331 M329.5,331l0.2,0.2
	L329.5,331 M395.7,331l0.2,0.2L395.7,331 M445.2,331l0.2,0.2L445.2,331 M189,331.1l0.2,0.2L189,331.1 M205.2,331.1l0.2,0.2
	L205.2,331.1 M238.8,331.1l0.2,0.2L238.8,331.1 M258.3,331.1l0.2,0.2L258.3,331.1 M382.4,331.1l0.2,0.2L382.4,331.1 M395.9,331.1
	l0.2,0.2L395.9,331.1 M445,331.1l0.2,0.2L445,331.1 M458.4,331.1l0.2,0.2L458.4,331.1 M188.8,331.3l0.2,0.2L188.8,331.3 M205,331.3
	l0.2,0.2L205,331.3 M239,331.3l0.2,0.2L239,331.3 M271.6,331.3l0.2,0.2L271.6,331.3 M188.7,331.5l0.2,0.2L188.7,331.5 M204.8,331.5
	l0.2,0.2L204.8,331.5 M239.2,331.5l0.2,0.2L239.2,331.5 M271.7,331.5l0.2,0.2L271.7,331.5 M329.9,331.5l0.2,0.2L329.9,331.5
	 M382.7,331.6l0.1,0.1L382.7,331.6 M396.1,331.5l0.2,0.2L396.1,331.5 M458.3,331.5l0.2,0.2L458.3,331.5 M188.5,331.7l0.2,0.2
	L188.5,331.7 M204.7,331.7l0.2,0.2L204.7,331.7 M239.4,331.7l0.2,0.2L239.4,331.7 M258.5,331.7l0.2,0.2L258.5,331.7 M320.5,331.7
	l0.2,0.2L320.5,331.7 M330.1,331.7l0.2,0.2L330.1,331.7 M396.3,331.7l0.2,0.2L396.3,331.7 M444.6,331.7l0.2,0.2L444.6,331.7
	 M188.3,331.9l0.2,0.2L188.3,331.9 M204.5,331.9l0.2,0.2L204.5,331.9 M239.6,331.9l0.2,0.2L239.6,331.9 M320.3,331.9l0.2,0.2
	L320.3,331.9 M444.4,331.9l0.2,0.2L444.4,331.9 M458.1,331.9l0.2,0.2L458.1,331.9 M188.1,332l0.2,0.2L188.1,332 M204.3,332l0.2,0.2
	L204.3,332 M239.7,332l0.2,0.2L239.7,332 M258.6,332l0.2,0.2L258.6,332 M272.1,332l0.2,0.2L272.1,332 M330.3,332l0.2,0.2L330.3,332
	 M382.8,332l0.2,0.2L382.8,332 M187.9,332.2l0.2,0.2L187.9,332.2 M204.1,332.2l0.2,0.2L204.1,332.2 M239.9,332.2l0.2,0.2
	L239.9,332.2 M272.3,332.2l0.2,0.2L272.3,332.2 M396.6,332.2l0.2,0.2L396.6,332.2 M444.3,332.2l0.2,0.2L444.3,332.2 M187.7,332.4
	l0.2,0.2L187.7,332.4 M203.9,332.4l0.2,0.2L203.9,332.4 M240.1,332.4l0.2,0.2L240.1,332.4 M258.8,332.4l0.2,0.2L258.8,332.4
	 M319.9,332.4l0.2,0.2L319.9,332.4 M330.5,332.4l0.2,0.2L330.5,332.4 M383,332.4l0.2,0.2L383,332.4 M396.8,332.4l0.2,0.2
	L396.8,332.4 M444.1,332.4l0.2,0.2L444.1,332.4 M457.9,332.4l0.2,0.2L457.9,332.4 M187.6,332.6l0.2,0.2L187.6,332.6 M203.7,332.6
	l0.2,0.2L203.7,332.6 M240.3,332.6l0.2,0.2L240.3,332.6 M319.7,332.6l0.2,0.2L319.7,332.6 M443.9,332.6l0.2,0.2L443.9,332.6z"/>
<path class="st3" d="M503.3,332.6l0.2,0.2L503.3,332.6z"/>
<path class="st4" d="M187.4,332.8l0.2,0.2L187.4,332.8 M203.6,332.8l0.2,0.2L203.6,332.8 M240.5,332.8l0.2,0.2L240.5,332.8
	 M259,332.8l0.2,0.2L259,332.8 M272.6,332.8l0.2,0.2L272.6,332.8 M330.7,332.9l0.1,0.1L330.7,332.9 M383.2,332.8l0.2,0.2
	L383.2,332.8 M457.7,332.8l0.2,0.2L457.7,332.8 M187.2,333l0.2,0.2L187.2,333 M203.4,333l0.2,0.2L203.4,333 M240.6,333l0.2,0.2
	L240.6,333 M272.8,333l0.2,0.2L272.8,333 M397.2,333l0.2,0.2L397.2,333 M187,333.1l0.2,0.2L187,333.1 M203.2,333.1l0.2,0.2
	L203.2,333.1 M240.8,333.1l0.2,0.2L240.8,333.1 M259.2,333.1l0.2,0.2L259.2,333.1 M273,333.1l0.2,0.2L273,333.1 M319.4,333.1
	l0.2,0.2L319.4,333.1 M383.4,333.1l0.2,0.2L383.4,333.1 M397.4,333.1l0.2,0.2L397.4,333.1 M443.5,333.1l0.2,0.2L443.5,333.1
	 M457.5,333.1l0.2,0.2L457.5,333.1 M186.8,333.3l0.2,0.2L186.8,333.3 M203,333.3l0.2,0.2L203,333.3 M241,333.3l0.2,0.2L241,333.3
	 M319.2,333.3l0.2,0.2L319.2,333.3 M330.8,333.3v0.5h0.2L330.8,333.3 M397.5,333.3l0.2,0.2L397.5,333.3 M443.4,333.3l0.2,0.2
	L443.4,333.3 M457.3,333.3l0.2,0.2L457.3,333.3z"/>
<path class="st3" d="M134.1,333.5l0.2,0.2L134.1,333.5z"/>
<path class="st4" d="M186.7,333.5l0.2,0.2L186.7,333.5 M202.8,333.5l0.2,0.2L202.8,333.5 M241.2,333.5l0.2,0.2L241.2,333.5
	 M259.4,333.5l0.2,0.2L259.4,333.5 M383.5,333.5l0.2,0.2L383.5,333.5 M443.2,333.5l0.2,0.2L443.2,333.5 M186.5,333.7l0.2,0.2
	L186.5,333.7 M202.6,333.7l0.2,0.2L202.6,333.7 M241.4,333.7l0.2,0.2L241.4,333.7 M273.4,333.7l0.2,0.2L273.4,333.7 M443,333.7
	l0.2,0.2L443,333.7 M457.2,333.7l0.2,0.2L457.2,333.7 M186.3,333.9l0.2,0.2L186.3,333.9 M202.5,333.9l0.2,0.2L202.5,333.9
	 M241.6,333.9l0.2,0.2L241.6,333.9 M259.6,333.9l0.2,0.2L259.6,333.9 M273.6,333.9l0.2,0.2L273.6,333.9 M383.7,333.9l0.2,0.2
	L383.7,333.9 M186.1,334l0.2,0.2L186.1,334 M202.3,334l0.2,0.2L202.3,334 M241.7,334l0.2,0.2L241.7,334 M273.7,334l0.2,0.2
	L273.7,334 M318.6,334l0.2,0.2L318.6,334 M457,334l0.2,0.2L457,334 M185.9,334.2l0.2,0.2L185.9,334.2 M202.1,334.2l0.2,0.2
	L202.1,334.2 M241.9,334.2l0.2,0.2L241.9,334.2 M259.7,334.2l0.2,0.2L259.7,334.2 M273.9,334.2l0.2,0.2L273.9,334.2 M318.5,334.2
	l0.2,0.2L318.5,334.2 M383.9,334.2l0.2,0.2L383.9,334.2 M398.3,334.2l0.2,0.2L398.3,334.2 M185.7,334.4l0.2,0.2L185.7,334.4
	 M201.9,334.4l0.2,0.2L201.9,334.4 M242.1,334.4l0.2,0.2L242.1,334.4 M259.9,334.4l0.2,0.2L259.9,334.4 M318.3,334.4l0.2,0.2
	L318.3,334.4 M331,334.4v1.1h0.2L331,334.4 M384.1,334.4l0.2,0.2L384.1,334.4 M398.4,334.4l0.2,0.2L398.4,334.4 M442.4,334.4
	l0.2,0.2L442.4,334.4 M456.8,334.4l0.2,0.2L456.8,334.4 M185.6,334.6l0.2,0.2L185.6,334.6 M201.7,334.6l0.2,0.2L201.7,334.6
	 M242.3,334.6l0.2,0.2L242.3,334.6 M318.1,334.6l0.2,0.2L318.1,334.6 M398.6,334.6l0.2,0.2L398.6,334.6 M442.3,334.6l0.2,0.2
	L442.3,334.6 M185.4,334.8l0.2,0.2L185.4,334.8 M201.6,334.8l0.2,0.2L201.6,334.8 M242.5,334.8l0.2,0.2L242.5,334.8 M260.1,334.8
	l0.2,0.2L260.1,334.8 M317.9,334.8l0.2,0.2L317.9,334.8 M384.3,334.8l0.2,0.2L384.3,334.8 M398.8,334.8l0.2,0.2L398.8,334.8
	 M442.1,334.8l0.2,0.2L442.1,334.8 M456.6,334.8l0.2,0.2L456.6,334.8 M185.2,335l0.2,0.2L185.2,335 M201.4,335l0.2,0.2L201.4,335
	 M242.6,335l0.2,0.2L242.6,335 M399,335l0.2,0.2L399,335 M441.9,335l0.2,0.2L441.9,335 M185,335.1l0.2,0.2L185,335.1 M201.2,335.1
	l0.2,0.2L201.2,335.1 M242.8,335.1l0.2,0.2L242.8,335.1 M260.3,335.1l0.2,0.2L260.3,335.1 M384.4,335.1l0.2,0.2L384.4,335.1
	 M399.2,335.1l0.2,0.2L399.2,335.1 M441.7,335.1l0.2,0.2L441.7,335.1 M456.4,335.1l0.2,0.2L456.4,335.1 M184.8,335.3l0.2,0.2
	L184.8,335.3 M201,335.3l0.2,0.2L201,335.3 M243,335.3l0.2,0.2L243,335.3 M399.4,335.3l0.2,0.2L399.4,335.3 M441.5,335.3l0.2,0.2
	L441.5,335.3 M456.3,335.3l0.2,0.2L456.3,335.3 M184.7,335.5l0.2,0.2L184.7,335.5 M200.8,335.5l0.2,0.2L200.8,335.5 M243.2,335.5
	l0.2,0.2L243.2,335.5 M260.5,335.5l0.2,0.2L260.5,335.5 M399.5,335.5l0.2,0.2L399.5,335.5 M441.3,335.5l0.2,0.2L441.3,335.5
	 M184.5,335.7l0.2,0.2L184.5,335.7 M200.7,335.7l0.2,0.2L200.7,335.7 M243.4,335.7l0.2,0.2L243.4,335.7 M260.6,335.7l0.2,0.2
	L260.6,335.7 M384.8,335.7l0.2,0.2L384.8,335.7 M399.7,335.7l0.2,0.2L399.7,335.7 M441.2,335.7l0.2,0.2L441.2,335.7 M456.1,335.7
	l0.2,0.2L456.1,335.7 M184.3,335.9l0.2,0.2L184.3,335.9 M200.5,335.9l0.2,0.2L200.5,335.9 M243.6,335.9l0.2,0.2L243.6,335.9
	 M399.9,335.9l0.2,0.2L399.9,335.9 M441,335.9l0.2,0.2L441,335.9 M184.1,336l0.2,0.2L184.1,336 M200.3,336l0.2,0.2L200.3,336
	 M243.7,336l0.2,0.2L243.7,336 M260.8,336l0.2,0.2L260.8,336 M385,336l0.2,0.2L385,336 M400.1,336l0.2,0.2L400.1,336 M440.8,336
	l0.2,0.2L440.8,336 M455.9,336l0.2,0.2L455.9,336z"/>
<path class="st3" d="M503,336l0.2,0.2L503,336z"/>
<path class="st4" d="M183.9,336.2l0.2,0.2L183.9,336.2 M200.1,336.2l0.2,0.2L200.1,336.2 M243.9,336.2l0.2,0.2L243.9,336.2
	 M316.5,336.2l0.2,0.2L316.5,336.2 M330.9,336.3l0.1,0.1L330.9,336.3 M400.3,336.2l0.2,0.2L400.3,336.2 M440.6,336.2l0.2,0.2
	L440.6,336.2 M455.7,336.2l0.2,0.2L455.7,336.2 M183.7,336.4l0.2,0.2L183.7,336.4 M199.9,336.4l0.2,0.2L199.9,336.4 M244.1,336.4
	l0.2,0.2L244.1,336.4 M316.3,336.4l0.2,0.2L316.3,336.4 M400.4,336.4l0.2,0.2L400.4,336.4 M183.6,336.6l0.2,0.2L183.6,336.6
	 M199.7,336.6l0.2,0.2L199.7,336.6 M244.3,336.6l0.2,0.2L244.3,336.6 M261.2,336.6l0.2,0.2L261.2,336.6 M316.1,336.6l0.2,0.2
	L316.1,336.6 M385.4,336.6l0.2,0.2L385.4,336.6 M400.6,336.6l0.2,0.2L400.6,336.6 M455.5,336.6l0.2,0.2L455.5,336.6 M183.4,336.8
	l0.2,0.2L183.4,336.8 M199.6,336.8l0.2,0.2L199.6,336.8 M244.5,336.8l0.2,0.2L244.5,336.8 M276.5,336.8l0.2,0.2L276.5,336.8
	 M315.9,336.8l0.2,0.2L315.9,336.8 M455.3,336.8l0.2,0.2L455.3,336.8 M183.2,337l0.2,0.2L183.2,337 M199.4,337l0.2,0.2L199.4,337
	 M244.6,337l0.2,0.2L244.6,337 M261.4,337l0.2,0.2L261.4,337 M276.6,337l0.2,0.2L276.6,337 M315.7,337l0.2,0.2L315.7,337 M330.6,337
	l0.2,0.2L330.6,337 M439.7,337l0.2,0.2L439.7,337 M183,337.1l0.2,0.2L183,337.1 M199.2,337.1l0.2,0.2L199.2,337.1 M244.8,337.1
	l0.2,0.2L244.8,337.1 M261.6,337.1l0.2,0.2L261.6,337.1 M276.8,337.1l0.2,0.2L276.8,337.1 M315.5,337.1l0.2,0.2L315.5,337.1
	 M385.7,337.1l0.2,0.2L385.7,337.1 M401.4,337.1l0.2,0.2L401.4,337.1 M439.5,337.1l0.2,0.2L439.5,337.1 M455.2,337.1l0.2,0.2
	L455.2,337.1 M182.8,337.3l0.2,0.2L182.8,337.3 M199,337.3l0.2,0.2L199,337.3 M245,337.3l0.2,0.2L245,337.3 M277,337.3l0.2,0.2
	L277,337.3 M401.5,337.3l0.2,0.2L401.5,337.3 M439.4,337.3l0.2,0.2L439.4,337.3 M182.7,337.5l0.2,0.2L182.7,337.5 M198.8,337.5
	l0.2,0.2L198.8,337.5 M245.2,337.5l0.2,0.2L245.2,337.5 M261.7,337.5l0.2,0.2L261.7,337.5 M277.2,337.5l0.2,0.2L277.2,337.5
	 M330.5,337.5l0.2,0.2L330.5,337.5 M385.9,337.5l0.2,0.2L385.9,337.5 M401.7,337.5l0.2,0.2L401.7,337.5 M182.5,337.7l0.2,0.2
	L182.5,337.7 M198.7,337.7l0.2,0.2L198.7,337.7 M245.4,337.7l0.2,0.2L245.4,337.7 M261.9,337.7l0.2,0.2L261.9,337.7 M314.8,337.7
	l0.2,0.2L314.8,337.7 M386.1,337.7l0.2,0.2L386.1,337.7 M438.8,337.7l0.2,0.2L438.8,337.7 M454.8,337.7l0.2,0.2L454.8,337.7
	 M182.3,337.9l0.2,0.2L182.3,337.9 M198.5,337.9l0.2,0.2L198.5,337.9 M245.6,337.9l0.2,0.2L245.6,337.9 M277.7,337.9l0.2,0.2
	L277.7,337.9 M314.6,337.9l0.2,0.2L314.6,337.9 M330.3,337.9l0.2,0.2L330.3,337.9 M402.3,337.9l0.2,0.2L402.3,337.9 M438.6,337.9
	l0.2,0.2L438.6,337.9 M454.6,337.9l0.2,0.2L454.6,337.9 M182.1,338l0.2,0.2L182.1,338 M198.3,338l0.2,0.2L198.3,338 M245.7,338
	l0.2,0.2L245.7,338 M277.9,338l0.2,0.2L277.9,338 M314.5,338l0.2,0.2L314.5,338 M402.4,338l0.2,0.2L402.4,338 M438.4,338l0.2,0.2
	L438.4,338 M181.9,338.2l0.2,0.2L181.9,338.2 M198.1,338.2l0.2,0.2L198.1,338.2 M245.9,338.2l0.2,0.2L245.9,338.2 M262.3,338.2
	l0.2,0.2L262.3,338.2 M278.1,338.2l0.2,0.2L278.1,338.2 M330.1,338.2l0.2,0.2L330.1,338.2 M386.4,338.2l0.2,0.2L386.4,338.2
	 M402.6,338.2l0.2,0.2L402.6,338.2 M454.4,338.2l0.2,0.2L454.4,338.2 M181.7,338.4l0.2,0.2L181.7,338.4 M197.9,338.4l0.2,0.2
	L197.9,338.4 M246.1,338.4l0.2,0.2L246.1,338.4 M313.9,338.4l0.2,0.2L313.9,338.4 M386.6,338.4l0.2,0.2L386.6,338.4 M403,338.4
	l0.2,0.2L403,338.4 M437.9,338.4l0.2,0.2L437.9,338.4 M454.3,338.4l0.2,0.2L454.3,338.4 M181.6,338.6l0.2,0.2L181.6,338.6
	 M197.7,338.6l0.2,0.2L197.7,338.6 M246.3,338.6l0.2,0.2L246.3,338.6 M278.6,338.6l0.2,0.2L278.6,338.6 M313.7,338.6l0.2,0.2
	L313.7,338.6 M403.2,338.6l0.2,0.2L403.2,338.6 M437.7,338.6l0.2,0.2L437.7,338.6 M181.4,338.8l0.2,0.2L181.4,338.8 M197.6,338.8
	l0.2,0.2L197.6,338.8 M246.5,338.8l0.2,0.2L246.5,338.8 M262.6,338.8l0.2,0.2L262.6,338.8 M278.8,338.8l0.2,0.2L278.8,338.8
	 M329.7,338.8l0.2,0.2L329.7,338.8 M386.8,338.8l0.2,0.2L386.8,338.8 M437.4,338.8l0.2,0.2L437.4,338.8 M181.2,339l0.2,0.2
	L181.2,339 M197.4,339l0.2,0.2L197.4,339 M246.6,339l0.2,0.2L246.6,339 M262.8,339l0.2,0.2L262.8,339 M279.2,339l0.2,0.2L279.2,339
	 M313.2,339l0.2,0.2L313.2,339 M329.5,339l0.2,0.2L329.5,339 M387,339l0.2,0.2L387,339 M403.7,339l0.2,0.2L403.7,339 M437.2,339
	l0.2,0.2L437.2,339 M453.9,339l0.2,0.2L453.9,339 M181,339.1l0.2,0.2L181,339.1 M197.2,339.1l0.2,0.2L197.2,339.1 M246.8,339.1
	l0.2,0.2L246.8,339.1 M279.4,339.1l0.2,0.2L279.4,339.1 M313,339.1l0.2,0.2L313,339.1 M436.8,339.1l0.2,0.2L436.8,339.1
	 M453.7,339.1l0.2,0.2L453.7,339.1 M180.8,339.3l0.2,0.2L180.8,339.3 M197,339.3l0.2,0.2L197,339.3 M247,339.3l0.2,0.2L247,339.3
	 M404.3,339.3l0.2,0.2L404.3,339.3 M436.6,339.3l0.2,0.2L436.6,339.3 M180.7,339.5l0.2,0.2L180.7,339.5 M196.8,339.5l0.2,0.2
	L196.8,339.5 M247.2,339.5l0.2,0.2L247.2,339.5 M263.2,339.5l0.2,0.2L263.2,339.5 M279.9,339.5l0.2,0.2L279.9,339.5 M312.5,339.5
	l0.2,0.2L312.5,339.5 M387.4,339.5l0.2,0.2L387.4,339.5 M404.6,339.5l0.2,0.2L404.6,339.5 M436.3,339.5l0.2,0.2L436.3,339.5
	 M180.5,339.7l0.2,0.2L180.5,339.7 M196.7,339.7l0.2,0.2L196.7,339.7 M247.4,339.7l0.2,0.2L247.4,339.7 M263.4,339.7l0.2,0.2
	L263.4,339.7 M280.3,339.7l0.2,0.2L280.3,339.7 M329,339.7l0.2,0.2L329,339.7 M387.5,339.7l0.2,0.2L387.5,339.7 M404.8,339.7
	l0.2,0.2L404.8,339.7 M436.1,339.7l0.2,0.2L436.1,339.7 M453.3,339.7l0.2,0.2L453.3,339.7 M180.3,339.9l0.2,0.2L180.3,339.9
	 M196.5,339.9l0.2,0.2L196.5,339.9 M247.6,339.9l0.2,0.2L247.6,339.9 M280.5,339.9l0.2,0.2L280.5,339.9 M311.9,339.9l0.2,0.2
	L311.9,339.9 M328.8,339.9l0.2,0.2L328.8,339.9 M387.7,339.9l0.2,0.2L387.7,339.9 M405.2,339.9l0.2,0.2L405.2,339.9 M435.7,339.9
	l0.2,0.2L435.7,339.9 M453.2,339.9l0.2,0.2L453.2,339.9 M180.1,340l0.2,0.2L180.1,340 M247.7,340l0.2,0.2L247.7,340 M280.8,340
	l0.2,0.2L280.8,340 M311.5,340l0.2,0.2L311.5,340 M328.6,340l0.2,0.2L328.6,340 M405.5,340l0.2,0.2L405.5,340 M435.4,340l0.2,0.2
	L435.4,340 M179.9,340.2l0.2,0.2L179.9,340.2 M247.9,340.2l0.2,0.2L247.9,340.2 M263.7,340.2l0.2,0.2L263.7,340.2 M311.4,340.2
	l0.2,0.2L311.4,340.2 M405.7,340.2l0.2,0.2L405.7,340.2 M435.2,340.2l0.2,0.2L435.2,340.2 M179.7,340.4l0.2,0.2L179.7,340.4
	 M248.1,340.4l0.2,0.2L248.1,340.4 M263.9,340.4l0.2,0.2L263.9,340.4 M281.4,340.4l0.2,0.2L281.4,340.4 M311,340.4l0.2,0.2
	L311,340.4 M388.1,340.4l0.2,0.2L388.1,340.4 M406.1,340.4l0.2,0.2L406.1,340.4 M434.8,340.4l0.2,0.2L434.8,340.4 M452.8,340.4
	l0.2,0.2L452.8,340.4 M179.6,340.6l0.2,0.2L179.6,340.6 M248.3,340.6l0.2,0.2L248.3,340.6 M264.1,340.6l0.2,0.2L264.1,340.6
	 M281.7,340.6l0.2,0.2L281.7,340.6 M310.6,340.6l0.2,0.2L310.6,340.6 M328.3,340.6l0.2,0.2L328.3,340.6 M388.3,340.6l0.2,0.2
	L388.3,340.6 M406.4,340.6l0.2,0.2L406.4,340.6 M434.4,340.6l0.2,0.2L434.4,340.6 M452.6,340.6l0.2,0.2L452.6,340.6 M179.4,340.8
	l0.2,0.2L179.4,340.8 M248.5,340.8l0.2,0.2L248.5,340.8 M282.1,340.8l0.2,0.2L282.1,340.8 M310.5,340.8l0.2,0.2L310.5,340.8
	 M328.1,340.8l0.2,0.2L328.1,340.8 M406.8,340.8l0.2,0.2L406.8,340.8 M434.1,340.8l0.2,0.2L434.1,340.8 M452.4,340.8l0.2,0.2
	L452.4,340.8 M179.2,341l0.2,0.2L179.2,341 M248.6,341l0.2,0.2L248.6,341 M282.5,341l0.2,0.2L282.5,341 M310.1,341l0.2,0.2
	L310.1,341 M327.9,341l0.2,0.2L327.9,341 M407.2,341l0.2,0.2L407.2,341 M433.7,341l0.2,0.2L433.7,341 M179,341.1l0.2,0.2L179,341.1
	 M248.8,341.1l0.2,0.2L248.8,341.1 M282.8,341.1l0.2,0.2L282.8,341.1 M309.7,341.1l0.2,0.2L309.7,341.1 M327.7,341.1l0.2,0.2
	L327.7,341.1 M407.5,341.1l0.2,0.2L407.5,341.1 M433.4,341.1l0.2,0.2L433.4,341.1 M178.8,341.3l0.2,0.2L178.8,341.3 M249,341.3
	l0.2,0.2L249,341.3 M264.6,341.3l0.2,0.2L264.6,341.3 M283.2,341.3l0.2,0.2L283.2,341.3 M309.4,341.3l0.2,0.2L309.4,341.3
	 M407.9,341.3l0.2,0.2L407.9,341.3 M433,341.3l0.2,0.2L433,341.3 M178.7,341.5l0.2,0.2L178.7,341.5 M249.2,341.5l0.2,0.2
	L249.2,341.5 M264.8,341.5l0.2,0.2L264.8,341.5 M283.5,341.5l0.2,0.2L283.5,341.5 M309,341.5l0.2,0.2L309,341.5 M389,341.5l0.2,0.2
	L389,341.5 M408.3,341.5l0.2,0.2L408.3,341.5 M432.6,341.5l0.2,0.2L432.6,341.5 M178.5,341.7l0.2,0.2L178.5,341.7 M249.4,341.7
	l0.2,0.2L249.4,341.7 M265,341.7l0.2,0.2L265,341.7 M283.9,341.7l0.2,0.2L283.9,341.7 M308.6,341.7l0.1,0.1L308.6,341.7
	 M389.2,341.7l0.2,0.2L389.2,341.7 M408.6,341.7l0.2,0.2L408.6,341.7 M432.1,341.7l0.2,0.2L432.1,341.7 M451.7,341.7l0.2,0.2
	L451.7,341.7 M178.3,341.9l0.2,0.2L178.3,341.9 M249.6,341.9l0.2,0.2L249.6,341.9 M265.2,341.9l0.2,0.2L265.2,341.9 M284.3,341.9
	l0.2,0.2L284.3,341.9 M308.1,341.9l0.2,0.2L308.1,341.9 M327.2,341.9l0.2,0.2L327.2,341.9 M389.4,341.9l0.2,0.2L389.4,341.9
	 M409.2,341.9l0.2,0.2L409.2,341.9 M431.7,341.9l0.2,0.2L431.7,341.9 M451.5,341.9l0.2,0.2L451.5,341.9 M178.1,342l0.2,0.2
	L178.1,342 M249.7,342l0.2,0.2L249.7,342 M265.4,342l0.2,0.2L265.4,342 M284.8,342.1l0.1,0.1L284.8,342.1 M307.7,342l0.2,0.2
	L307.7,342 M327,342l0.2,0.2L327,342 M389.5,342l0.2,0.2L389.5,342 M409.5,342l0.2,0.2L409.5,342 M431.3,342.1l0.1,0.1L431.3,342.1
	 M451.3,342l0.2,0.2L451.3,342 M177.9,342.2l0.2,0.2L177.9,342.2 M249.9,342.2l0.2,0.2L249.9,342.2 M285.2,342.2l0.2,0.2
	L285.2,342.2 M307.3,342.3l0.1,0.1L307.3,342.3 M326.8,342.2l0.2,0.2L326.8,342.2 M410.1,342.2l0.2,0.2L410.1,342.2 M430.8,342.2
	l0.2,0.2L430.8,342.2 M451.2,342.2l0.2,0.2L451.2,342.2 M177.7,342.4l0.2,0.2L177.7,342.4 M250.1,342.4l0.2,0.2L250.1,342.4
	 M285.7,342.5l0.1,0.1L285.7,342.5 M306.8,342.4l0.2,0.2L306.8,342.4 M326.6,342.4l0.2,0.2L326.6,342.4 M410.6,342.5l0.1,0.1
	L410.6,342.5 M430.4,342.5l0.1,0.1L430.4,342.5 M451,342.4l0.2,0.2L451,342.4 M177.6,342.6l0.2,0.2L177.6,342.6 M250.3,342.6
	l0.2,0.2L250.3,342.6 M286.1,342.6l0.2,0.2L286.1,342.6 M306.3,342.6l0.2,0.2L306.3,342.6 M326.5,342.6l0.2,0.2L326.5,342.6
	 M411.1,342.6l0.1,0.1L411.1,342.6 M429.8,342.6l0.1,0.1L429.8,342.6 M177.4,342.8l0.2,0.2L177.4,342.8 M250.5,342.8l0.2,0.2
	L250.5,342.8 M286.6,342.8l0.2,0.2L286.6,342.8 M305.7,342.8l0.2,0.2L305.7,342.8 M326.3,342.8l0.2,0.2L326.3,342.8 M411.7,342.8
	l0.1,0.1L411.7,342.8 M429.2,342.8l0.2,0.2L429.2,342.8 M177.2,343l0.2,0.2L177.2,343 M250.6,343l0.2,0.2L250.6,343 M287.3,343
	l0.1,0.1L287.3,343 M305.3,343l0.1,0.1L305.3,343 M412.4,343l0.1,0.1L412.4,343 M428.6,343l0.1,0.1L428.6,343z"/>
<path class="st3" d="M502.1,343l0.2,0.2L502.1,343z"/>
<path class="st4" d="M177,343.1l0.2,0.2L177,343.1 M250.8,343.1l0.2,0.2L250.8,343.1 M287.9,343.2l0.1,0.1L287.9,343.2 M304.6,343.1
	l0.2,0.2L304.6,343.1 M412.9,343.2l0.1,0.1L412.9,343.2 M427.9,343.1l0.2,0.2L427.9,343.1 M176.8,343.3l0.2,0.2L176.8,343.3
	 M251,343.3l0.2,0.2L251,343.3 M266.5,343.3l0.2,0.2L266.5,343.3 M288.6,343.4l0.1,0.1L288.6,343.4 M304,343.4l0.1,0.1L304,343.4
	 M413.5,343.3v0.2h0.5L413.5,343.3 M427,343.3v0.2h0.5L427,343.3 M176.7,343.5l0.2,0.2L176.7,343.5 M251.2,343.5l0.2,0.2
	L251.2,343.5 M266.6,343.5l0.2,0.2L266.6,343.5 M289.3,343.6l0.1,0.1L289.3,343.6 M303.3,343.6l0.1,0.1L303.3,343.6 M414.6,343.6
	l0.1,0.1L414.6,343.6 M426.4,343.6l0.1,0.1L426.4,343.6 M176.5,343.7l0.2,0.2L176.5,343.7 M251.4,343.7l0.2,0.2L251.4,343.7
	 M266.8,343.7l0.2,0.2L266.8,343.7 M290,343.7l0.1,0.1L290,343.7 M302.6,343.7l0.1,0.1L302.6,343.7 M391,343.7l0.2,0.2L391,343.7
	 M415.4,343.7v0.2h0.5L415.4,343.7 M425.2,343.7v0.2h0.5L425.2,343.7 M176.3,343.9l0.2,0.2L176.3,343.9 M251.6,343.9l0.2,0.2
	L251.6,343.9 M267,343.9l0.2,0.2L267,343.9 M290.8,343.9v0.2h0.5L290.8,343.9 M301.4,343.9v0.2h0.5L301.4,343.9 M416.6,343.9v0.2
	h0.7L416.6,343.9 M423.9,343.9v0.2h0.5L423.9,343.9 M176.1,344l0.2,0.2L176.1,344 M251.7,344l0.2,0.2L251.7,344 M267.2,344l0.2,0.2
	L267.2,344 M291.9,344v0.2h0.7L291.9,344 M300.3,344v0.2h0.5L300.3,344 M418.3,344v0.2h2.2L418.3,344 M420.6,344v0.2h2.2L420.6,344
	 M175.9,344.2l0.2,0.2L175.9,344.2 M251.9,344.2l0.2,0.2L251.9,344.2 M293.4,344.2v0.2h1.1L293.4,344.2 M298.5,344.2v0.2h1.1
	L298.5,344.2 M175.7,344.4l0.2,0.2L175.7,344.4 M252.1,344.4l0.2,0.2L252.1,344.4 M175.6,344.6l0.2,0.2L175.6,344.6 M252.3,344.6
	l0.2,0.2L252.3,344.6 M175.4,344.8l0.2,0.2L175.4,344.8 M252.5,344.8l0.2,0.2L252.5,344.8 M175.2,345l0.2,0.2L175.2,345 M252.6,345
	l0.2,0.2L252.6,345 M448.4,345l0.2,0.2L448.4,345 M175,345.1l0.2,0.2L175,345.1 M252.8,345.1l0.2,0.2L252.8,345.1 M268.5,345.1
	l0.2,0.2L268.5,345.1 M392.6,345.1l0.2,0.2L392.6,345.1 M448.3,345.1l0.2,0.2L448.3,345.1 M174.8,345.3l0.2,0.2L174.8,345.3
	 M253,345.3l0.2,0.2L253,345.3 M268.6,345.3l0.2,0.2L268.6,345.3 M392.8,345.3l0.2,0.2L392.8,345.3 M448.1,345.3l0.2,0.2
	L448.1,345.3 M174.7,345.5l0.2,0.2L174.7,345.5 M253.2,345.5l0.2,0.2L253.2,345.5 M268.8,345.5l0.2,0.2L268.8,345.5 M393,345.5
	l0.2,0.2L393,345.5 M447.9,345.5l0.2,0.2L447.9,345.5 M174.5,345.7l0.2,0.2L174.5,345.7 M253.4,345.7l0.2,0.2L253.4,345.7
	 M269,345.7l0.2,0.2L269,345.7 M323.4,345.7l0.2,0.2L323.4,345.7 M393.2,345.7l0.2,0.2L393.2,345.7 M447.7,345.7l0.2,0.2
	L447.7,345.7 M174.3,345.9l0.2,0.2L174.3,345.9 M253.6,345.9l0.2,0.2L253.6,345.9 M269.2,345.9l0.2,0.2L269.2,345.9 M323.2,345.9
	l0.2,0.2L323.2,345.9 M174.1,346l0.2,0.2L174.1,346 M253.7,346l0.2,0.2L253.7,346 M323,346l0.2,0.2L323,346 M173.9,346.2l0.2,0.2
	L173.9,346.2 M253.9,346.2l0.2,0.2L253.9,346.2 M322.8,346.2l0.2,0.2L322.8,346.2 M447,346.2l0.2,0.2L447,346.2 M254.1,346.4
	l0.2,0.2L254.1,346.4 M269.9,346.4l0.2,0.2L269.9,346.4 M322.6,346.4l0.2,0.2L322.6,346.4 M394.1,346.4l0.2,0.2L394.1,346.4
	 M446.8,346.4l0.2,0.2L446.8,346.4 M270.1,346.6l0.2,0.2L270.1,346.6 M394.3,346.6l0.2,0.2L394.3,346.6 M446.6,346.6l0.2,0.2
	L446.6,346.6z"/>
<path class="st3" d="M135.9,346.8l0.2,0.2L135.9,346.8z"/>
<path class="st4" d="M173.6,346.8l0.2,0.2L173.6,346.8 M254.3,346.8l0.2,0.2L254.3,346.8 M270.3,346.8l0.2,0.2L270.3,346.8
	 M254.5,347l0.2,0.2L254.5,347 M321.9,347l0.2,0.2L321.9,347 M394.8,347l0.2,0.2L394.8,347 M446.1,347l0.2,0.2L446.1,347
	 M270.8,347.1l0.2,0.2L270.8,347.1 M321.7,347.1l0.2,0.2L321.7,347.1 M395,347.1l0.2,0.2L395,347.1 M445.9,347.1l0.2,0.2
	L445.9,347.1 M173.2,347.3l0.2,0.2L173.2,347.3 M254.6,347.3l0.2,0.2L254.6,347.3 M271,347.3l0.2,0.2L271,347.3 M321.5,347.3
	l0.2,0.2L321.5,347.3 M395.2,347.3l0.2,0.2L395.2,347.3 M445.7,347.3l0.2,0.2L445.7,347.3 M271.2,347.5l0.2,0.2L271.2,347.5
	 M173,347.7l0.2,0.2L173,347.7 M254.8,347.7l0.2,0.2L254.8,347.7 M271.6,347.7l0.2,0.2L271.6,347.7 M321,347.7l0.2,0.2L321,347.7
	 M395.7,347.7l0.2,0.2L395.7,347.7 M445.2,347.7l0.2,0.2L445.2,347.7z"/>
<path class="st3" d="M136.1,347.9l0.2,0.2L136.1,347.9z"/>
<path class="st4" d="M271.7,347.9l0.2,0.2L271.7,347.9 M320.8,347.9l0.2,0.2L320.8,347.9 M395.9,347.9l0.2,0.2L395.9,347.9
	 M445,347.9l0.2,0.2L445,347.9 M255.1,348.2l0.1,0.1L255.1,348.2 M444.6,348l0.2,0.2L444.6,348 M172.8,348.2l0.2,0.2L172.8,348.2
	 M272.3,348.2l0.2,0.2L272.3,348.2 M320.3,348.2l0.2,0.2L320.3,348.2 M396.4,348.2l0.2,0.2L396.4,348.2 M444.4,348.2l0.2,0.2
	L444.4,348.2 M272.5,348.4l0.2,0.2L272.5,348.4 M320.1,348.4l0.2,0.2L320.1,348.4 M272.8,348.6l0.2,0.2L272.8,348.6 M397,348.6
	l0.2,0.2L397,348.6 M443.9,348.6l0.2,0.2L443.9,348.6 M172.7,348.8v0.5h0.2L172.7,348.8 M255.3,348.9l0.1,0.1L255.3,348.9
	 M273,348.8l0.2,0.2L273,348.8 M319.5,348.8l0.2,0.2L319.5,348.8 M397.2,348.8l0.2,0.2L397.2,348.8 M273.4,349l0.2,0.2L273.4,349
	 M397.5,349l0.2,0.2L397.5,349 M443.4,349l0.2,0.2L443.4,349 M273.6,349.1l0.2,0.2L273.6,349.1 M319,349.1l0.2,0.2L319,349.1
	 M397.7,349.1l0.2,0.2L397.7,349.1 M273.9,349.3l0.2,0.2L273.9,349.3 M398.1,349.3l0.2,0.2L398.1,349.3 M442.8,349.3l0.2,0.2
	L442.8,349.3 M274.1,349.5l0.2,0.2L274.1,349.5 M318.5,349.5l0.2,0.2L318.5,349.5 M442.4,349.5l0.2,0.2L442.4,349.5 M274.5,349.7
	l0.2,0.2L274.5,349.7 M318.1,349.7l0.2,0.2L318.1,349.7 M398.6,349.7l0.2,0.2L398.6,349.7 M442.3,349.7l0.2,0.2L442.3,349.7
	 M317.9,349.9l0.2,0.2L317.9,349.9 M399,349.9l0.2,0.2L399,349.9 M441.9,349.9l0.2,0.2L441.9,349.9 M275,350l0.2,0.2L275,350
	 M317.5,350l0.2,0.2L317.5,350 M399.2,350l0.2,0.2L399.2,350 M275.4,350.2l0.2,0.2L275.4,350.2 M317.2,350.2l0.2,0.2L317.2,350.2
	 M399.5,350.2l0.2,0.2L399.5,350.2 M441.3,350.2l0.2,0.2L441.3,350.2 M275.7,350.4l0.2,0.2L275.7,350.4 M317,350.4l0.2,0.2
	L317,350.4 M399.9,350.4l0.2,0.2L399.9,350.4 M441,350.4l0.2,0.2L441,350.4 M275.9,350.6l0.2,0.2L275.9,350.6 M316.6,350.6l0.2,0.2
	L316.6,350.6 M348.7,350.7l0.1,0.1L348.7,350.7 M359.8,350.7l0.1,0.1L359.8,350.7 M400.3,350.6l0.2,0.2L400.3,350.6 M440.6,350.6
	l0.2,0.2L440.6,350.6z"/>
<path class="st3" d="M136.7,350.8l0.2,0.2L136.7,350.8z"/>
<path class="st4" d="M276.3,350.8l0.2,0.2L276.3,350.8 M316.3,350.8l0.2,0.2L316.3,350.8 M400.4,350.8l0.2,0.2L400.4,350.8
	 M172.7,351.1l0.1,0.1L172.7,351.1 M255.2,351v0.5h0.2L255.2,351 M276.6,351l0.2,0.2L276.6,351 M315.9,351l0.2,0.2L315.9,351
	 M400.8,351l0.2,0.2L400.8,351 M440.1,351l0.2,0.2L440.1,351 M277,351.1l0.2,0.2L277,351.1 M315.5,351.1l0.2,0.2L315.5,351.1
	 M401.2,351.1l0.2,0.2L401.2,351.1 M439.7,351.1l0.2,0.2L439.7,351.1 M277.4,351.3l0.2,0.2L277.4,351.3 M315.2,351.3l0.2,0.2
	L315.2,351.3 M348.8,351.3l0.2,0.2L348.8,351.3 M359.6,351.4l0.1,0.1L359.6,351.4 M401.5,351.3l0.2,0.2L401.5,351.3 M439.4,351.3
	l0.2,0.2L439.4,351.3 M314.8,351.5l0.2,0.2L314.8,351.5 M401.9,351.5l0.2,0.2L401.9,351.5 M439,351.5l0.2,0.2L439,351.5z"/>
<path class="st3" d="M136.8,351.7l0.2,0.2L136.8,351.7z"/>
<path class="st4" d="M172.9,351.8l0.1,0.1L172.9,351.8 M278.1,351.7l0.2,0.2L278.1,351.7 M314.5,351.7l0.2,0.2L314.5,351.7
	 M402.3,351.7l0.2,0.2L402.3,351.7 M438.6,351.7l0.2,0.2L438.6,351.7 M255,351.9l0.2,0.2L255,351.9 M278.5,351.9l0.2,0.2
	L278.5,351.9 M314.1,351.9l0.2,0.2L314.1,351.9 M349,351.9l0.2,0.2L349,351.9 M359.4,351.9l0.2,0.2L359.4,351.9 M402.6,351.9
	l0.2,0.2L402.6,351.9 M438.3,351.9l0.2,0.2L438.3,351.9 M278.8,352l0.2,0.2L278.8,352 M313.7,352l0.2,0.2L313.7,352 M403,352
	l0.2,0.2L403,352 M437.9,352l0.2,0.2L437.9,352 M173,352.2l0.2,0.2L173,352.2 M254.8,352.2l0.2,0.2L254.8,352.2 M279.2,352.2
	l0.2,0.2L279.2,352.2 M313.4,352.2l0.2,0.2L313.4,352.2 M349.2,352.2l0.2,0.2L349.2,352.2 M359.2,352.2l0.2,0.2L359.2,352.2
	 M403.5,352.2l0.2,0.2L403.5,352.2 M437.4,352.2l0.2,0.2L437.4,352.2 M279.5,352.4l0.2,0.2L279.5,352.4 M313,352.4l0.2,0.2
	L313,352.4 M349.4,352.4l0.2,0.2L349.4,352.4 M403.9,352.4l0.2,0.2L403.9,352.4 M437,352.4l0.2,0.2L437,352.4 M173.2,352.6l0.2,0.2
	L173.2,352.6 M254.6,352.6l0.2,0.2L254.6,352.6 M279.9,352.6l0.2,0.2L279.9,352.6 M312.5,352.6l0.2,0.2L312.5,352.6 M404.3,352.6
	l0.2,0.2L404.3,352.6 M436.6,352.6l0.2,0.2L436.6,352.6 M280.5,352.8l0.2,0.2L280.5,352.8 M312.1,352.8l0.2,0.2L312.1,352.8
	 M349.5,352.8l0.2,0.2L349.5,352.8 M358.8,352.8l0.2,0.2L358.8,352.8 M404.7,352.8l0.1,0.1L404.7,352.8 M436.2,352.8l0.1,0.1
	L436.2,352.8 M173.4,353l0.2,0.2L173.4,353 M254.5,353l0.2,0.2L254.5,353 M280.8,353l0.2,0.2L280.8,353 M311.7,353l0.1,0.1
	L311.7,353 M349.7,353l0.2,0.2L349.7,353 M358.6,353l0.2,0.2L358.6,353 M405.2,353l0.2,0.2L405.2,353 M435.7,353l0.2,0.2L435.7,353
	 M281.4,353.1l0.2,0.2L281.4,353.1 M311.2,353.1l0.2,0.2L311.2,353.1 M405.7,353.2l0.1,0.1L405.7,353.2 M435.2,353.1l0.2,0.2
	L435.2,353.1 M254.3,353.3l0.2,0.2L254.3,353.3 M281.7,353.3l0.2,0.2L281.7,353.3 M310.6,353.3l0.2,0.2L310.6,353.3 M406.1,353.3
	l0.2,0.2L406.1,353.3 M434.8,353.3l0.2,0.2L434.8,353.3 M173.7,353.5l0.2,0.2L173.7,353.5 M254.1,353.5l0.2,0.2L254.1,353.5
	 M282.3,353.5l0.2,0.2L282.3,353.5 M310.2,353.6l0.1,0.1L310.2,353.6 M406.6,353.5l0.2,0.2L406.6,353.5 M434.3,353.5l0.2,0.2
	L434.3,353.5 M173.9,353.7l0.2,0.2L173.9,353.7 M253.9,353.7l0.2,0.2L253.9,353.7 M282.8,353.7l0.2,0.2L282.8,353.7 M309.7,353.7
	l0.1,0.1L309.7,353.7 M407.2,353.7l0.2,0.2L407.2,353.7 M433.7,353.7l0.2,0.2L433.7,353.7 M174.1,353.9l0.2,0.2L174.1,353.9
	 M253.7,353.9l0.2,0.2L253.7,353.9 M283.3,353.9l0.1,0.1L283.3,353.9 M309.1,353.9l0.1,0.1L309.1,353.9 M407.7,353.9l0.2,0.2
	L407.7,353.9 M433.2,353.9l0.2,0.2L433.2,353.9 M174.3,354l0.2,0.2L174.3,354 M253.6,354l0.2,0.2L253.6,354 M283.9,354l0.2,0.2
	L283.9,354 M308.6,354.1l0.1,0.1L308.6,354.1 M350.8,354l0.2,0.2L350.8,354 M357.5,354l0.2,0.2L357.5,354 M408.3,354l0.2,0.2
	L408.3,354 M432.6,354l0.2,0.2L432.6,354 M174.5,354.2l0.2,0.2L174.5,354.2 M245.9,354.2l0.2,0.2L245.9,354.2 M253.4,354.2l0.2,0.2
	L253.4,354.2 M284.5,354.2l0.2,0.2L284.5,354.2 M307.9,354.2l0.2,0.2L307.9,354.2 M351,354.2l0.2,0.2L351,354.2 M357.4,354.2
	l0.2,0.2L357.4,354.2 M408.9,354.3l0.1,0.1L408.9,354.3 M432,354.3l0.1,0.1L432,354.3 M174.7,354.4l0.2,0.2L174.7,354.4
	 M181.7,354.4l0.2,0.2L181.7,354.4 M246.1,354.4l0.2,0.2L246.1,354.4 M253.2,354.4l0.2,0.2L253.2,354.4 M285.1,354.5l0.1,0.1
	L285.1,354.5 M307.3,354.5l0.1,0.1L307.3,354.5 M351.4,354.4l0.2,0.2L351.4,354.4 M357,354.4l0.2,0.2L357,354.4 M409.5,354.4
	l0.2,0.2L409.5,354.4 M431.4,354.4l0.2,0.2L431.4,354.4 M181.6,354.6l0.2,0.2L181.6,354.6 M246.3,354.6l0.2,0.2L246.3,354.6
	 M253,354.6l0.2,0.2L253,354.6 M285.9,354.6l0.1,0.1L285.9,354.6 M306.6,354.6l0.1,0.1L306.6,354.6 M351.7,354.6l0.2,0.2
	L351.7,354.6 M356.6,354.6l0.2,0.2L356.6,354.6 M410.2,354.6l0.1,0.1L410.2,354.6 M430.7,354.6l0.1,0.1L430.7,354.6 M175.2,354.8
	l0.2,0.2L175.2,354.8 M246.6,354.8l0.2,0.2L246.6,354.8 M252.6,354.8l0.2,0.2L252.6,354.8 M286.4,354.8l0.1,0.1L286.4,354.8
	 M305.9,354.8l0.1,0.1L305.9,354.8 M352.1,354.8l0.2,0.2L352.1,354.8 M356.3,354.8l0.2,0.2L356.3,354.8 M411.1,354.8l0.1,0.1
	L411.1,354.8 M429.7,354.8v0.2h0.5L429.7,354.8 M175.6,355l0.2,0.2L175.6,355 M181,355l0.2,0.2L181,355 M246.8,355l0.2,0.2
	L246.8,355 M252.5,355l0.2,0.2L252.5,355 M287.3,355l0.1,0.1L287.3,355 M305.1,355l0.1,0.1L305.1,355 M352.8,355l0.1,0.1L352.8,355
	 M355.7,355l0.1,0.1L355.7,355 M411.8,355l0.1,0.1L411.8,355 M429.1,355l0.1,0.1L429.1,355 M175.9,355.1l0.2,0.2L175.9,355.1
	 M180.7,355.1l0.2,0.2L180.7,355.1 M247.2,355.1l0.2,0.2L247.2,355.1 M252.1,355.1l0.2,0.2L252.1,355.1 M288,355.2l0.1,0.1
	L288,355.2 M304.2,355.2l0.1,0.1L304.2,355.2 M353.4,355.1v0.2h1.8L353.4,355.1 M412.6,355.1v0.2h0.5L412.6,355.1 M428.1,355.1v0.2
	h0.5L428.1,355.1 M176.3,355.3l0.2,0.2L176.3,355.3 M180.2,355.4l0.1,0.1L180.2,355.4 M247.7,355.3l0.2,0.2L247.7,355.3
	 M251.6,355.3l0.2,0.2L251.6,355.3 M288.8,355.3v0.2h0.5L288.8,355.3 M303.3,355.4l0.1,0.1L303.3,355.4 M413.5,355.3v0.2h0.5
	L413.5,355.3 M427,355.3v0.2h0.5L427,355.3 M177,355.6l0.1,0.1L177,355.6 M179.7,355.6l0.1,0.1L179.7,355.6 M248.2,355.6l0.1,0.1
	L248.2,355.6 M251,355.5l0.2,0.2L251,355.5 M289.9,355.5v0.2h0.5L289.9,355.5 M301.9,355.5v0.2h0.7L301.9,355.5 M414.8,355.5v0.2
	h0.7L414.8,355.5 M425.7,355.5v0.2h0.5L425.7,355.5z"/>
<path class="st3" d="M499.7,355.5l0.2,0.2L499.7,355.5z"/>
<path class="st4" d="M177.7,355.7v0.2h1.1L177.7,355.7 M249.2,355.7v0.2h1.1L249.2,355.7 M291.2,355.7v0.2h0.7L291.2,355.7
	 M300.6,355.7v0.2h0.7L300.6,355.7 M416.1,355.7v0.2h1.1L416.1,355.7 M423.9,355.7v0.2h1.1L423.9,355.7 M293,355.9v0.2h1.3
	L293,355.9 M298.3,355.9v0.2h1.3L298.3,355.9 M418.4,355.9v0.2h4L418.4,355.9z"/>
<path class="st3" d="M498.1,362.2l0.2,0.2L498.1,362.2 M139.4,362.6l0.2,0.2L139.4,362.6 M497.9,363l0.2,0.2L497.9,363 M497,366.2
	l0.2,0.2L497,366.2 M142.3,372.4l0.2,0.2L142.3,372.4 M142.5,372.9l0.2,0.2L142.5,372.9 M143,374.6l0.2,0.2L143,374.6 M143.4,375.7
	l0.2,0.2L143.4,375.7 M493.3,377.5l0.2,0.2L493.3,377.5 M488.8,388.9l0.2,0.2L488.8,388.9 M152.1,396.6l0.2,0.2L152.1,396.6
	 M485,397.1l0.2,0.2L485,397.1 M484.8,397.5l0.2,0.2L484.8,397.5 M484.6,397.9l0.2,0.2L484.6,397.9 M484.4,398.2l0.2,0.2
	L484.4,398.2 M153,398.4l0.2,0.2L153,398.4 M484.3,398.6l0.2,0.2L484.3,398.6 M153.2,398.8l0.2,0.2L153.2,398.8 M484.1,398.9
	l0.2,0.2L484.1,398.9 M153.4,399.1l0.2,0.2L153.4,399.1 M483.9,399.3l0.2,0.2L483.9,399.3 M482.3,402.4l0.2,0.2L482.3,402.4
	 M482.1,402.8l0.2,0.2L482.1,402.8 M480.3,406l0.2,0.2L480.3,406 M479.5,407.3l0.2,0.2L479.5,407.3 M478.3,409.5l0.2,0.2
	L478.3,409.5 M160.7,412l0.2,0.2L160.7,412 M162.5,414.9l0.2,0.2L162.5,414.9 M473,417.9l0.2,0.2L473,417.9 M472.6,418.4l0.2,0.2
	L472.6,418.4 M468.3,424.6l0.2,0.2L468.3,424.6 M171,427.1l0.2,0.2L171,427.1 M466.1,427.5l0.2,0.2L466.1,427.5 M172.3,428.8
	l0.2,0.2L172.3,428.8 M172.8,429.5l0.2,0.2L172.8,429.5 M173.6,430.4l0.2,0.2L173.6,430.4 M175.9,433.3l0.2,0.2L175.9,433.3
	 M461,433.9l0.2,0.2L461,433.9 M177.9,435.7l0.2,0.2L177.9,435.7 M459,436.2l0.2,0.2L459,436.2 M182.5,440.8l0.2,0.2L182.5,440.8
	 M185.7,444.2l0.2,0.2L185.7,444.2 M185.9,444.4l0.2,0.2L185.9,444.4 M186.1,444.6l0.2,0.2L186.1,444.6 M186.8,445.3l0.2,0.2
	L186.8,445.3 M188.8,447.3l0.2,0.2L188.8,447.3 M189,447.5l0.2,0.2L189,447.5 M189.2,447.7l0.2,0.2L189.2,447.7 M446.1,449.7
	l0.2,0.2L446.1,449.7 M192.8,451.1l0.2,0.2L192.8,451.1 M194.8,452.9l0.2,0.2L194.8,452.9 M196.5,454.4l0.2,0.2L196.5,454.4
	 M439,456l0.2,0.2L439,456 M199,456.6l0.2,0.2L199,456.6 M437.7,457.1l0.2,0.2L437.7,457.1 M201.2,458.4l0.2,0.2L201.2,458.4
	 M435.7,458.8l0.2,0.2L435.7,458.8 M434.8,459.5l0.2,0.2L434.8,459.5 M204.8,461.3l0.2,0.2L204.8,461.3 M430.6,462.8l0.2,0.2
	L430.6,462.8 M209.9,465.1l0.2,0.2L209.9,465.1 M212.5,466.9l0.2,0.2L212.5,466.9 M214.8,468.6l0.2,0.2L214.8,468.6 M421.7,469.1
	l0.2,0.2L421.7,469.1 M223.7,474.2l0.2,0.2L223.7,474.2 M413.4,474.4l0.2,0.2L413.4,474.4 M225.6,475.3l0.2,0.2L225.6,475.3
	 M232.1,478.9l0.2,0.2L232.1,478.9 M232.8,479.3l0.2,0.2L232.8,479.3 M403.2,480l0.2,0.2L403.2,480 M402.8,480.2l0.2,0.2
	L402.8,480.2 M402.4,480.4l0.2,0.2L402.4,480.4 M402.1,480.6l0.2,0.2L402.1,480.6 M401.7,480.8l0.2,0.2L401.7,480.8 M401,481.1
	l0.2,0.2L401,481.1 M239,482.4l0.2,0.2L239,482.4 M396.4,483.3l0.2,0.2L396.4,483.3 M242.1,483.8l0.2,0.2L242.1,483.8 M243.7,484.6
	l0.2,0.2L243.7,484.6 M392.8,484.9l0.2,0.2L392.8,484.9 M390.3,486l0.2,0.2L390.3,486 M383.4,488.8l0.2,0.2L383.4,488.8
	 M381.4,489.5l0.2,0.2L381.4,489.5 M380.8,489.7l0.2,0.2L380.8,489.7 M373.7,492l0.2,0.2L373.7,492 M370.1,493.1l0.2,0.2
	L370.1,493.1 M368.8,493.5l0.2,0.2L368.8,493.5 M269.9,493.8l0.2,0.2L269.9,493.8 M366.8,494l0.2,0.2L366.8,494 M274.1,494.9
	l0.2,0.2L274.1,494.9 M361,495.5l0.2,0.2L361,495.5 M278.8,496l0.2,0.2L278.8,496 M339.9,499.1l0.2,0.2L339.9,499.1 M338.3,499.3
	l0.2,0.2L338.3,499.3 M308.3,500l0.2,0.2L308.3,500z"/>
<g transform="translate(-2.537 -2.8329)">
	<path id="sagebrilliantgreen" class="st5" d="M354.9,414.6c-13.9-1.9-25.4-10.7-29.4-22.4c-3.3-9.9-1.3-17.5,4.6-18.2
		c2.7-0.3,4.5,0.2,6.1,1.7c1.7,1.6,2.2,2.7,2.6,6.6c1.1,11.4,9.5,19,20.9,19c4.1,0,6.7-0.6,10.1-2.2c6.7-3.2,10.2-9.2,9.8-16.8
		c-0.3-5.1-2.4-8.9-6.6-12.1c-3.3-2.5-7.8-4.6-16.4-7.5c-11.9-4.1-17.2-6.7-22.3-10.8c-9.4-7.7-12.9-21.8-8.8-35
		c1.8-5.6,4.1-9.5,8.4-13.8c6.4-6.5,14.8-9.9,24.7-9.9c17.7,0,32.1,11,35.4,27c0.5,2.5,0.6,4.4,0.4,8c-0.4,7.4-2.2,12.7-5.5,16.1
		c-3.8,3.8-9.6,3.1-11.9-1.4c-1.1-2.2-1.1-3.6,0.1-6.5c1.9-4.3,2.5-6.8,2.5-9.7c0-5.4-1.8-10-5.6-13.9c-2.7-2.8-5.8-4.6-10-5.6
		c-10.7-2.7-21.1,2.7-24.5,12.8c-1.2,3.6-1.2,9.1,0,12.4c1.1,3.2,3.2,6.1,5.9,8.3c3,2.4,9.6,5.6,16.9,8.1c11.8,4.1,15.8,6,20.8,9.7
		c5.1,3.8,8.2,8.2,10.2,14.4c0.8,2.5,0.9,3.7,0.9,8.8c0,4.9-0.1,6.4-0.9,8.9c-3.5,12-12.8,20.5-25.6,23.2
		C364.5,414.7,358.2,415,354.9,414.6L354.9,414.6z M199.8,362.1c-14.1-2.2-24.8-11.2-28.1-23.4c-1-3.9-1.1-10.8-0.2-14.7
		c1.4-5.7,4.7-10.5,7.9-11.6c2.7-0.9,6.3,0.3,8.1,2.8c1.4,1.9,1.3,4.1-0.2,8c-1.7,4.3-2,6.6-1.5,10.2c1.1,7.2,6.2,12.7,13.7,14.9
		c3,0.9,8.7,0.8,11.7-0.1c10.6-3.3,15.3-14.7,10.1-24.5c-2.5-4.8-8.3-8.5-20-12.8c-12.5-4.6-17.2-7.2-22.4-12.3
		c-4-4-5.9-7.2-7.3-12.2c-1.2-4.3-1.2-12,0-16.4c2.4-9,8.3-16.2,16.7-20.4c5-2.5,9.4-3.5,15.5-3.5c10.5,0,18.4,3.2,25.3,10.1
		c5.4,5.5,7.9,10.7,8.8,18c0.8,7.1-1.8,10.7-7.7,10.4c-3.8-0.2-6.1-2.5-6.6-6.1c-0.8-6.5-2.2-9.9-5.5-13.2
		c-6.4-6.4-17.5-7.5-25.1-2.6c-7.8,5.1-9.9,16.7-4.3,24.1c2.9,3.8,7.9,6.7,19.7,11.2c9.1,3.5,12.4,5,16.4,7.6
		c5.9,3.8,9.8,8.5,11.7,14.2c4.4,12.6,0.4,27.2-9.7,35.4c-3.1,2.5-8.6,5.2-12.6,6.3C210.7,362.3,203.3,362.6,199.8,362.1
		L199.8,362.1z M275.3,362.1c-10.9-1.6-21.4-9.5-26.1-19.6c-2.3-5.1-3.1-8.8-3.1-14.8c0-6.3,0.8-9.7,3.4-15.1
		c3.4-7.1,8.8-12.4,16.1-15.9c5.2-2.5,8-3.1,14.1-3.4c7.9-0.3,13.9,1.1,19.9,4.6c3,1.8,7.8,6.1,9.8,8.9c2.1,2.9,4.5,8,5.6,12.1
		c1,3.7,1,3.9,1.2,20.6c0.1,15,0.1,17-0.5,18.5c-2.1,5.4-10.8,5.8-13.5,0.5c-0.7-1.3-0.8-2.7-0.9-17.5c-0.1-13.4-0.3-16.4-0.8-18.5
		c-1.7-6.3-5.6-11.5-10.6-13.9c-12.1-5.9-26.1,1.3-28.7,14.9c-0.7,3.7-0.7,5.1,0,8.6c0.8,3.7,2.6,7.2,5.1,10
		c5.2,5.6,10.8,7.3,19.2,5.9c4-0.7,5.7-0.4,7.6,1.5c4.1,3.9,2.5,9.2-3.3,11.4C285.8,362.4,280.7,362.8,275.3,362.1L275.3,362.1z
		 M432.9,362.1c-12.4-1.8-22.8-9.5-27.8-20.6c-3.8-8.4-3.7-19.5,0.2-28.1c4.3-9.3,12.4-16.2,22.4-19.1c4.3-1.2,14.1-1.3,18.6-0.2
		c15,3.8,24.7,15.2,24.8,29c0,3.2-0.1,3.7-1.1,5.6c-0.7,1.3-1.8,2.5-2.8,3.2c-3,2.1-4.9,2.3-18.2,2.3c-11.6,0-12,0-13.7-0.9
		c-2.3-1.2-3.2-2.5-3.4-5.1c-0.1-1.7,0-2.3,0.7-3.4c2-3,2-3,12.9-3.2c9.2-0.2,9.8-0.2,10.4-1c1.2-1.6-0.4-5.8-3.4-8.7
		c-3.6-3.6-8.8-5.6-14.6-5.5c-6.1,0-10.3,1.7-14.4,5.9c-8.5,8.5-8.6,21.8-0.4,30.2c4.2,4.3,8.9,6.2,15.3,6.2c6.3,0,8.8-0.9,18.6-6.3
		c8.6-4.8,15.2,4.1,8,10.8C457.9,360,444.3,363.7,432.9,362.1L432.9,362.1z"/>
</g>
</svg>
