<?xml version="1.0" encoding="utf-8"?>
<!-- Generator: Adobe Illustrator 16.0.0, SVG Export Plug-In . SVG Version: 6.00 Build 0)  -->
<svg version="1.2" baseProfile="tiny" id="Layer_1" xmlns="http://www.w3.org/2000/svg" xmlns:xlink="http://www.w3.org/1999/xlink"
	 x="0px" y="0px" width="512px" height="512px" viewBox="0 0 512 512" xml:space="preserve">
<g>
	<circle fill="#5B247B" cx="313.887" cy="310" r="188.401"/>
	<g transform="translate(0.000000,1088.000000) scale(0.100000,-0.100000)">
		<path fill="#FFFFFF" d="M2343.342,8184.006c-93.198-5.84-178.564-39.639-247.959-98.076
			c-11.904-10.049-35.181-33.408-45.015-45.244c-51.948-62.236-81.362-134.658-86.475-213.223
			c-0.513-7.842-0.806-85.303-0.806-229.268v-217.5l987.998,0.215c938.554,0.156,988.447,0.225,998.633,1.475
			c57.207,6.943,102.08,19.961,148.555,43.096c43.105,21.445,76.582,45.742,109.766,79.443
			c32.598,33.193,56.455,67.93,74.346,108.203c15.01,33.848,23.652,65.713,28.906,106.436l1.621,12.549l0.225,226.377l0.225,226.318
			l-980.176-0.068C2794.035,8184.67,2348.669,8184.279,2343.342,8184.006z M4213.127,8118.586
			c12.646-3.262,24.834-13.145,30.684-25.059c6.719-13.604,6.719-29.629,0-43.232c-5.85-11.895-19.072-22.461-31.787-25.498
			c-6.123-1.416-17.598-1.416-23.213,0c-17.295,4.365-31.914,19.365-35.469,36.426c-5.84,27.432,12.49,54.248,39.912,58.467
			C4198.645,8120.588,4207.287,8120.051,4213.127,8118.586z M3472.278,8002.248c83.008-5.762,149.6-40.645,185.068-97.178
			c26.465-42.129,36.797-96.523,28.086-148.193c-15.518-92.617-88.311-167.842-181.074-187.266
			c-18.252-3.789-31.641-5.039-63.496-5.996c-47.949-1.475-90.742,7.1-129.316,25.859c-25.361,12.354-45.313,26.768-65.049,47.012
			c-31.768,32.578-51.66,72.578-58.447,117.588c-1.563,10.488-2.227,38.145-1.113,49.883c2.871,30.371,12.637,62.002,26.738,86.533
			c9.248,15.986,17.598,26.846,31.27,40.449c37.695,37.607,92.471,61.328,160.088,69.463
			C3425.949,8002.912,3452.336,8003.576,3472.278,8002.248z M3895.256,7999.299c28.086-0.732,42.666-1.543,62.988-3.398
			c94.004-8.438,151.201-30.674,168.711-65.703c5.83-11.758,9.99-30.391,10.059-45.469c0.068-14.336-2.305-25.488-7.91-36.572
			c-11.309-22.607-35.84-41.748-66.436-51.963l-8.643-2.871l12.344-4.287c14.766-5.029,21.787-8.291,31.182-14.414
			c21.143-13.896,34.58-31.201,42.49-54.99c16.201-48.408-9.092-90.029-73.906-121.65c-18.926-9.238-35.176-14.561-59.492-19.59
			c-59.346-12.109-146.934-14.414-243.896-6.201c-9.541,0.732-20.02,1.768-23.281,2.139c-3.252,0.439-6.133,0.752-6.436,0.752
			c-0.371,0-0.586,94.082-0.586,209.15v209.16l1.699,0.273c1.924,0.449,26.318,2.383,43.018,3.408
			c14.785,0.908,50.4,2.227,65.049,2.451c6.113,0.127,14.551,0.215,18.828,0.352
			C3865.334,7999.963,3880.695,7999.65,3895.256,7999.299z M2418.362,7992.805c0-1.787,24.39-267.92,24.614-268.662
			c0.142-0.439,54.253,249.648,57.651,266.504l0.732,3.467h106.65h106.719v-2.061c0-1.914,32.002-407.07,32.959-417.285l0.439-5.098
			l-83.359,0.439c-45.82,0.293-83.369,0.605-83.447,0.752c-0.068,0.059-4.053,70.508-8.789,156.445
			c-4.805,85.967-8.799,156.396-8.936,156.543c-0.156,0.166-0.596-1.328-0.967-3.33c-2.51-11.602-69.692-308.916-69.99-309.746
			c-0.229-0.742-16.631-0.889-79.976-0.742l-79.663,0.225l-24.468,150.791c-18.252,112.471-24.609,150.01-24.985,147.803
			c-0.43-3.018-37.388-297.559-37.388-298.447c0-0.293-25.791-0.518-57.358-0.518h-57.271l0.439,3.115
			c0.439,3.457,40.288,418.77,40.288,420.225c0,0.684,27.632,0.889,123.042,0.889
			C2412.961,7994.113,2418.362,7994.035,2418.362,7992.805z M2968.899,7911.789c34.219-64.814,43.389-81.67,43.975-80.771
			c0.449,0.576,19.951,37.539,43.32,82.1l42.48,80.996h61.494c33.857,0,61.563-0.146,61.563-0.371
			c0-0.127-36.055-60.381-80.176-133.77l-80.205-133.379v-42.354c0-23.213-0.215-58.467-0.508-78.35l-0.449-36.006l-82.1,0.146
			l-82.109,0.225l-0.381,80.566l-0.371,80.557l-71.973,127.119c-39.619,69.912-73.105,129.043-74.434,131.416l-2.441,4.199
			l89.58-0.146l89.57-0.225L2968.899,7911.789z"/>
		<path fill="#FFFFFF" d="M4190.148,8112.824c-11.084-2.744-22.021-11.543-27.119-21.875c-8.291-17.002-5.625-34.365,7.461-48.135
			c7.979-8.34,16.25-12.256,27.559-12.998c12.568-0.801,22.852,3.262,32.236,12.646c8.73,8.711,12.334,17.285,12.334,29.258
			c0,19.434-12.861,36.074-31.709,41.006C4205.822,8114.074,4195.539,8114.074,4190.148,8112.824z M4214.094,8098.771
			c7.383-2.354,10.566-6.641,10.566-14.336c0-5.615-2.803-10.273-7.549-12.646c-1.758-0.811-3.613-1.543-4.131-1.543
			c-0.439,0,1.855-5.391,5.039-11.963c3.242-6.592,5.898-12.285,5.898-12.578s-2.354-0.586-5.244-0.586h-5.254l-5.605,11.836
			l-5.615,11.816h-5.771h-5.762v-11.816v-11.836h-4.795h-4.814v27.793v27.783l14.629-0.371
			C4206.33,8100.1,4211.281,8099.68,4214.094,8098.771z"/>
		<path fill="#FFFFFF" d="M4190.666,8084.729v-9.307h8.135c9.463,0,13.447,1.191,15.146,4.502
			c2.363,4.443,0.742,10.049-3.555,12.285c-1.699,0.879-4.795,1.318-11.006,1.543l-8.721,0.293V8084.729L4190.666,8084.729z"/>
		<path fill="#FFFFFF" d="M3436.076,7911.33c-18.34-2.285-35.625-11.523-47.754-25.713c-19.736-22.979-29.863-56.68-31.113-103.232
			c-1.621-61.797,15.459-101.26,51.074-117.959c18.779-8.721,43.682-9.531,62.451-1.836c10.488,4.268,23.643,15.273,30.889,26.006
			c3.838,5.615,9.307,16.553,12.119,24.229c9.98,26.836,13.525,73.848,8.35,109.082c-6.279,42.949-23.057,70.889-50.039,83.516
			C3461.418,7910.471,3447.444,7912.746,3436.076,7911.33z"/>
		<path fill="#FFFFFF" d="M3898.723,7909.045c-3.467-0.361-7.012-0.811-7.979-1.025l-1.621-0.371l0.156-41.621l0.205-41.523
			l6.66-0.889c9.824-1.25,30.156-1.172,39.385,0.225c25.127,3.701,40.215,14.639,44.873,32.598
			c1.631,6.201,1.475,17.432-0.381,23.34c-6.133,19.971-28.311,30.303-64.15,30.01
			C3909.895,7909.709,3902.209,7909.348,3898.723,7909.045z"/>
		<path fill="#FFFFFF" d="M3899.104,7747.209c-3.623-0.293-7.393-0.83-8.359-1.045l-1.621-0.371l0.156-41.602l0.205-41.543
			l4.453-0.664c2.432-0.371,13.057-0.742,23.643-0.742c15.664-0.068,20.469,0.225,25.869,1.25
			c10.049,1.992,15.879,3.926,23.203,7.607c14.551,7.275,22.236,19.531,22.236,35.42c0,11.221-3.164,18.916-10.791,26.23
			c-7.324,7.031-17.734,11.523-33.926,14.561C3937.092,7747.648,3908.938,7748.244,3899.104,7747.209z"/>
	</g>
</g>
<path fill="#333B61" d="M65.773,88.821c43.079-25.982,96.633,3.288,98.123,52.228c0.614,19.705-1.354,38.771-13.69,54.918
	c-17.502,22.931-41.127,32.098-69.539,27.094c-6.782-1.191-12.96-5.844-20.654-9.491c-7.433,10.512-19.173,13.771-34.02,10.305
	v-8.472c0-54.146,0-108.286,0-162.424c0-9.086-0.092-17.629-11.146-21.25c-1.653-0.542-1.734-5.816-2.791-9.846
	c16.961,0,32.512-0.135,48.027,0.072c5.013,0.072,5.681,3.975,5.672,8.065c-0.036,16.545-0.036,33.087,0,49.626L65.773,88.821z
	 M65.773,152.4c0,14.774-0.126,29.55,0.118,44.325c0.045,2.771,0.804,6.132,2.483,8.199c10.736,13.177,28.385,12.518,38.129-1.327
	c7.911-11.234,10.386-24.223,11.162-37.588c0.976-16.86,0.371-33.577-7.975-48.902c-8.128-14.856-23.904-21.575-38.626-17.159
	c-4.056,1.219-5.419,3.143-5.419,7.387c0.28,15.021,0.126,30.047,0.126,45.048L65.773,152.4L65.773,152.4z"/>
<path fill="#F7A800" d="M226.464,74.209c-13.038-0.563-25.744-4.28-37.027-10.837c-4.724-2.755-9.374-5.645-14.089-8.417
	c-2.158-1.26-4.585-1.99-7.08-2.132c-0.957-0.024-1.905,0.183-2.764,0.605c-5.972,2.799-11.67,6.146-17.023,9.996
	c-7.758,5.601-17.159,3.813-23.634-1.472c-3.53-2.695-5.952-6.589-6.81-10.945c-0.968-5.328,0.37-10.179,3.313-14.631
	c1.804-2.658,4.134-4.922,6.845-6.646c7.1-4.715,14.226-9.394,22.182-12.645c5.622-2.435,11.69-3.665,17.817-3.611
	c9.676,0.31,19.129,2.979,27.536,7.774c4.977,2.765,9.825,5.753,14.666,8.742c4.108,2.432,8.651,4.039,13.375,4.732
	c4.156,0.649,8.412-0.063,12.129-2.032c4.58-2.326,8.913-5.109,12.934-8.31c8.536-6.719,20.881-5.36,27.752,3.054
	c2.481,3.079,3.891,6.884,4.01,10.837c0.371,6.564-1.715,12.048-6.918,16.364c-7.848,6.512-16.256,12.021-25.847,15.65
	C241.01,72.898,233.766,74.227,226.464,74.209z"/>
</svg>
